<svg width="165" height="141" viewBox="0 0 165 141" fill="none" xmlns="http://www.w3.org/2000/svg">
<path d="M137.078 26.1376C138.416 26.2068 138.416 26.2068 139.524 26.945C139.738 27.9618 139.827 28.9646 139.923 29.9988C140.175 31.1046 140.175 31.1046 141.297 31.6368C143.003 32.8587 143.39 34.33 144.068 36.265C144.196 36.6033 144.324 36.9416 144.455 37.2902C145.644 40.5379 145.843 43.4062 145.739 46.8582C145.801 48.0297 145.976 48.802 146.537 49.8298C146.902 49.9516 147.268 50.0735 147.644 50.199C149.17 61.3275 149.17 61.3275 146.906 64.9633C146.472 66.223 146.499 67.4229 146.514 68.7467C146.517 69.1445 146.52 69.5423 146.524 69.9521C146.528 70.2547 146.532 70.5573 146.537 70.8691C146.78 70.9909 147.024 71.1127 147.275 71.2382C147.104 73.8388 146.638 76.2031 145.868 78.6896C145.73 79.1603 145.73 79.1603 145.59 79.6405C145.004 81.5712 144.28 83.1822 143.215 84.8953C142.17 86.6121 141.345 88.133 140.908 90.109C140.443 92.0008 139.641 93.5276 138.647 95.1842C138.508 95.417 138.37 95.6497 138.227 95.8895C137.033 97.815 135.589 99.303 133.802 100.698C132.152 102.09 131.2 103.813 130.204 105.702C129.369 106.956 128.364 107.883 127.251 108.887C127.048 109.075 126.846 109.262 126.638 109.456C122.761 112.997 122.761 112.997 120.007 113.478C117.053 114.142 115.135 115.382 113.249 117.726C111.843 119.358 110.428 120.05 108.426 120.768C108.101 120.89 107.776 121.012 107.441 121.138C99.8161 123.927 91.8835 125.027 83.886 126.246C74.9186 127.514 74.9186 127.514 67.6207 132.521C66.2621 134.385 65.5723 136.355 64.9475 138.563C64.586 139.546 64.3094 139.999 63.487 140.631C62.1374 141.042 61.525 141.118 60.2342 140.516C59.4267 139.893 59.4267 139.893 59.0576 139.154C58.6165 135.096 60.7175 131.212 63.1178 128.081C64.7137 126.205 66.7045 125.074 68.8621 123.952C69.0857 123.833 69.3093 123.715 69.5397 123.592C74.8215 120.992 80.9771 120.439 86.7178 119.545C87.9405 119.353 89.163 119.161 90.3853 118.966C91.1398 118.846 91.8945 118.728 92.6494 118.611C94.2012 118.366 95.7267 118.102 97.2484 117.709C98.8173 117.31 100.256 117.176 101.85 117.54C103.036 117.797 103.764 117.915 104.868 117.342C105.983 116.521 106.935 115.648 107.871 114.626C109.086 113.503 110.317 112.879 111.794 112.163C114.353 110.878 116.622 109.405 118.854 107.611C120.237 106.527 121.211 106.217 122.914 105.935C123.617 105.242 123.617 105.242 124.136 104.32C125.046 102.913 125.988 101.611 127.066 100.329C134.269 91.5872 139.241 82.0676 141.369 70.8691C141.452 70.4466 141.535 70.0241 141.62 69.5888C142.703 63.0007 142.368 56.1973 141.26 49.6424C141.036 48.3116 140.953 47.0284 140.931 45.6774C140.74 42.8907 139.305 40.5161 138.065 38.0677C137.463 36.842 136.934 35.5876 136.409 34.3272C135.911 32.9371 135.911 32.9371 135.094 31.7435C135.118 30.8813 135.169 30.0198 135.233 29.1597C135.266 28.6877 135.299 28.2157 135.334 27.7294C135.503 26.2251 135.503 26.2251 137.078 26.1376Z" fill="#006837"/>
<path d="M28.7905 26.2068C29.6757 27.092 29.562 28.7264 29.6455 29.8994C29.5647 33.0317 27.6063 36.0394 26.1927 38.7542C24.3845 42.2281 23.6019 45.1768 23.3196 49.0848C23.2221 50.1893 23.0225 51.2744 22.8386 52.3675C20.7597 67.984 25.0111 83.9991 34.5548 96.4886C35.8345 98.1397 37.1375 99.772 38.4623 101.387C39.3974 102.594 40.2015 103.881 40.9956 105.185C41.9708 106.209 42.9403 106.306 44.2931 106.673C45.4163 107.41 45.4163 107.41 46.577 108.311C49.0244 110.159 51.6236 111.608 54.3502 113.005C56.0542 113.899 57.2208 114.636 58.3193 116.27C59.1802 117.235 59.1802 117.235 60.534 117.746C61.5887 117.714 61.5887 117.714 62.7717 117.562C66.4311 117.157 69.8931 118.054 73.4528 118.853C73.4528 119.097 73.4528 119.341 73.4528 119.592C73.0831 119.734 72.7134 119.877 72.3325 120.024C71.837 120.218 71.3414 120.412 70.846 120.607C70.6036 120.7 70.3611 120.793 70.1114 120.889C68.8551 121.384 67.7362 121.906 66.6027 122.643C64.4329 123.736 62.5327 122.902 60.3463 122.188C53.0086 119.691 53.0086 119.691 50.2176 116.324C48.449 114.472 46.1856 113.756 43.7395 113.224C41.2384 112.604 39.8028 111.029 38.0183 109.257C37.2484 108.597 36.4711 107.947 35.6897 107.301C34.9399 106.546 34.4821 105.752 33.958 104.827C33.5744 104.214 33.1819 103.607 32.7815 103.005C32.586 102.705 32.3904 102.404 32.1889 102.095C31.4571 101.234 30.8552 100.742 29.9411 100.107C28.2907 98.9116 27.3414 97.5518 26.3221 95.8071C26.1479 95.5169 25.9736 95.2267 25.7941 94.9277C24.4824 92.6673 23.6558 90.4367 22.9237 87.939C22.5368 86.8029 22.1161 86.0372 21.4083 85.0799C18.8556 81.5888 17.1998 75.4987 17.3481 71.2382C17.7135 71.0555 17.7135 71.0555 18.0863 70.8691C18.2979 67.4488 17.7606 65.0501 16.2408 62.0105C16.0084 58.0278 16.4389 54.1384 16.979 50.199C17.5271 50.0163 17.5271 50.0163 18.0863 49.8299C18.8443 48.5182 18.8619 47.4185 18.7766 45.9282C18.5074 41.1831 19.9275 36.137 22.5156 32.1126C22.8354 31.9527 23.1551 31.7928 23.4846 31.6281C24.4484 31.0851 24.4484 31.0851 24.6034 30.0652C24.717 29.3346 24.8146 28.6014 24.8947 27.8664C25.349 25.8221 27.0574 26.1105 28.7905 26.2068Z" fill="#006837"/>
<path d="M64.5942 91.5393C67.9056 94.2367 69.4732 101.415 69.9016 105.385C70.036 109.118 69.0009 111.768 66.4628 114.498C65.1525 115.642 63.6829 116.516 62.0104 117.008C60.3468 116.827 59.5093 116.352 58.3193 115.162C56.03 111.781 55.435 109.294 55.7356 105.196C56.8654 100.013 61.1661 95.3967 64.5942 91.5393Z" fill="#006837"/>
<path d="M99.6598 91.5393C100.286 92.1457 100.898 92.7599 101.505 93.3848C101.728 93.6137 101.952 93.8425 102.182 94.0783C106.127 98.3042 109.23 103.2 109.056 109.105C108.652 112.119 106.969 114.449 104.897 116.593C103.631 117.243 102.864 117.001 101.505 116.639C98.7873 115.392 96.4917 113.222 95.2535 110.479C93.3778 104.453 96.3181 98.0074 98.9216 92.6466C99.1652 92.2812 99.4088 91.9158 99.6598 91.5393Z" fill="#006837"/>
<path d="M49.4031 116.417C51.4051 118.217 52.4332 120.487 53.5209 122.914C51.5309 125.61 48.7133 127.7 45.4005 128.45C40.9313 129.056 37.0921 126.978 33.589 124.39C32.6143 123.567 31.6716 122.723 30.7428 121.848C29.8908 121.038 29.8908 121.038 28.8684 120.277C28.5991 120.05 28.3298 119.824 28.0524 119.592C28.0524 119.348 28.0524 119.104 28.0524 118.853C42.8734 111.464 42.8734 111.464 49.4031 116.417Z" fill="#006837"/>
<path d="M136.571 118.853C134.068 123.313 128.296 126.909 123.467 128.358C119.388 128.766 116.476 127.851 113.203 125.336C112.514 124.699 111.981 124.071 111.471 123.283C111.42 121.078 112.725 119.398 114.055 117.746C120.566 111.032 129.407 115.37 136.571 118.853Z" fill="#006837"/>
<path d="M113.686 82.3115C115.578 83.3163 117.096 84.4133 118.646 85.8873C118.853 86.0828 119.06 86.2783 119.274 86.4797C122.676 89.7219 125.48 92.507 125.682 97.445C125.585 100.136 124.672 102.189 123.375 104.504C122.376 105.336 121.668 105.418 120.382 105.325C117.36 104.834 114.992 103.308 113.186 100.815C110.318 96.001 111.811 89.2168 112.958 84.072C113.317 82.6806 113.317 82.6806 113.686 82.3115Z" fill="#006837"/>
<path d="M50.5681 82.3115C50.8117 82.4333 51.0553 82.5551 51.3063 82.6806C52.3612 86.3957 52.9231 90.1699 52.9442 94.0308C52.9479 94.329 52.9515 94.6272 52.9552 94.9345C52.9097 98.1103 51.9502 100.38 49.7938 102.701C48.459 103.937 46.8701 104.973 45.0315 105.196C44.5595 105.272 44.0875 105.349 43.6012 105.427C42.5229 105.419 42.1909 105.31 41.4211 104.533C39.3664 101.532 38.7819 98.8427 39.1257 95.2304C40.1161 90.2406 45.6542 85.5557 49.6915 82.8421C49.9808 82.667 50.27 82.4919 50.5681 82.3115Z" fill="#006837"/>
<path d="M141.669 99.1291C142.005 99.1305 142.341 99.132 142.687 99.1335C146.09 99.2041 150.091 99.5913 153.181 101.136C151.678 105.511 146.991 110.175 142.846 112.209C139.641 113.433 136.983 113.156 133.838 111.923C132.512 111.298 131.439 110.54 130.296 109.626C130.966 106.15 131.953 103.497 134.518 100.998C136.934 99.4652 138.847 99.0975 141.669 99.1291Z" fill="#006837"/>
<path d="M29.5764 100.568C32.3792 102.874 33.6883 105.701 34.3272 109.257C31.9854 111.546 29.3529 112.953 26.0223 113.132C20.7573 112.805 17.5574 109.298 14.2107 105.635C11.4424 102.416 11.4424 102.416 11.4424 101.136C16.5711 99.2366 24.6332 97.4136 29.5764 100.568Z" fill="#006837"/>
<path d="M39.8639 67.9162C41.7944 69.8468 41.4281 74.3827 41.4557 77.0517C41.439 80.521 40.9248 83.8214 38.3874 86.3717C36.2237 88.0019 34.2701 88.7991 31.5402 88.7911C30.6361 88.5864 30.6361 88.5864 29.9974 87.9664C28.2736 85.2062 28.1356 82.5621 28.4215 79.3586C29.8512 73.9607 35.4188 70.6817 39.8639 67.9162Z" fill="#006837"/>
<path d="M124.39 67.9162C128.865 70.1647 133.766 73.6224 135.887 78.3119C136.745 81.1681 136.616 83.9943 135.302 86.6716C134.498 88.075 134.498 88.075 133.987 88.5864C131.442 88.889 129.461 88.565 127.343 87.1099C124.617 84.7561 123.442 82.1827 123.172 78.6435C123.165 78.1437 123.164 77.6438 123.167 77.144C123.168 76.8778 123.168 76.6116 123.169 76.3374C123.219 73.4643 123.758 70.7107 124.39 67.9162Z" fill="#006837"/>
<path d="M18.976 83.3078C21.6181 85.4695 22.4221 88.3294 23.2539 91.5393C21.1093 93.8078 19.0154 94.5809 15.8948 94.6998C11.9208 94.5589 9.50908 92.8826 6.81844 90.0513C2.58377 84.967 2.58377 84.967 2.58377 82.6806C3.81362 82.4925 5.04416 82.3093 6.27487 82.1269C6.61983 82.0741 6.96479 82.0213 7.3202 81.9669C11.2062 81.3962 15.5195 81.0713 18.976 83.3078Z" fill="#006837"/>
<path d="M154.565 81.6886C154.855 81.7057 155.145 81.7228 155.443 81.7404C157.677 81.8875 159.854 82.1848 162.039 82.6806C161.598 86.4032 157.826 90.3563 155.026 92.6466C152.647 94.3663 150.398 94.7968 147.482 94.7041C145.333 94.3576 143.577 93.4091 141.738 92.2775C141.81 89.1972 142.487 86.5496 144.571 84.1974C147.408 81.6058 150.893 81.4542 154.565 81.6886Z" fill="#006837"/>
<path d="M36.5418 50.5681C36.8501 62.3074 36.8501 62.3074 33.8096 65.8559C31.8772 67.7693 29.8971 68.4733 27.2593 68.7323C26.4836 68.7237 26.4836 68.7237 25.0994 68.2853C23.6795 66.5224 23.4005 64.3657 23.5062 62.1633C23.8511 59.5319 24.9473 57.4831 26.945 55.7356C34.1474 50.5681 34.1474 50.5681 36.5418 50.5681Z" fill="#006837"/>
<path d="M128.081 50.5681C132.781 52.0173 137.79 54.7503 140.321 59.1095C141.26 61.1886 141.36 63.4652 140.67 65.6309C140.31 66.5279 139.933 67.4099 139.524 68.2853C136.802 68.8397 134.527 68.5574 132.123 67.0828C129.376 64.9301 128.551 62.0304 128.081 58.6885C128.002 57.2559 128.01 55.8317 128.035 54.3976C128.038 54.0269 128.042 53.6563 128.045 53.2744C128.054 52.3722 128.066 51.4702 128.081 50.5681Z" fill="#006837"/>
<path d="M0 59.0576C1.21496 59.0358 2.42986 59.0229 3.64496 59.0115C3.98373 59.0053 4.32251 58.9991 4.67155 58.9927C8.00706 58.9692 11.613 59.2423 14.3953 61.2723C16.9232 63.9013 17.452 66.5984 17.7173 70.1309C14.8053 71.8565 11.6396 72.2014 8.3439 71.3896C4.73797 69.8463 2.76846 66.0813 1.10733 62.7487C0.878943 62.33 0.650556 61.9113 0.415249 61.4799C0 60.534 0 60.534 0 59.0576Z" fill="#006837"/>
<path d="M160.978 59.0114C161.331 59.0148 161.684 59.0181 162.048 59.0215C162.906 59.0301 163.765 59.0422 164.623 59.0576C164.422 60.9002 163.815 62.3606 162.939 63.9714C162.807 64.2139 162.676 64.4565 162.54 64.7064C161.036 67.393 159.204 70.1314 156.281 71.3911C153.199 72.1439 150.115 71.8632 147.275 70.5C147.047 67.1181 147.621 64.9346 149.397 62.0797C152.486 59.0772 156.906 58.9371 160.978 59.0114Z" fill="#006837"/>
<path d="M125.497 35.8037C130.23 36.0173 135.209 37.3331 138.601 40.8097C139.678 42.5596 139.994 43.942 139.985 46.0003C139.988 46.6241 139.988 46.6241 139.991 47.2605C139.893 48.3534 139.893 48.3534 139.154 49.4607C136.906 50.2104 134.185 50.2409 132.003 49.2531C128.67 47.2423 127.328 43.8215 126.236 40.233C125.904 38.7618 125.659 37.3026 125.497 35.8037Z" fill="#006837"/>
<path d="M39.1257 35.8037C38.5096 40.3095 37.396 45.4444 33.7333 48.476C32.1004 49.6198 30.7723 49.8869 28.8137 49.899C28.4298 49.9043 28.0458 49.9095 27.6502 49.9149C26.5837 49.8305 25.9849 49.6771 25.0996 49.0916C24.1958 47.2842 24.4726 44.5748 24.9568 42.6596C26.2325 39.7655 28.7368 38.4941 31.559 37.3724C34.0842 36.4645 36.4063 35.6677 39.1257 35.8037Z" fill="#006837"/>
<path d="M160.563 35.4346C158.995 45.482 158.995 45.482 155.476 48.1054C153.636 49.0923 152.302 49.5132 150.228 49.5069C149.76 49.5083 149.76 49.5083 149.282 49.5098C148.439 49.4638 147.714 49.3274 146.906 49.0916C146.207 46.7057 146.077 43.8658 147.113 41.571C149.296 37.9352 153.119 36.7648 157.033 35.6883C158.255 35.4525 159.324 35.4154 160.563 35.4346Z" fill="#006837"/>
<path d="M4.06021 35.4346C8.2798 35.5438 13.2063 36.7667 16.2408 39.8639C17.685 41.6139 18.1381 43.1251 18.1325 45.3775C18.134 45.9534 18.134 45.9534 18.1354 46.541C18.0935 47.4589 17.9828 48.2172 17.7173 49.0916C14.9758 49.8713 12.1101 49.7509 9.59686 48.3534C6.0332 45.4528 4.71946 41.0135 4.15249 36.588C4.12204 36.2074 4.09158 35.8267 4.06021 35.4346Z" fill="#006837"/>
<path d="M132.511 0C135.763 1.4494 137.899 4.70341 139.524 7.75131C140.572 10.554 140.443 12.6273 139.286 15.3628C138.515 16.7147 137.469 17.5795 136.202 18.4555C133.728 17.3945 131.778 16.3345 130.296 14.0262C128.783 9.48755 130.488 4.96683 132.141 0.73822C132.263 0.494607 132.385 0.250995 132.511 0Z" fill="#006837"/>
<path d="M32.1126 0C32.475 0.953163 32.8362 1.90674 33.1968 2.8606C33.2994 3.12991 33.4019 3.39921 33.5075 3.67668C33.6063 3.93837 33.705 4.20007 33.8067 4.46969C33.8976 4.70938 33.9884 4.94907 34.082 5.19602C34.9932 7.83338 35.1845 11.0656 34.47 13.7782C33.3631 15.9432 31.1725 17.3616 28.9751 18.2248C28.6706 18.3009 28.3661 18.3771 28.0524 18.4555C25.9805 16.2701 24.5526 14.5864 24.1998 11.5116C24.4214 6.91103 27.7749 3.52993 30.8409 0.435434C31.3743 0 31.3743 0 32.1126 0Z" fill="#006837"/>
<path d="M121.437 17.7173C131.13 19.8084 131.13 19.8084 133.618 23.623C134.424 24.9232 134.466 26.0038 134.471 27.5218C134.478 27.9409 134.484 28.3601 134.49 28.792C134.356 29.8979 134.356 29.8979 133.89 30.5799C132.449 31.5353 130.692 31.5242 129.036 31.1999C126.947 30.5607 125.361 29.7118 124.133 27.8332C122.524 24.5623 121.339 21.4025 121.437 17.7173Z" fill="#006837"/>
<path d="M43.1859 17.7173C43.0919 21.9055 42.0071 26.373 39.1257 29.5288C37.3697 30.9583 35.4641 31.4178 33.22 31.3743C32.2669 31.2268 31.544 30.9955 30.6362 30.6361C29.8145 28.9927 30.0815 26.8825 30.2671 25.0995C31.136 22.7955 32.7742 21.2768 34.9516 20.1612C40.8799 17.7173 40.8799 17.7173 43.1859 17.7173Z" fill="#006837"/>
<path d="M11.0733 18.0864C20.2773 19.633 20.2773 19.633 22.8531 22.9425C23.8986 24.7176 24.0768 26.1073 24.0383 28.1677C24.0316 28.6307 24.025 29.0936 24.0181 29.5706C24.0096 29.9222 24.001 30.2738 23.9922 30.6361C21.7325 31.3894 19.0389 31.3284 16.7945 30.5669C13.3699 28.0841 11.8184 24.396 11.0733 20.301C11.0569 19.563 11.0528 18.8243 11.0733 18.0864Z" fill="#006837"/>
<path d="M153.55 18.0864C153.464 21.9903 152.43 26.1213 149.859 29.1597C147.891 30.6456 146.556 31.0568 144.114 31.0514C143.688 31.0523 143.261 31.0533 142.821 31.0543C141.738 31.0052 141.738 31.0052 141 30.6361C140.27 28.446 140.259 25.9711 141.231 23.8537C143.04 20.8014 145.865 19.868 149.12 18.8246C150.578 18.456 152.04 18.0864 153.55 18.0864Z" fill="#006837"/>
<path d="M100.696 127.131C103.352 130.207 105.29 133.86 105.704 137.932C105.565 139.154 105.565 139.154 104.943 140.031C103.974 140.712 103.429 140.971 102.243 141C100.897 140.487 100.479 140.051 99.8212 138.762C99.6377 138.28 99.4616 137.795 99.2906 137.309C97.6925 132.783 95.572 130.703 91.3547 128.519C91.0502 128.375 90.7457 128.23 90.4319 128.081C90.4319 127.959 90.4319 127.838 90.4319 127.712C91.6843 127.453 92.938 127.201 94.1922 126.951C94.5465 126.877 94.9007 126.804 95.2657 126.728C95.7813 126.626 95.7813 126.626 96.3074 126.523C96.78 126.427 96.78 126.427 97.2622 126.329C98.5904 126.194 99.6346 126.294 100.696 127.131Z" fill="#006837"/>
<path d="M77.2212 3.22224C77.4346 3.30523 77.648 3.38792 77.8616 3.47023C78.2047 3.60256 78.547 3.73676 78.8881 3.87394C81.0766 4.66088 83.0317 4.00162 85.0969 3.22224C85.3434 3.13109 85.5899 3.04005 85.8365 2.94912C86.2787 2.78519 86.7201 2.61913 87.1606 2.45062C88.4249 1.97085 89.8971 1.82494 91.2039 2.25599C92.9853 3.24255 93.9988 5.22565 95.0155 6.91332C96.6891 9.62054 98.7305 10.3427 101.684 11.1063C104.957 11.959 104.957 11.959 105.971 13.1572C106.057 13.2544 106.143 13.3516 106.231 13.4517C106.928 14.5407 107.02 15.5097 106.986 16.7673C106.983 16.9997 106.983 16.9997 106.98 17.2367C106.973 17.8939 106.959 18.5509 106.946 19.208C106.937 19.6903 106.931 20.1726 106.926 20.6549C106.922 20.8008 106.918 20.9467 106.914 21.097C106.898 22.4271 107.141 23.6976 107.97 24.7698C108.082 24.9161 108.194 25.0623 108.309 25.213C108.624 25.6065 108.948 25.9914 109.274 26.3758C112.178 29.8094 112.178 29.8094 112.142 32.0339C111.963 33.8623 110.664 35.2882 109.506 36.6203C107.896 38.4743 106.888 40.1414 106.941 42.6344C106.945 42.9538 106.948 43.2731 106.951 43.5925C106.958 44.0912 106.966 44.5898 106.975 45.0885C106.982 45.573 106.987 46.0575 106.992 46.5421C106.997 46.7629 106.997 46.7629 107.002 46.9882C107.011 48.1933 106.801 49.1869 106.122 50.1949C105.166 51.1297 104.122 51.5806 102.847 51.9328C102.707 51.9735 102.567 52.0142 102.422 52.0561C101.78 52.241 101.136 52.416 100.487 52.575C97.4675 53.3205 96.0564 54.7274 94.4894 57.3171C94.4061 57.4596 94.3229 57.602 94.2371 57.7488C93.3499 59.2458 92.3489 60.5938 90.7123 61.2951C88.6015 61.6637 86.8306 60.8823 84.8945 60.1295C84.4345 59.9516 83.9734 59.7771 83.5109 59.6056C83.3719 59.5539 83.2329 59.5022 83.0897 59.4489C80.8698 58.7194 78.909 59.4954 76.8251 60.2931C72.7588 61.8436 72.7588 61.8436 70.9597 61.103C69.3672 60.2322 68.4699 58.6268 67.5368 57.13C65.7284 54.2335 64.0609 53.1664 60.8069 52.3145C56.6895 51.2316 56.6895 51.2316 55.8143 49.773C55.2291 48.722 55.1619 47.7822 55.1871 46.6061C55.1904 46.287 55.1936 45.9678 55.1968 45.6487C55.2038 45.1497 55.2116 44.6507 55.2202 44.1517C55.2281 43.6673 55.2328 43.1829 55.2373 42.6985C55.2408 42.5516 55.2443 42.4047 55.2479 42.2533C55.2582 40.8928 55.003 39.6275 54.1568 38.5321C54.0443 38.3852 53.9318 38.2383 53.8159 38.087C53.3985 37.575 52.9703 37.0737 52.5395 36.5732C51.2814 35.1113 49.9139 33.4451 50.0042 31.4149C50.2823 29.4236 51.566 28.0027 52.8317 26.5337C54.3721 24.7453 55.2676 23.2732 55.216 20.8684C55.2127 20.549 55.2094 20.2297 55.2062 19.9103C55.1993 19.4116 55.1915 18.913 55.1828 18.4143C55.175 17.9298 55.1702 17.4453 55.1657 16.9607C55.1622 16.8135 55.1587 16.6663 55.1551 16.5146C55.1444 15.1085 55.4407 13.887 56.4441 12.863C57.7345 11.7358 59.4659 11.3318 61.0882 10.9271C63.7169 10.3011 63.7169 10.3011 65.8096 8.68698C65.8854 8.59954 65.9612 8.51211 66.0393 8.42203C66.8438 7.44826 67.494 6.37468 68.1499 5.29812C70.5386 1.42255 73.3394 1.66967 77.2212 3.22224ZM67.7891 19.0727C64.4676 22.5653 62.6705 27.288 62.7319 32.103C62.9715 37.4502 65.2062 41.8412 69.0542 45.5037C72.589 48.6402 77.3081 50.2404 82.019 50.0178C87.1224 49.6665 91.6778 47.3983 95.062 43.5649C98.1661 39.7676 99.7531 34.992 99.3297 30.0783C98.8108 25.153 96.515 20.836 92.8018 17.5816C85.112 11.4564 74.7105 12.3227 67.7891 19.0727Z" fill="#006837"/>
<path d="M99.7227 54.1729C101.31 57.6255 102.874 61.088 104.413 64.5627C104.908 65.6817 105.409 66.7986 105.911 67.9151C106.21 68.5821 106.509 69.2491 106.808 69.9162C106.912 70.1488 107.016 70.3815 107.121 70.6141C107.479 71.4139 107.838 72.2139 108.195 73.0142C108.312 73.2768 108.43 73.5394 108.548 73.8018C108.712 74.1671 108.875 74.5328 109.038 74.8986C109.088 75.0087 109.137 75.1188 109.188 75.2322C109.527 75.9952 109.527 75.9952 109.527 76.3533C108.014 76.2747 106.57 76.0462 105.086 75.7462C104.526 75.6399 103.966 75.5372 103.405 75.4341C102.825 75.3267 102.246 75.2148 101.669 75.0934C99.267 74.475 99.267 74.475 96.9215 74.7608C96.2877 75.2467 95.8979 75.8518 95.5339 76.5542C95.3424 76.9113 95.1004 77.191 94.8236 77.4853C94.1057 78.3189 93.3934 79.155 92.7009 80.0099C92.1317 80.7114 91.5363 81.3821 90.9266 82.0485C90.4022 82.6405 89.9146 83.2604 89.4273 83.883C89.1146 84.229 89.1146 84.229 88.6325 84.3897C87.5646 79.6545 86.553 74.9076 85.5447 70.1594C85.3304 69.1505 85.1158 68.1417 84.9012 67.1328C84.4838 65.1703 84.0667 63.2076 83.6499 61.2449C84.2239 61.0536 84.3432 61.1249 84.8893 61.3441C85.0364 61.4019 85.1835 61.4597 85.335 61.5193C85.4883 61.5812 85.6417 61.6432 85.7996 61.707C86.102 61.8277 86.4046 61.9479 86.7075 62.0674C86.8416 62.1215 86.9758 62.1755 87.1139 62.2312C88.4132 62.6897 89.9867 62.7968 91.2857 62.3267C91.7539 62.0903 92.2023 61.8381 92.6507 61.5664C92.7677 61.5162 92.8848 61.4661 93.0054 61.4144C93.375 61.197 93.4402 60.9885 93.615 60.602C93.7949 60.3775 93.9797 60.1569 94.1675 59.939C94.8863 59.0602 95.4605 58.1118 96.0347 57.1337C96.6003 56.1787 97.1533 55.261 98.1355 54.6852C98.242 54.6212 98.3485 54.5572 98.4582 54.4912C98.8996 54.2595 99.2222 54.1729 99.7227 54.1729Z" fill="#006837"/>
<path d="M62.4343 54.1729C63.8874 54.442 64.7786 55.174 65.6261 56.3584C65.9344 56.8285 66.2353 57.3023 66.5328 57.7792C67.1809 58.8141 67.8182 59.7871 68.6596 60.6761C68.8634 60.9235 68.8634 60.9235 68.8634 61.2449C68.9518 61.2876 69.0403 61.3303 69.1315 61.3743C69.395 61.5093 69.653 61.6553 69.9062 61.8087C71.5942 62.7753 73.1468 62.7563 75.0012 62.2595C75.9065 61.9735 76.7732 61.6193 77.635 61.2217C78.0249 61.0842 78.0249 61.0842 78.507 61.2449C77.8813 64.1677 77.2554 67.0905 76.6293 70.0133C76.3386 71.3703 76.048 72.7274 75.7574 74.0845C75.5042 75.2672 75.2509 76.4499 74.9976 77.6326C74.8634 78.2589 74.7292 78.8852 74.5952 79.5116C74.469 80.101 74.3428 80.6904 74.2164 81.2799C74.1701 81.4963 74.1237 81.7127 74.0775 81.9291C74.0143 82.2245 73.9509 82.5199 73.8876 82.8152C73.8522 82.9806 73.8168 83.1459 73.7803 83.3163C73.7009 83.6759 73.6162 84.033 73.5245 84.3897C73.0498 84.179 72.7485 83.9663 72.4126 83.5716C72.3278 83.4729 72.243 83.3743 72.1556 83.2726C72.067 83.1672 71.9784 83.0618 71.8871 82.9532C71.7945 82.8448 71.7019 82.7364 71.6066 82.6247C70.9545 81.8584 70.3176 81.0801 69.6846 80.2981C69.3408 79.8836 68.9848 79.4839 68.6223 79.0857C68.1242 78.5383 67.644 77.9813 67.1757 77.4081C67.0566 77.2631 66.9375 77.118 66.8147 76.9686C66.5643 76.6544 66.3215 76.3341 66.0852 76.0093C65.904 75.7669 65.904 75.7669 65.7191 75.5196C65.6129 75.3714 65.5066 75.2233 65.3971 75.0706C64.8522 74.6185 64.3946 74.6924 63.7201 74.7461C63.057 74.8305 62.3978 74.9343 61.7384 75.0437C61.4073 75.0987 61.0761 75.1523 60.7448 75.2057C60.1611 75.3 59.5775 75.3954 58.9941 75.4911C58.0593 75.6445 57.1244 75.797 56.1892 75.948C55.8642 76.0008 55.5393 76.0545 55.2144 76.1083C55.0159 76.1405 54.8174 76.1726 54.6128 76.2058C54.439 76.2343 54.2651 76.2629 54.086 76.2923C53.5951 76.3532 53.124 76.3642 52.6299 76.3533C53.0075 75.0913 53.5461 73.9168 54.1001 72.7252C54.3918 72.0973 54.6807 71.4681 54.9699 70.839C55.0296 70.7091 55.0893 70.5793 55.1509 70.4455C55.7545 69.1313 56.3436 67.8109 56.9293 66.4887C56.9806 66.373 57.0319 66.2573 57.0847 66.1381C57.3555 65.5274 57.626 64.9166 57.8964 64.3057C58.5131 62.9128 59.1313 61.5205 59.7497 60.1282C59.9576 59.6601 60.1653 59.1918 60.3729 58.7236C61.0486 57.2012 61.7291 55.6819 62.4343 54.1729Z" fill="#006837"/>
<path d="M80.918 17.6877C81.024 17.6877 81.1301 17.6877 81.2394 17.6877C81.7641 18.7296 82.288 19.7718 82.8111 20.8145C83.054 21.2986 83.2972 21.7826 83.5408 22.2663C83.8207 22.8222 84.0997 23.3784 84.3786 23.9347C84.4665 24.1089 84.5544 24.283 84.645 24.4624C84.7656 24.7037 84.7656 24.7037 84.8887 24.9499C84.9601 25.0919 85.0315 25.234 85.105 25.3803C85.2576 25.7241 85.2576 25.7241 85.2576 26.0456C85.3804 26.0517 85.5032 26.0578 85.6298 26.0641C87.2587 26.1616 88.8618 26.3751 90.4754 26.6128C90.9289 26.6793 91.3828 26.7434 91.8368 26.8074C92.1258 26.8495 92.4148 26.8916 92.7038 26.9339C92.8392 26.9529 92.9747 26.9718 93.1142 26.9913C94.0608 27.1338 94.0608 27.1338 94.4191 27.4921C93.6074 28.3079 92.795 29.123 91.9823 29.9377C91.7059 30.2149 91.4296 30.4923 91.1535 30.7698C90.7565 31.1687 90.359 31.5672 89.9614 31.9655C89.8381 32.0896 89.7149 32.2136 89.5879 32.3415C89.4721 32.4573 89.3563 32.5731 89.237 32.6924C89.1357 32.7941 89.0343 32.8958 88.9299 33.0006C88.6315 33.2796 88.3211 33.5218 87.99 33.7605C88.2132 35.7517 88.5395 37.7159 88.8941 39.6873C88.9724 40.1253 89.0505 40.5633 89.1283 41.0013C89.1763 41.2711 89.2246 41.5409 89.2732 41.8106C89.4365 42.7255 89.4365 42.7255 89.4365 43.0827C88.7306 42.8654 88.0978 42.5888 87.4431 42.2477C87.3474 42.198 87.2518 42.1483 87.1532 42.0972C86.9502 41.9917 86.7474 41.8858 86.5447 41.7797C86.2297 41.6148 85.9142 41.4511 85.5985 41.2877C84.7272 40.8355 83.8576 40.3817 83.0024 39.8995C82.8928 39.8382 82.7832 39.7769 82.6702 39.7138C82.3981 39.56 82.1279 39.4028 81.8578 39.2453C81.2883 39.0203 81.0283 39.085 80.4358 39.2252C80.0906 39.3765 79.7515 39.542 79.418 39.7174C79.2758 39.7916 79.2758 39.7916 79.1307 39.8673C78.825 40.0271 78.5204 40.1887 78.2157 40.3503C78.0059 40.4602 77.796 40.57 77.5861 40.6796C76.678 41.1548 75.7731 41.6354 74.8718 42.1233C74.745 42.1917 74.6182 42.2601 74.4875 42.3305C74.2595 42.454 74.0321 42.5786 73.8056 42.7047C73.5561 42.8403 73.2998 42.9631 73.0423 43.0827C72.9362 43.0296 72.8301 42.9766 72.7208 42.922C72.7393 42.817 72.7578 42.7121 72.7768 42.604C72.9689 41.5118 73.1589 40.4193 73.3477 39.3266C73.4184 38.9188 73.4897 38.5111 73.5615 38.1035C73.6646 37.5177 73.7658 36.9315 73.8667 36.3453C73.8991 36.1631 73.9316 35.9809 73.965 35.7932C73.994 35.6227 74.023 35.4523 74.0528 35.2766C74.0789 35.1271 74.105 34.9775 74.1318 34.8234C74.1699 34.3735 74.1309 34.0329 74.0067 33.5998C73.7236 33.2736 73.7236 33.2736 73.3449 32.9776C72.6066 32.3433 71.9098 31.6819 71.2228 30.9923C71.1208 30.8901 71.0187 30.7879 70.9136 30.6826C70.5982 30.3661 70.2833 30.0492 69.9684 29.7322C69.7512 29.5142 69.534 29.2963 69.3167 29.0783C68.7901 28.55 68.2641 28.0212 67.7383 27.4921C68.1176 27.1127 68.2668 27.1062 68.7866 27.0309C68.9374 27.0084 69.0882 26.9859 69.2436 26.9627C69.4071 26.9397 69.5707 26.9168 69.7392 26.8931C69.9073 26.8686 70.0755 26.8441 70.2487 26.8188C70.6051 26.7672 70.9617 26.7161 71.3184 26.6657C71.8622 26.5887 72.4056 26.5094 72.9491 26.4298C73.2955 26.3798 73.642 26.33 73.9884 26.2804C74.1504 26.2568 74.3123 26.2332 74.4792 26.2088C75.2951 26.0945 76.0759 26.0187 76.8998 26.0456C76.9355 25.9217 76.9712 25.7979 77.008 25.6703C77.2974 24.8707 77.6781 24.128 78.0613 23.3697C78.1429 23.2069 78.2245 23.0442 78.3085 22.8765C78.5683 22.3588 78.829 21.8415 79.0897 21.3242C79.2664 20.9724 79.443 20.6206 79.6196 20.2688C80.0517 19.4081 80.4845 18.5478 80.918 17.6877Z" fill="#006837"/>
</svg>
