<svg width="166" height="150" viewBox="0 0 166 150" fill="none" xmlns="http://www.w3.org/2000/svg">
<path d="M78.7554 11.5955C78.9983 11.69 79.2413 11.7842 79.4845 11.8779C79.875 12.0285 80.2648 12.1813 80.6531 12.3375C83.1446 13.2334 85.3703 12.4828 87.7214 11.5955C88.002 11.4918 88.2827 11.3881 88.5634 11.2846C89.0669 11.098 89.5693 10.9089 90.0708 10.7171C91.5102 10.1709 93.1862 10.0048 94.6739 10.4955C96.7019 11.6187 97.8557 13.8763 99.0132 15.7976C100.918 18.8796 103.242 19.7018 106.605 20.5711C110.331 21.5419 110.331 21.5419 111.486 22.9059C111.583 23.0166 111.681 23.1272 111.782 23.2412C112.575 24.4809 112.68 25.5841 112.641 27.0158C112.638 27.2803 112.638 27.2803 112.635 27.5502C112.626 28.2984 112.61 29.0464 112.595 29.7945C112.585 30.3435 112.579 30.8925 112.572 31.4416C112.568 31.6077 112.563 31.7738 112.558 31.9449C112.541 33.4592 112.817 34.9055 113.762 36.1262C113.889 36.2927 114.016 36.4592 114.147 36.6308C114.506 37.0787 114.875 37.5169 115.246 37.9545C118.552 41.8634 118.552 41.8634 118.511 44.396C118.307 46.4775 116.828 48.1008 115.51 49.6173C113.677 51.7279 112.529 53.6259 112.59 56.464C112.594 56.8276 112.598 57.1912 112.601 57.5547C112.609 58.1225 112.618 58.6901 112.628 59.2578C112.637 59.8094 112.642 60.361 112.647 60.9127C112.653 61.1641 112.653 61.1641 112.659 61.4205C112.67 62.7925 112.43 63.9236 111.657 65.0712C110.569 66.1353 109.38 66.6488 107.929 67.0496C107.769 67.096 107.61 67.1423 107.445 67.1901C106.714 67.4005 105.981 67.5997 105.242 67.7808C101.805 68.6295 100.198 70.2312 98.4143 73.1794C98.3195 73.3416 98.2247 73.5038 98.127 73.6709C97.117 75.375 95.9774 76.9097 94.1143 77.7082C91.7112 78.1277 89.6951 77.2382 87.4911 76.3811C86.9674 76.1786 86.4425 75.9799 85.9159 75.7847C85.7577 75.7258 85.5995 75.6669 85.4364 75.6063C82.9091 74.7759 80.6769 75.6593 78.3044 76.5674C73.6752 78.3326 73.6752 78.3326 71.6271 77.4894C69.8141 76.498 68.7926 74.6704 67.7302 72.9664C65.6716 69.6689 63.7732 68.4541 60.0687 67.4842C55.3812 66.2514 55.3812 66.2514 54.3849 64.5909C53.7187 63.3944 53.6422 62.3245 53.6709 60.9856C53.6746 60.6223 53.6783 60.2589 53.682 59.8956C53.6899 59.3275 53.6987 58.7594 53.7086 58.1913C53.7175 57.6399 53.723 57.0884 53.7281 56.5369C53.732 56.3697 53.736 56.2025 53.7401 56.0302C53.7519 54.4813 53.4614 53.0409 52.498 51.7938C52.3699 51.6265 52.2418 51.4593 52.1098 51.287C51.6347 50.7042 51.1472 50.1335 50.6567 49.5637C49.2245 47.8993 47.6676 46.0025 47.7705 43.6912C48.087 41.4242 49.5484 39.8067 50.9895 38.1343C52.7431 36.0983 53.7625 34.4224 53.7038 31.6846C53.7 31.3211 53.6963 30.9575 53.6927 30.5939C53.6847 30.0262 53.6759 29.4585 53.666 28.8908C53.6571 28.3392 53.6517 27.7876 53.6466 27.236C53.6426 27.0684 53.6386 26.9008 53.6345 26.7281C53.6223 25.1274 53.9597 23.7368 55.1019 22.571C56.571 21.2877 58.5421 20.8278 60.3889 20.3671C63.3815 19.6544 63.3815 19.6544 65.7639 17.8168C65.8503 17.7173 65.9366 17.6178 66.0255 17.5152C66.9413 16.4066 67.6816 15.1844 68.4283 13.9588C71.1477 9.54671 74.3362 9.82804 78.7554 11.5955ZM68.0176 29.6404C64.2362 33.6165 62.1903 38.993 62.2602 44.4746C62.533 50.5621 65.077 55.561 69.4578 59.7305C73.4819 63.3012 78.8544 65.1229 84.2175 64.8695C90.0274 64.4696 95.2134 61.8874 99.0661 57.5233C102.6 53.2003 104.407 47.7636 103.925 42.1696C103.334 36.5624 100.72 31.6478 96.493 27.9429C87.7386 20.9697 75.8971 21.9559 68.0176 29.6404Z" fill="#006837"/>
<path d="M104.372 69.5999C106.179 73.5305 107.959 77.4724 109.711 81.4281C110.276 82.7021 110.846 83.9735 111.417 85.2447C111.757 86.0039 112.097 86.7633 112.438 87.5227C112.556 87.7876 112.675 88.0525 112.794 88.3173C113.203 89.2278 113.61 90.1385 114.017 91.0497C114.151 91.3486 114.285 91.6475 114.419 91.9463C114.605 92.3622 114.791 92.7785 114.977 93.1949C115.033 93.3203 115.09 93.4456 115.148 93.5748C115.534 94.4434 115.534 94.4433 115.534 94.851C113.811 94.7615 112.167 94.5014 110.478 94.1599C109.841 94.0388 109.202 93.9219 108.564 93.8046C107.904 93.6823 107.245 93.5549 106.587 93.4167C103.853 92.7126 103.853 92.7126 101.183 93.0381C100.461 93.5913 100.018 94.2801 99.6032 95.0798C99.3852 95.4862 99.1096 95.8047 98.7946 96.1398C97.9773 97.0887 97.1664 98.0406 96.378 99.0138C95.73 99.8124 95.0521 100.576 94.358 101.335C93.7611 102.009 93.206 102.714 92.6512 103.423C92.2952 103.817 92.2952 103.817 91.7463 104C90.5306 98.6093 89.3789 93.2052 88.231 87.7997C87.9871 86.6511 87.7428 85.5026 87.4985 84.3541C87.0233 82.1198 86.5485 79.8854 86.074 77.651C86.7274 77.4332 86.8632 77.5144 87.4849 77.764C87.6524 77.8298 87.8198 77.8956 87.9924 77.9634C88.1669 78.0339 88.3415 78.1044 88.5213 78.1771C88.8656 78.3145 89.2101 78.4513 89.5548 78.5874C89.7075 78.6489 89.8602 78.7104 90.0176 78.7738C91.4967 79.2958 93.2881 79.4178 94.7669 78.8826C95.2998 78.6135 95.8104 78.3263 96.3208 78.017C96.454 77.9599 96.5873 77.9028 96.7246 77.844C97.1454 77.5965 97.2196 77.3591 97.4187 76.9191C97.6234 76.6635 97.8338 76.4124 98.0476 76.1643C98.866 75.1638 99.5197 74.0841 100.173 72.9707C100.817 71.8834 101.447 70.8387 102.565 70.1832C102.686 70.1103 102.807 70.0374 102.932 69.9623C103.435 69.6985 103.802 69.5999 104.372 69.5999Z" fill="#006837"/>
<path d="M61.9212 69.5999C63.5755 69.9063 64.59 70.7397 65.5549 72.088C65.9059 72.6232 66.2484 73.1626 66.5871 73.7055C67.3249 74.8837 68.0505 75.9913 69.0084 77.0035C69.2403 77.2851 69.2403 77.2851 69.2403 77.651C69.3411 77.6996 69.4418 77.7482 69.5455 77.7983C69.8455 77.952 70.1393 78.1182 70.4276 78.2929C72.3492 79.3932 74.1168 79.3717 76.2278 78.8061C77.2585 78.4805 78.2452 78.0773 79.2263 77.6246C79.6701 77.468 79.6701 77.468 80.2191 77.651C79.5067 80.9785 78.7941 84.3059 78.0814 87.6332C77.7505 89.1782 77.4196 90.7231 77.0888 92.2681C76.8006 93.6145 76.5122 94.961 76.2237 96.3074C76.071 97.0204 75.9183 97.7335 75.7657 98.4465C75.622 99.1176 75.4783 99.7886 75.3345 100.46C75.2817 100.706 75.229 100.952 75.1763 101.199C75.1043 101.535 75.0322 101.871 74.9601 102.208C74.9198 102.396 74.8795 102.584 74.838 102.778C74.7475 103.187 74.6512 103.594 74.5467 104C74.0064 103.76 73.6634 103.518 73.2809 103.069C73.1844 102.956 73.0878 102.844 72.9884 102.728C72.8875 102.608 72.7866 102.488 72.6826 102.365C72.5772 102.241 72.4719 102.118 72.3633 101.991C71.621 101.118 70.8959 100.232 70.1752 99.3419C69.7838 98.87 69.3786 98.415 68.9659 97.9617C68.3988 97.3385 67.8522 96.7044 67.3191 96.0518C67.1834 95.8867 67.0478 95.7216 66.9081 95.5515C66.623 95.1938 66.3466 94.8292 66.0775 94.4594C65.8712 94.1834 65.8712 94.1834 65.6608 93.9018C65.5398 93.7332 65.4188 93.5646 65.2941 93.3908C64.6739 92.8761 64.1529 92.9602 63.385 93.0213C62.6301 93.1174 61.8796 93.2355 61.1289 93.3601C60.752 93.4227 60.3749 93.4838 59.9978 93.5446C59.3333 93.6519 58.6689 93.7605 58.0047 93.8695C56.9405 94.0441 55.8762 94.2177 54.8116 94.3896C54.4415 94.4497 54.0716 94.5108 53.7017 94.5721C53.4758 94.6087 53.2498 94.6453 53.0169 94.6831C52.819 94.7156 52.6211 94.7481 52.4171 94.7816C51.8583 94.8509 51.3219 94.8634 50.7595 94.851C51.1894 93.4142 51.8026 92.0772 52.4332 90.7206C52.7653 90.0058 53.0942 89.2895 53.4234 88.5733C53.4914 88.4255 53.5594 88.2776 53.6295 88.1253C54.3166 86.6292 54.9873 85.126 55.6541 83.6207C55.7125 83.489 55.7709 83.3573 55.8311 83.2217C56.1393 82.5264 56.4472 81.831 56.7551 81.1356C57.4571 79.5497 58.161 77.9647 58.865 76.3797C59.1016 75.8468 59.338 75.3137 59.5744 74.7806C60.3436 73.0475 61.1184 71.3178 61.9212 69.5999Z" fill="#006837"/>
<path d="M82.9639 28.0637C83.0847 28.0637 83.2055 28.0637 83.3299 28.0637C83.9272 29.2498 84.5237 30.4363 85.1192 31.6233C85.3957 32.1745 85.6725 32.7255 85.9499 33.2762C86.2685 33.9089 86.5862 34.5422 86.9037 35.1755C87.0038 35.3738 87.1038 35.572 87.2069 35.7762C87.3443 36.051 87.3443 36.051 87.4844 36.3312C87.5657 36.4929 87.647 36.6547 87.7307 36.8213C87.9044 37.2126 87.9044 37.2126 87.9044 37.5786C88.0442 37.5855 88.184 37.5925 88.328 37.5997C90.1825 37.7107 92.0075 37.9537 93.8445 38.2243C94.3609 38.3 94.8776 38.373 95.3944 38.4459C95.7234 38.4938 96.0524 38.5418 96.3814 38.59C96.5356 38.6115 96.6898 38.6331 96.8486 38.6553C97.9263 38.8175 97.9263 38.8175 98.3342 39.2254C97.4101 40.1541 96.4853 41.0821 95.56 42.0096C95.2453 42.3252 94.9308 42.6409 94.6165 42.9568C94.1646 43.411 93.712 43.8646 93.2594 44.3181C93.119 44.4593 92.9787 44.6006 92.8342 44.7461C92.7023 44.8779 92.5705 45.0098 92.4347 45.1456C92.3193 45.2614 92.2039 45.3772 92.085 45.4965C91.7454 45.8141 91.392 46.0899 91.015 46.3616C91.2691 48.6284 91.6406 50.8645 92.0443 53.1089C92.1334 53.6075 92.2224 54.1061 92.311 54.6048C92.3656 54.912 92.4206 55.2191 92.4759 55.5261C92.6618 56.5677 92.6618 56.5677 92.6618 56.9743C91.8582 56.727 91.1377 56.4121 90.3924 56.0237C90.2835 55.9672 90.1746 55.9106 90.0624 55.8524C89.8313 55.7323 89.6004 55.6118 89.3696 55.491C89.0111 55.3033 88.6518 55.1169 88.2924 54.9308C87.3005 54.4161 86.3105 53.8995 85.3369 53.3505C85.2122 53.2807 85.0874 53.2109 84.9588 53.139C84.649 52.9639 84.3413 52.785 84.0339 52.6057C83.3855 52.3496 83.0895 52.4232 82.415 52.5829C82.0221 52.7551 81.636 52.9434 81.2564 53.1432C81.0944 53.2277 81.0944 53.2277 80.9293 53.3138C80.5813 53.4957 80.2345 53.6797 79.8876 53.8637C79.6487 53.9888 79.4098 54.1138 79.1708 54.2386C78.137 54.7795 77.1068 55.3267 76.0808 55.8822C75.9364 55.96 75.792 56.0379 75.6432 56.1181C75.3836 56.2586 75.1248 56.4005 74.8669 56.5441C74.5829 56.6984 74.2911 56.8383 73.998 56.9743C73.8772 56.914 73.7564 56.8536 73.632 56.7914C73.653 56.6719 73.6741 56.5524 73.6958 56.4294C73.9144 55.186 74.1307 53.9422 74.3456 52.6982C74.4262 52.234 74.5073 51.7699 74.589 51.3059C74.7064 50.6389 74.8216 49.9716 74.9364 49.3042C74.9734 49.0968 75.0104 48.8894 75.0485 48.6757C75.0814 48.4816 75.1144 48.2876 75.1484 48.0876C75.1781 47.9173 75.2077 47.7471 75.2383 47.5717C75.2817 47.0595 75.2373 46.6718 75.0958 46.1786C74.7736 45.8073 74.7736 45.8073 74.3425 45.4703C73.5019 44.7481 72.7087 43.9952 71.9266 43.2102C71.8104 43.0938 71.6943 42.9775 71.5746 42.8576C71.2155 42.4973 70.857 42.1365 70.4985 41.7757C70.2512 41.5275 70.0039 41.2793 69.7566 41.0312C69.1571 40.4298 68.5582 39.8277 67.9596 39.2254C68.3915 38.7935 68.5613 38.7861 69.1531 38.7003C69.3248 38.6747 69.4964 38.6491 69.6733 38.6227C69.8595 38.5965 70.0457 38.5704 70.2376 38.5435C70.429 38.5156 70.6204 38.4877 70.8176 38.4589C71.2234 38.4001 71.6293 38.342 72.0354 38.2846C72.6545 38.1969 73.2731 38.1067 73.8918 38.016C74.2862 37.9591 74.6807 37.9024 75.0751 37.8459C75.2595 37.819 75.4438 37.7922 75.6338 37.7645C76.5626 37.6343 77.4516 37.548 78.3895 37.5786C78.4301 37.4376 78.4708 37.2966 78.5127 37.1514C78.8422 36.241 79.2755 35.3956 79.7118 34.5323C79.8047 34.347 79.8976 34.1617 79.9933 33.9708C80.289 33.3814 80.5858 32.7925 80.8825 32.2036C81.0837 31.8031 81.2848 31.4026 81.4858 31.002C81.9777 30.0222 82.4705 29.0428 82.9639 28.0637Z" fill="#006837"/>
<path d="M8.99402 55.1061C8.50065 55.1252 8.38562 55.222 8.04085 55.6088C6.26945 57.6203 4.89688 59.7033 4.75916 62.5233C4.8195 63.5665 5.2888 64.459 5.95551 65.1759C6.08554 65.2012 6.21556 65.2265 6.34953 65.2526C6.3347 65.3549 6.31987 65.4572 6.3046 65.5625C6.10182 67.0691 6.02602 68.5728 5.9529 70.0876C5.83857 69.988 5.72425 69.8884 5.60645 69.7858C2.95975 67.5148 2.95975 67.5148 1.87138 67.3858C1.55994 67.4455 1.55994 67.4455 1.21345 67.8246C0.676495 69.89 0.905137 72.875 1.79191 74.723C2.44132 75.8591 3.21173 76.6406 4.43246 76.9736C4.86741 77.0549 5.23485 77.0299 5.67462 76.9528C5.78693 76.9336 5.89925 76.9143 6.01497 76.8945C6.09969 76.8792 6.18442 76.8639 6.27172 76.8482C6.28733 76.9572 6.30296 77.0662 6.31904 77.1786C6.71004 79.8791 7.19187 82.5294 7.78382 85.1809C7.709 85.1347 7.63418 85.0884 7.5571 85.0407C6.62809 84.5071 5.71216 84.266 4.67034 84.0778C4.40486 84.0296 4.1403 83.9776 3.87566 83.925C1.13685 83.4082 1.13685 83.4082 0.360544 83.8687C0.0823112 84.1271 0.0823112 84.1271 0 84.5332C0.0546871 85.1036 0.215899 85.5661 0.435529 86.0752C0.476846 86.1734 0.518164 86.2716 0.560733 86.3727C0.999235 87.3893 1.51385 88.3423 2.07773 89.2792C2.15495 89.4079 2.23216 89.5365 2.31172 89.669C3.40729 91.3668 4.90355 92.2885 6.7871 92.626C7.9415 92.7389 8.87543 92.267 9.81841 91.5315C9.82855 91.6319 9.83868 91.7323 9.84913 91.8358C9.97258 92.4566 10.1977 93.0015 10.4338 93.5772C10.4826 93.6977 10.5315 93.8182 10.5818 93.9424C10.9829 94.9217 11.4151 95.8807 11.8627 96.8344C12.1404 97.4288 12.4025 98.0297 12.6606 98.6348C12.5897 98.5972 12.5189 98.5596 12.4459 98.5209C10.1584 97.4541 6.70906 98.1684 4.37428 98.9347C4.12642 99.0562 4.12642 99.0562 3.77993 99.4353C3.67122 100.016 3.70966 100.26 3.98692 100.762C4.10071 100.916 4.21716 101.068 4.33574 101.218C4.39833 101.3 4.46091 101.382 4.5254 101.466C6.47449 103.969 8.67014 106.119 11.8086 106.507C12.9114 106.52 13.9928 106.205 14.8682 105.423C15.5726 104.68 15.5726 104.68 15.6788 104.135C16.2745 104.838 16.8088 105.573 17.3173 106.352C18.3236 107.885 19.4633 109.287 20.6867 110.618C20.4425 110.612 20.4425 110.612 20.1934 110.605C17.5991 110.577 15.2124 111.193 12.8129 112.339C12.5733 112.451 12.3302 112.554 12.0869 112.656C11.124 113.075 11.124 113.075 10.7652 113.7C10.7124 114.291 10.8125 114.411 11.1355 114.861C11.3983 115.129 11.3983 115.129 11.6953 115.387C11.8053 115.483 11.9152 115.578 12.0285 115.677C12.1455 115.776 12.2626 115.876 12.3832 115.978C12.5641 116.132 12.5641 116.132 12.7486 116.29C15.0914 118.259 17.8551 119.99 20.9864 119.664C22.4109 119.396 23.7223 118.715 24.6871 117.49C25.0806 116.862 25.186 116.272 25.3173 115.54C25.4008 115.614 25.4843 115.689 25.5704 115.766C25.8881 116.05 26.2062 116.333 26.5245 116.616C26.7269 116.796 26.9289 116.977 27.1308 117.157C28.0225 117.949 28.934 118.692 29.8807 119.406C29.7187 119.429 29.5566 119.453 29.3896 119.477C26.7547 119.902 24.287 120.609 21.7993 121.701C21.6676 121.759 21.5358 121.816 21.4001 121.875C20.8985 122.116 20.64 122.264 20.323 122.763C20.2652 123.368 20.4686 123.567 20.799 124.037C21.0614 124.325 21.3422 124.584 21.6307 124.841C21.7522 124.95 21.7522 124.95 21.8761 125.062C24.6102 127.496 27.9369 130.054 31.7349 129.596C33.3921 129.285 34.7848 128.697 35.8658 127.214C36.5346 126.12 36.6204 125.084 36.5177 123.825C36.6343 123.889 36.6343 123.889 36.7533 123.954C38.2301 124.764 39.7132 125.544 41.2474 126.225C41.3712 126.281 41.495 126.336 41.6225 126.394C42.2558 126.67 42.8502 126.905 43.5374 126.978C43.8473 126.788 43.8473 126.788 44.0432 126.482C44.1058 125.992 44.0942 125.809 43.8448 125.401C43.5423 125.24 43.5423 125.24 43.1525 125.073C43.0085 125.01 42.8646 124.947 42.7163 124.883C42.5614 124.816 42.4066 124.749 42.247 124.68C40.6678 123.987 39.134 123.225 37.6131 122.401C37.7108 122.347 37.8086 122.294 37.9093 122.238C39.4171 121.34 40.4302 120.04 40.979 118.271C41.0144 118.138 41.0499 118.005 41.0864 117.867C41.1201 117.743 41.1538 117.619 41.1885 117.491C42.1195 113.47 40.6341 109.031 38.9741 105.563C38.9292 105.469 38.8844 105.375 38.8382 105.279C38.6443 104.995 38.4902 104.903 38.1797 104.797C37.4043 104.95 37.0374 105.535 36.5731 106.177C36.4933 106.286 36.4136 106.395 36.3314 106.507C33.8288 109.991 31.8196 113.936 32.2616 118.381C32.2692 118.581 32.276 118.78 32.2811 118.98C30.7747 117.848 29.2925 116.69 27.8553 115.457C27.7349 115.354 27.6145 115.251 27.4904 115.145C26.8348 114.578 26.2093 113.993 25.605 113.363C25.6884 113.321 25.7718 113.28 25.8577 113.237C27.377 112.47 28.315 111.436 29.0087 109.756C29.0473 109.6 29.086 109.445 29.1259 109.285C29.173 109.101 29.2201 108.917 29.2687 108.727C29.8902 105.219 28.7587 101.826 27.3885 98.7636C27.2811 98.5231 27.1779 98.2803 27.0751 98.0374C26.8871 97.685 26.8871 97.685 26.4682 97.4732C25.7983 97.517 25.6482 97.7912 25.1971 98.3086C24.7739 98.835 24.4071 99.3915 24.0478 99.9694C23.9718 100.091 23.8958 100.212 23.8175 100.337C22.2727 102.832 21.2209 105.304 21.0024 108.298C19.4085 106.327 17.928 104.299 16.6233 102.086C16.7717 102.017 16.9202 101.948 17.0732 101.876C18.6257 101.122 19.6152 100.202 20.323 98.4902C21.1628 95.5376 20.9734 92.7333 20.236 89.8396C20.2088 89.7216 20.1815 89.6035 20.1534 89.4819C20.062 89.1449 19.9716 88.8619 19.8028 88.5644C19.3715 88.3484 19.3715 88.3484 18.8835 88.3853C18.533 88.6248 18.2898 88.8281 17.9964 89.1335C17.9172 89.2123 17.8379 89.291 17.7563 89.3722C17.0052 90.1293 16.3032 90.9291 15.6336 91.7713C15.5363 91.8905 15.4389 92.0097 15.3386 92.1324C14.4521 93.2818 13.8998 94.592 13.3228 95.9356C12.3777 93.9655 11.3884 91.8133 10.8663 89.6517C10.9796 89.6545 10.9796 89.6545 11.0952 89.6573C12.3425 89.6498 13.46 89.1843 14.4095 88.258C15.5161 86.8685 16.1019 85.4398 16.4355 83.6753C16.4614 83.5399 16.4873 83.4045 16.514 83.265C16.6821 82.3335 16.7894 81.4131 16.8385 80.4697C16.8446 80.3563 16.8507 80.2428 16.8569 80.1259C16.8799 79.4594 16.8143 78.9064 16.628 78.2703C15.9929 78.0821 15.6128 78.0647 15.009 78.4084C14.9286 78.458 14.8483 78.5076 14.7655 78.5587C14.6795 78.6095 14.5936 78.6602 14.505 78.7125C14.2423 78.8694 13.982 79.0306 13.7218 79.1927C13.5722 79.2831 13.4226 79.3735 13.2685 79.4666C11.5232 80.5701 10.3294 81.877 9.16981 83.6647C8.66782 81.2119 8.20956 78.7643 7.88409 76.2692C8.01512 76.2987 8.01512 76.2987 8.14879 76.3289C8.32294 76.366 8.32294 76.366 8.5006 76.4038C8.67226 76.4413 8.67227 76.4413 8.84739 76.4795C9.90047 76.6164 10.997 76.0411 11.8689 75.4081C13.3391 74.0846 14.7534 71.9806 15.2472 69.9631C15.1571 69.5944 15.1571 69.5944 14.9649 69.3127C13.6761 68.5826 11.398 69.1853 10.042 69.6096C9.13561 69.9239 8.36458 70.2704 7.6799 71.0194C7.62357 69.9621 7.67432 68.918 7.73357 67.8574C7.74264 67.6837 7.7517 67.51 7.76104 67.331C7.80203 66.4411 7.80203 66.4411 7.9256 65.5597C8.22428 65.4163 8.52441 65.2767 8.8254 65.1395C9.79572 64.4218 10.2917 63.3866 10.5681 62.1856C10.8592 60.4253 10.751 55.8676 8.99402 55.1061Z" fill="#006837"/>
<path d="M156.553 55.1061C157.046 55.1252 157.161 55.222 157.506 55.6088C159.278 57.6203 160.65 59.7033 160.788 62.5233C160.727 63.5665 160.258 64.459 159.591 65.1759C159.461 65.2012 159.331 65.2265 159.197 65.2526C159.212 65.3549 159.227 65.4572 159.242 65.5625C159.445 67.0691 159.521 68.5728 159.594 70.0876C159.708 69.988 159.823 69.8884 159.941 69.7858C162.587 67.5148 162.587 67.5148 163.676 67.3858C163.987 67.4455 163.987 67.4455 164.334 67.8246C164.87 69.89 164.642 72.875 163.755 74.723C163.106 75.8591 162.335 76.6406 161.115 76.9736C160.68 77.0549 160.312 77.0299 159.872 76.9528C159.76 76.9336 159.648 76.9143 159.532 76.8945C159.447 76.8792 159.363 76.8639 159.275 76.8482C159.26 76.9572 159.244 77.0662 159.228 77.1786C158.837 79.8791 158.355 82.5294 157.763 85.1809C157.838 85.1347 157.913 85.0884 157.99 85.0407C158.919 84.5071 159.835 84.266 160.877 84.0778C161.142 84.0296 161.407 83.9776 161.671 83.925C164.41 83.4082 164.41 83.4082 165.186 83.8687C165.465 84.1271 165.465 84.1271 165.547 84.5332C165.492 85.1036 165.331 85.5661 165.111 86.0752C165.07 86.1734 165.029 86.2716 164.986 86.3727C164.548 87.3893 164.033 88.3423 163.469 89.2792C163.392 89.4079 163.315 89.5365 163.235 89.669C162.14 91.3668 160.643 92.2885 158.76 92.626C157.605 92.7389 156.672 92.267 155.729 91.5315C155.718 91.6319 155.708 91.7323 155.698 91.8358C155.574 92.4566 155.349 93.0015 155.113 93.5772C155.064 93.6977 155.015 93.8182 154.965 93.9424C154.564 94.9217 154.132 95.8807 153.684 96.8344C153.407 97.4288 153.144 98.0297 152.886 98.6348C152.957 98.5972 153.028 98.5596 153.101 98.5209C155.389 97.4541 158.838 98.1684 161.173 98.9347C161.421 99.0562 161.421 99.0562 161.767 99.4353C161.876 100.016 161.837 100.26 161.56 100.762C161.446 100.916 161.33 101.068 161.211 101.218C161.149 101.3 161.086 101.382 161.022 101.466C159.073 103.969 156.877 106.119 153.738 106.507C152.636 106.52 151.554 106.205 150.679 105.423C149.974 104.68 149.974 104.68 149.868 104.135C149.273 104.838 148.738 105.573 148.23 106.352C147.223 107.885 146.084 109.287 144.86 110.618C145.104 110.612 145.104 110.612 145.354 110.605C147.948 110.577 150.335 111.193 152.734 112.339C152.974 112.451 153.217 112.554 153.46 112.656C154.423 113.075 154.423 113.075 154.782 113.7C154.835 114.291 154.735 114.411 154.412 114.861C154.149 115.129 154.149 115.129 153.852 115.387C153.742 115.483 153.632 115.578 153.519 115.677C153.401 115.776 153.284 115.876 153.164 115.978C152.983 116.132 152.983 116.132 152.798 116.29C150.456 118.259 147.692 119.99 144.561 119.664C143.136 119.396 141.825 118.715 140.86 117.49C140.466 116.862 140.361 116.272 140.23 115.54C140.146 115.614 140.063 115.689 139.977 115.766C139.659 116.05 139.341 116.333 139.022 116.616C138.82 116.796 138.618 116.977 138.416 117.157C137.525 117.949 136.613 118.692 135.666 119.406C135.828 119.429 135.99 119.453 136.157 119.477C138.792 119.902 141.26 120.609 143.748 121.701C143.879 121.759 144.011 121.816 144.147 121.875C144.649 122.116 144.907 122.264 145.224 122.763C145.282 123.368 145.078 123.567 144.748 124.037C144.486 124.325 144.205 124.584 143.916 124.841C143.795 124.95 143.795 124.95 143.671 125.062C140.937 127.496 137.61 130.054 133.812 129.596C132.155 129.285 130.762 128.697 129.681 127.214C129.012 126.12 128.927 125.084 129.029 123.825C128.913 123.889 128.913 123.889 128.794 123.954C127.317 124.764 125.834 125.544 124.3 126.225C124.176 126.281 124.052 126.336 123.924 126.394C123.291 126.67 122.697 126.905 122.01 126.978C121.7 126.788 121.7 126.788 121.504 126.482C121.441 125.992 121.453 125.809 121.702 125.401C122.005 125.24 122.005 125.24 122.395 125.073C122.538 125.01 122.682 124.947 122.831 124.883C122.986 124.816 123.14 124.749 123.3 124.68C124.879 123.987 126.413 123.225 127.934 122.401C127.836 122.347 127.738 122.294 127.638 122.238C126.13 121.34 125.117 120.04 124.568 118.271C124.533 118.138 124.497 118.005 124.461 117.867C124.427 117.743 124.393 117.619 124.358 117.491C123.428 113.47 124.913 109.031 126.573 105.563C126.618 105.469 126.663 105.375 126.709 105.279C126.903 104.995 127.057 104.903 127.367 104.797C128.143 104.95 128.51 105.535 128.974 106.177C129.054 106.286 129.133 106.395 129.216 106.507C131.718 109.991 133.727 113.936 133.285 118.381C133.278 118.581 133.271 118.78 133.266 118.98C134.772 117.848 136.255 116.69 137.692 115.457C137.812 115.354 137.933 115.251 138.057 115.145C138.712 114.578 139.338 113.993 139.942 113.363C139.859 113.321 139.775 113.28 139.689 113.237C138.17 112.47 137.232 111.436 136.538 109.756C136.5 109.6 136.461 109.445 136.421 109.285C136.374 109.101 136.327 108.917 136.278 108.727C135.657 105.219 136.788 101.826 138.159 98.7636C138.266 98.5231 138.369 98.2803 138.472 98.0374C138.66 97.685 138.66 97.685 139.079 97.4732C139.749 97.517 139.899 97.7912 140.35 98.3086C140.773 98.835 141.14 99.3915 141.499 99.9694C141.575 100.091 141.651 100.212 141.729 100.337C143.274 102.832 144.326 105.304 144.545 108.298C146.138 106.327 147.619 104.299 148.924 102.086C148.775 102.017 148.627 101.948 148.474 101.876C146.921 101.122 145.932 100.202 145.224 98.4902C144.384 95.5376 144.574 92.7333 145.311 89.8396C145.338 89.7216 145.365 89.6035 145.394 89.4819C145.485 89.1449 145.575 88.8619 145.744 88.5644C146.175 88.3484 146.175 88.3484 146.664 88.3853C147.014 88.6248 147.257 88.8281 147.551 89.1335C147.63 89.2123 147.709 89.291 147.791 89.3722C148.542 90.1293 149.244 90.9291 149.913 91.7713C150.011 91.8905 150.108 92.0097 150.208 92.1324C151.095 93.2818 151.647 94.592 152.224 95.9356C153.169 93.9655 154.159 91.8133 154.681 89.6517C154.567 89.6545 154.567 89.6545 154.452 89.6573C153.205 89.6498 152.087 89.1843 151.137 88.258C150.031 86.8685 149.445 85.4398 149.111 83.6753C149.086 83.5399 149.06 83.4045 149.033 83.265C148.865 82.3335 148.758 81.4131 148.708 80.4697C148.702 80.3563 148.696 80.2428 148.69 80.1259C148.667 79.4594 148.733 78.9064 148.919 78.2703C149.554 78.0821 149.934 78.0647 150.538 78.4084C150.618 78.458 150.699 78.5076 150.782 78.5587C150.867 78.6095 150.953 78.6602 151.042 78.7125C151.305 78.8694 151.565 79.0306 151.825 79.1927C151.975 79.2831 152.124 79.3735 152.279 79.4666C154.024 80.5701 155.218 81.877 156.377 83.6647C156.879 81.2119 157.337 78.7643 157.663 76.2692C157.532 76.2987 157.532 76.2987 157.398 76.3289C157.224 76.366 157.224 76.366 157.046 76.4038C156.875 76.4413 156.875 76.4413 156.7 76.4795C155.647 76.6164 154.55 76.0411 153.678 75.4081C152.208 74.0846 150.794 71.9806 150.3 69.9631C150.39 69.5944 150.39 69.5944 150.582 69.3127C151.871 68.5826 154.149 69.1853 155.505 69.6096C156.411 69.9239 157.182 70.2704 157.867 71.0194C157.923 69.9621 157.873 68.918 157.813 67.8574C157.804 67.6837 157.795 67.51 157.786 67.331C157.745 66.4411 157.745 66.4411 157.621 65.5597C157.323 65.4163 157.023 65.2767 156.722 65.1395C155.751 64.4218 155.255 63.3866 154.979 62.1856C154.688 60.4253 154.796 55.8676 156.553 55.1061Z" fill="#006837"/>
<path d="M84.3107 145.003L77.2097 149.306L79.0925 141.237L72.8522 135.804L81.0829 135.104L84.3107 127.519L87.5384 135.104L95.7691 135.804L89.5288 141.237L91.4117 149.306L84.3107 145.003Z" fill="#006837"/>
<path d="M64.0201 138.239L56.9191 142.543L58.8019 134.473L52.5616 129.04L60.7923 128.341L64.0201 120.756L67.2478 128.341L75.4785 129.04L69.2382 134.473L71.1211 142.543L64.0201 138.239Z" fill="#006837"/>
<path d="M104.601 138.239L97.4998 142.543L99.3826 134.473L93.1424 129.04L101.373 128.341L104.601 120.756L107.829 128.341L116.059 129.04L109.819 134.473L111.702 142.543L104.601 138.239Z" fill="#006837"/>
</svg>
