<svg width="71" height="23" viewBox="0 0 71 23" fill="none" xmlns="http://www.w3.org/2000/svg">
<path d="M54.832 0C55.5729 0.00149375 56.3474 0.0306198 57.1554 0.0858851C59.5266 0.175504 63.9971 0.817775 70.5647 2.01643C67.139 1.81628 64.2697 1.71471 61.956 1.71471C60.204 1.71471 58.7701 1.77222 57.6558 1.88872C54.7484 2.09933 52.1868 2.72218 49.9717 3.75654C46.6894 5.10605 43.4833 8.91487 40.3533 15.1837H40.3556L40.434 16.6042C40.4594 16.9828 40.5042 17.3503 40.5677 17.7058C40.7775 18.5564 40.9433 19.0381 41.065 19.1509C41.2271 19.4362 41.4198 19.6976 41.6423 19.9388C41.7252 20.0799 42.1121 20.4033 42.8037 20.9082C43.7006 21.4645 44.6797 21.9634 45.7402 22.4033C44.6745 22.4451 43.6872 22.4645 42.779 22.4645C39.2129 22.4645 36.8597 22.1471 35.7193 21.5086L35.2047 21.2196C34.8858 21.009 34.608 20.7745 34.372 20.5161C33.906 19.9903 33.5706 19.4108 33.366 18.7782C33.3093 18.6371 33.2577 18.4705 33.2114 18.2793H33.2137C30.534 16.8589 26.6722 15.3615 21.6274 13.7902C17.7372 12.6736 14.7066 12.0008 12.537 11.7692C9.94926 11.3622 5.77002 11.1479 3.8147e-05 11.121L2.74239 10.1076C5.52581 9.15012 7.83649 8.60344 9.67518 8.46901C10.3817 8.39657 11.1143 8.35848 11.8723 8.35848C13.0867 8.35848 14.3675 8.45408 15.714 8.64153C19.5774 9.25916 23.1457 10.127 26.419 11.2457C29.3757 12.23 31.6035 13.0866 33.1001 13.8133C33.1196 13.5781 33.1405 13.3316 33.1644 13.0695C33.1815 12.6408 33.1457 12.23 33.0583 11.832C32.8395 10.9395 32.304 9.89919 31.4519 8.71397H31.4541L33.9799 9.84392C34.301 9.69456 34.6842 9.62062 35.1278 9.62062C35.6095 9.62062 36.1644 9.708 36.7902 9.88425C37.2174 10.012 37.6005 10.1553 37.9403 10.3159C41.776 4.94026 45.3272 1.81031 48.5946 0.925318C50.3093 0.309186 52.3884 0 54.832 0Z" fill="#00390D" fill-opacity="0.4"/>
</svg>
