<svg width="33" height="11" viewBox="0 0 33 11" fill="none" xmlns="http://www.w3.org/2000/svg">
<path d="M28.1953 0C28.1408 0 28.0871 8.17982e-08 28.0359 0.00127858C27.9912 0.00127858 27.9456 0 27.9008 0C26.8106 0 25.6147 0.211819 24.3144 0.635029C22.2324 1.28412 20.1543 2.72338 18.0792 4.9511C17.6129 4.96218 17.2148 5.13138 16.8841 5.4587C16.847 5.48896 16.8112 5.52177 16.775 5.55672C14.6551 4.1132 12.7283 3.18154 10.9937 2.76046C9.69762 2.42334 8.50726 2.25414 7.4226 2.25414C6.56169 2.25414 5.76854 2.36112 5.04188 2.57294C4.27814 2.7464 3.45132 3.28425 2.55972 4.18864C1.99672 4.68388 1.14348 6.06858 0 8.34105C2.12884 6.53228 3.65504 5.41054 4.57946 4.97539C5.67478 4.35784 6.88687 4.05012 8.21362 4.05012C8.25197 4.05012 8.29118 4.05012 8.32911 4.05098C9.25907 4.05439 10.3054 4.34462 11.4693 4.91956C12.6401 5.54905 14.0052 6.57703 15.565 8.0018H15.5642C15.4888 8.33892 15.4257 8.70758 15.3754 9.1082L12.8276 9.7411L14.3619 10.8211L15.7048 9.80844C16.209 9.76155 16.6889 9.68953 17.1449 9.5915C17.5093 9.49135 17.7199 9.4223 17.7766 9.38437C17.9066 9.32769 18.0276 9.26078 18.1401 9.18449C18.3617 9.0285 18.5471 8.8333 18.6967 8.60103C18.7513 8.54307 18.9801 8.12625 19.385 7.35057C19.5572 7.09315 19.6676 6.94995 19.7157 6.92267C19.83 6.78757 20.0648 6.64352 20.4224 6.48966C20.7399 6.37842 21.0719 6.29233 21.4175 6.23011L20.0222 5.85591C21.2462 4.42645 22.6134 3.3452 24.1213 2.61087C25.4383 1.92469 26.7637 1.44139 28.0981 1.16308C29.089 0.923137 30.6949 0.773543 32.9163 0.712597C30.8727 0.237816 29.2996 0 28.1953 0Z" fill="#00390D" fill-opacity="0.4"/>
</svg>
