<svg xmlns="http://www.w3.org/2000/svg" viewBox="0 0 30 30" width="30" height="30" aria-hidden="true">
  <path fill="#4285F4" d="M29.4 15.3c0-1-.1-2-.3-3H15v5.7h8.1c-.4 1.9-1.4 3.5-3 4.6v3.8h4.9c2.9-2.6 4.4-6.5 4.4-11.1z"/>
  <path fill="#34A853" d="M15 30c4 0 7.4-1.3 9.9-3.6l-4.9-3.8c-1.3.9-3 1.4-5 1.4-3.9 0-7.1-2.6-8.3-6.1H1.7v3.9C4.2 26.9 9.2 30 15 30z"/>
  <path fill="#FBBC04" d="M6.7 17.9c-.3-.9-.5-1.9-.5-2.9s.2-2 .5-2.9V8.2H1.7C.6 10.3 0 12.6 0 15s.6 4.7 1.7 6.8l5-3.9z"/>
  <path fill="#EA4335" d="M15 6c2.2 0 4.2.8 5.8 2.3l4.3-4.3C22.4 1.5 19 0 15 0 9.2 0 4.2 3.1 1.7 8.2l5 3.9C7.9 8.6 11.1 6 15 6z"/>
</svg>
