<svg width="66" height="66" viewBox="0 0 66 66" fill="none" xmlns="http://www.w3.org/2000/svg">
<path d="M32.6826 65.1826C50.6319 65.1826 65.1826 50.6319 65.1826 32.6826C65.1826 14.7334 50.6319 0.182617 32.6826 0.182617C14.7334 0.182617 0.182617 14.7334 0.182617 32.6826C0.182617 50.6319 14.7334 65.1826 32.6826 65.1826Z" fill="#FDE8BB"/>
<mask id="mask_pat" style="mask-type:luminance" maskUnits="userSpaceOnUse" x="0" y="0" width="66" height="66">
<path d="M32.6826 65.1826C50.6319 65.1826 65.1826 50.6319 65.1826 32.6826C65.1826 14.7334 50.6319 0.182617 32.6826 0.182617C14.7334 0.182617 0.182617 14.7334 0.182617 32.6826C0.182617 50.6319 14.7334 65.1826 32.6826 65.1826Z" fill="white"/>
</mask>
<g mask="url(#mask_pat)">
<path d="M32.6827 67.3736C51.842 67.3736 67.3737 58.3816 67.3737 47.2893C67.3737 36.1971 51.842 27.2051 32.6827 27.2051C13.5234 27.2051 -2.0083 36.1971 -2.0083 47.2893C-2.0083 58.3816 13.5234 67.3736 32.6827 67.3736Z" fill="#6ABF3A"/>
<path d="M65.1826 47.2893H0.182617V69.1994H65.1826V47.2893Z" fill="#5AAD2E"/>
<path opacity="0.85" d="M14.5 11C18.9 11 22.5 9.5 22.5 7.7C22.5 5.9 18.9 4.4 14.5 4.4C10.1 4.4 6.5 5.9 6.5 7.7C6.5 9.5 10.1 11 14.5 11Z" fill="white"/>
<path opacity="0.85" d="M50 8C53.2 8 55.8 6.9 55.8 5.5C55.8 4.1 53.2 3 50 3C46.8 3 44.2 4.1 44.2 5.5C44.2 6.9 46.8 8 50 8Z" fill="white"/>
<path d="M10 47 L 56 47 L 50 38 L 16 38 Z" fill="#A89683" stroke="#6F5E50" stroke-width="0.5"/>
<line x1="22" y1="38" x2="18" y2="47" stroke="#6F5E50" stroke-width="0.4"/>
<line x1="28" y1="38" x2="25" y2="47" stroke="#6F5E50" stroke-width="0.4"/>
<line x1="34" y1="38" x2="33" y2="47" stroke="#6F5E50" stroke-width="0.4"/>
<line x1="40" y1="38" x2="41" y2="47" stroke="#6F5E50" stroke-width="0.4"/>
<line x1="46" y1="38" x2="48" y2="47" stroke="#6F5E50" stroke-width="0.4"/>
<line x1="14" y1="42.5" x2="52" y2="42.5" stroke="#6F5E50" stroke-width="0.3" opacity="0.6"/>
<line x1="33.3" y1="14" x2="33.3" y2="22" stroke="#5D4037" stroke-width="0.8"/>
<path d="M22 22 Q 33.3 16 44.6 22 L 44.6 24 Q 33.3 18 22 24 Z" fill="#D32F2F" stroke="#7F1D1D" stroke-width="0.4"/>
<path d="M22 22 Q 33.3 28 44.6 22" stroke="#7F1D1D" stroke-width="0.3" fill="none"/>
<path d="M27 28 L 27 36 L 24 36 L 26 32 L 26 28 Z" fill="#5D4037" stroke="#3E2723" stroke-width="0.3"/>
<rect x="24" y="33" width="4" height="3" fill="#8D6E63" stroke="#5D4037" stroke-width="0.3"/>
<path d="M40 28 L 40 36 L 43 36 L 41 32 L 41 28 Z" fill="#5D4037" stroke="#3E2723" stroke-width="0.3"/>
<rect x="39" y="33" width="4" height="3" fill="#8D6E63" stroke="#5D4037" stroke-width="0.3"/>
<ellipse cx="32.7" cy="36" rx="3" ry="1" fill="#3E342B"/>
<path d="M30 35 Q 31 32 32.7 34 Q 34.4 32 35.4 35 Q 35 36.5 32.7 36.5 Q 30 36 30 35 Z" fill="#FF7043"/>
<path d="M31 34.5 Q 31.7 32.5 32.7 34 Q 33.7 32.5 34.4 34.5 Q 33.5 35.5 32.7 35.5 Q 31.5 35.5 31 34.5 Z" fill="#FFCA28"/>
</g>
<path d="M32.6826 65.1826C50.6319 65.1826 65.1826 50.6319 65.1826 32.6826C65.1826 14.7334 50.6319 0.182617 32.6826 0.182617C14.7334 0.182617 0.182617 14.7334 0.182617 32.6826C0.182617 50.6319 14.7334 65.1826 32.6826 65.1826Z" stroke="#E0E0E0" stroke-width="0.365169"/>
</svg>
