<svg width="40" height="40" viewBox="0 0 40 40" fill="none" xmlns="http://www.w3.org/2000/svg">
<g clip-path="url(#clip0_38_1785)">
<path d="M30.7171 17.3877C30.7171 11.4848 25.9111 6.70446 19.9986 6.7461C14.2132 6.78688 9.48558 11.5049 9.43379 17.2902C9.40582 20.4123 10.7224 23.2272 12.8395 25.1912C13.9306 26.2034 14.5633 27.6152 14.5633 29.1035V34.3262H25.5871V29.0891C25.5871 27.6167 26.2037 26.212 27.2863 25.214C29.3957 23.2695 30.7171 20.4829 30.7171 17.3877Z" stroke="#312929" stroke-width="2.8125" stroke-miterlimit="10"/>
<path d="M14.5632 29.1033H25.5871" stroke="#312929" stroke-width="2.8125" stroke-miterlimit="10"/>
<path d="M23.1983 34.3259V35.6993C23.1983 37.4241 21.8001 38.8223 20.0752 38.8223C18.3505 38.8223 16.9523 37.4241 16.9523 35.6993V34.3259" stroke="#312929" stroke-width="2.8125" stroke-miterlimit="10"/>
<path d="M20.0753 29.1033V23.2159" stroke="#312929" stroke-width="2.8125" stroke-miterlimit="10"/>
<path d="M23.2605 18.2792V21.1671L20.0753 23.2158L16.8901 21.1671V18.2792" stroke="#312929" stroke-width="2.8125" stroke-miterlimit="10"/>
<path d="M19.9988 3.16675V2.95679e-05" stroke="#312929" stroke-width="2.8125" stroke-miterlimit="10"/>
<path d="M12.888 5.07202L11.3005 2.32249" stroke="#312929" stroke-width="2.8125" stroke-miterlimit="10"/>
<path d="M7.68288 10.2771L4.93335 8.68968" stroke="#312929" stroke-width="2.8125" stroke-miterlimit="10"/>
<path d="M5.77787 17.3877H2.60303" stroke="#312929" stroke-width="2.8125" stroke-miterlimit="10"/>
<path d="M34.2195 17.3877H37.3943" stroke="#312929" stroke-width="2.8125" stroke-miterlimit="10"/>
<path d="M32.3142 10.2771L35.0637 8.68968" stroke="#312929" stroke-width="2.8125" stroke-miterlimit="10"/>
<path d="M27.1089 5.07202L28.6963 2.32249" stroke="#312929" stroke-width="2.8125" stroke-miterlimit="10"/>
</g>
<defs>
<clipPath id="clip0_38_1785">
<rect width="40" height="40" fill="white"/>
</clipPath>
</defs>
</svg>
