<svg width="66" height="66" viewBox="0 0 66 66" fill="none" xmlns="http://www.w3.org/2000/svg">
<path d="M32.6826 65.1826C50.6319 65.1826 65.1826 50.6319 65.1826 32.6826C65.1826 14.7334 50.6319 0.182617 32.6826 0.182617C14.7334 0.182617 0.182617 14.7334 0.182617 32.6826C0.182617 50.6319 14.7334 65.1826 32.6826 65.1826Z" fill="#F4ECDD"/>
<mask id="mask_rgb" style="mask-type:luminance" maskUnits="userSpaceOnUse" x="0" y="0" width="66" height="66">
<path d="M32.6826 65.1826C50.6319 65.1826 65.1826 50.6319 65.1826 32.6826C65.1826 14.7334 50.6319 0.182617 32.6826 0.182617C14.7334 0.182617 0.182617 14.7334 0.182617 32.6826C0.182617 50.6319 14.7334 65.1826 32.6826 65.1826Z" fill="white"/>
</mask>
<g mask="url(#mask_rgb)">
<path d="M32.6827 67.3736C51.842 67.3736 67.3737 58.3816 67.3737 47.2893C67.3737 36.1971 51.842 27.2051 32.6827 27.2051C13.5234 27.2051 -2.0083 36.1971 -2.0083 47.2893C-2.0083 58.3816 13.5234 67.3736 32.6827 67.3736Z" fill="#C8A96E"/>
<path d="M65.1826 47.2893H0.182617V69.1994H65.1826V47.2893Z" fill="#B8956A"/>
<path opacity="0.85" d="M14.5 11C18.9 11 22.5 9.5 22.5 7.7C22.5 5.9 18.9 4.4 14.5 4.4C10.1 4.4 6.5 5.9 6.5 7.7C6.5 9.5 10.1 11 14.5 11Z" fill="white"/>
<path opacity="0.85" d="M50 8C53.2 8 55.8 6.9 55.8 5.5C55.8 4.1 53.2 3 50 3C46.8 3 44.2 4.1 44.2 5.5C44.2 6.9 46.8 8 50 8Z" fill="white"/>
<rect x="11" y="36" width="44" height="14" fill="#A1683E" stroke="#5D3A1F" stroke-width="0.5"/>
<rect x="11" y="36" width="44" height="3" fill="#C68B5C"/>
<rect x="11" y="42" width="44" height="0.5" fill="#5D3A1F" opacity="0.4"/>
<rect x="11" y="46" width="44" height="0.5" fill="#5D3A1F" opacity="0.4"/>
<rect x="11" y="36" width="2" height="14" fill="#5D3A1F"/>
<rect x="53" y="36" width="2" height="14" fill="#5D3A1F"/>
<rect x="13" y="35" width="40" height="3" fill="#5D4037"/>
<path d="M18 28 Q 19 22 20 28 L 20 35 L 18 35 Z" fill="#388E3C"/>
<path d="M16 30 Q 17 25 18 30 L 18 35 L 16 35 Z" fill="#43A047"/>
<path d="M20 26 Q 21 21 22 26 L 22 35 L 20 35 Z" fill="#66BB6A"/>
<circle cx="26" cy="28" r="3" fill="#E53935" stroke="#B71C1C" stroke-width="0.3"/>
<rect x="25.7" y="25.5" width="0.6" height="2" fill="#388E3C"/>
<path d="M25.5 25.5 L 26 24.5 L 26.5 25.5 Z" fill="#43A047"/>
<path d="M30 30 Q 31 26 32 30 Q 33 26 34 30 L 34 35 L 30 35 Z" fill="#7CB342"/>
<ellipse cx="32" cy="29" rx="2" ry="1.5" fill="#9CCC65"/>
<rect x="36" y="29" width="3" height="6" rx="0.5" fill="#FF9800"/>
<rect x="35.5" y="28" width="4" height="2" fill="#388E3C"/>
<path d="M37 28 L 37.5 25 L 38 28 Z" fill="#43A047"/>
<rect x="42" y="29" width="3" height="6" rx="0.5" fill="#FF9800"/>
<rect x="41.5" y="28" width="4" height="2" fill="#388E3C"/>
<path d="M43 28 L 43.5 25 L 44 28 Z" fill="#43A047"/>
<path d="M48 30 Q 49 26 50 30 L 50 35 L 48 35 Z" fill="#7CB342"/>
<path d="M50 28 Q 51 23 52 28 L 52 35 L 50 35 Z" fill="#388E3C"/>
</g>
<path d="M32.6826 65.1826C50.6319 65.1826 65.1826 50.6319 65.1826 32.6826C65.1826 14.7334 50.6319 0.182617 32.6826 0.182617C14.7334 0.182617 0.182617 14.7334 0.182617 32.6826C0.182617 50.6319 14.7334 65.1826 32.6826 65.1826Z" stroke="#E0E0E0" stroke-width="0.365169"/>
</svg>
