<svg width="66" height="66" viewBox="0 0 66 66" fill="none" xmlns="http://www.w3.org/2000/svg">
<path d="M32.6826 65.1826C50.6319 65.1826 65.1826 50.6319 65.1826 32.6826C65.1826 14.7334 50.6319 0.182617 32.6826 0.182617C14.7334 0.182617 0.182617 14.7334 0.182617 32.6826C0.182617 50.6319 14.7334 65.1826 32.6826 65.1826Z" fill="#B8DFF0"/>
<mask id="mask_spr" style="mask-type:luminance" maskUnits="userSpaceOnUse" x="0" y="0" width="66" height="66">
<path d="M32.6826 65.1826C50.6319 65.1826 65.1826 50.6319 65.1826 32.6826C65.1826 14.7334 50.6319 0.182617 32.6826 0.182617C14.7334 0.182617 0.182617 14.7334 0.182617 32.6826C0.182617 50.6319 14.7334 65.1826 32.6826 65.1826Z" fill="white"/>
</mask>
<g mask="url(#mask_spr)">
<path d="M32.6827 67.3736C51.842 67.3736 67.3737 58.3816 67.3737 47.2893C67.3737 36.1971 51.842 27.2051 32.6827 27.2051C13.5234 27.2051 -2.0083 36.1971 -2.0083 47.2893C-2.0083 58.3816 13.5234 67.3736 32.6827 67.3736Z" fill="#6ABF3A"/>
<path d="M65.1826 47.2893H0.182617V69.1994H65.1826V47.2893Z" fill="#5AAD2E"/>
<path opacity="0.85" d="M14.5 11C18.9 11 22.5 9.5 22.5 7.7C22.5 5.9 18.9 4.4 14.5 4.4C10.1 4.4 6.5 5.9 6.5 7.7C6.5 9.5 10.1 11 14.5 11Z" fill="white"/>
<path opacity="0.85" d="M50 8C53.2 8 55.8 6.9 55.8 5.5C55.8 4.1 53.2 3 50 3C46.8 3 44.2 4.1 44.2 5.5C44.2 6.9 46.8 8 50 8Z" fill="white"/>
<path d="M32.7 32 Q 22 22 13 25" stroke="white" stroke-width="1.5" fill="none" opacity="0.95" stroke-linecap="round"/>
<path d="M32.7 32 Q 24 19 19 17" stroke="white" stroke-width="1.5" fill="none" opacity="0.95" stroke-linecap="round"/>
<path d="M32.7 32 L 32.7 14" stroke="white" stroke-width="1.5" fill="none" opacity="0.95" stroke-linecap="round" stroke-dasharray="1.5 1.2"/>
<path d="M32.7 32 Q 41 19 46 17" stroke="white" stroke-width="1.5" fill="none" opacity="0.95" stroke-linecap="round"/>
<path d="M32.7 32 Q 43 22 52 25" stroke="white" stroke-width="1.5" fill="none" opacity="0.95" stroke-linecap="round"/>
<circle cx="13" cy="25" r="1.4" fill="#1E88E5"/>
<circle cx="19" cy="17" r="1.2" fill="#1E88E5"/>
<circle cx="32.7" cy="14" r="1.4" fill="#1E88E5"/>
<circle cx="46" cy="17" r="1.2" fill="#1E88E5"/>
<circle cx="52" cy="25" r="1.4" fill="#1E88E5"/>
<circle cx="17" cy="22" r="0.8" fill="#1E88E5" opacity="0.7"/>
<circle cx="26" cy="18" r="0.8" fill="#1E88E5" opacity="0.7"/>
<circle cx="40" cy="18" r="0.8" fill="#1E88E5" opacity="0.7"/>
<circle cx="49" cy="22" r="0.8" fill="#1E88E5" opacity="0.7"/>
<rect x="31" y="36" width="3.4" height="11" fill="#37474F" rx="0.5"/>
<rect x="29" y="33" width="7.4" height="4" rx="1" fill="#546E7A" stroke="#263238" stroke-width="0.3"/>
<rect x="30.5" y="31" width="4.4" height="2.2" rx="0.6" fill="#37474F"/>
<rect x="31.5" y="29.5" width="2.4" height="1.8" rx="0.4" fill="#263238"/>
<path d="M11 47 L 11.5 51 L 12 47 Z" fill="#33691E"/>
<path d="M14 47 L 14.5 50 L 15 47 Z" fill="#5AAD2E"/>
<path d="M19 47 L 19.5 51 L 20 47 Z" fill="#33691E"/>
<path d="M23 47 L 23.5 50.5 L 24 47 Z" fill="#5AAD2E"/>
<path d="M42 47 L 42.5 50 L 43 47 Z" fill="#33691E"/>
<path d="M46 47 L 46.5 51 L 47 47 Z" fill="#5AAD2E"/>
<path d="M50 47 L 50.5 50 L 51 47 Z" fill="#33691E"/>
<path d="M54 47 L 54.5 51 L 55 47 Z" fill="#5AAD2E"/>
</g>
<path d="M32.6826 65.1826C50.6319 65.1826 65.1826 50.6319 65.1826 32.6826C65.1826 14.7334 50.6319 0.182617 32.6826 0.182617C14.7334 0.182617 0.182617 14.7334 0.182617 32.6826C0.182617 50.6319 14.7334 65.1826 32.6826 65.1826Z" stroke="#E0E0E0" stroke-width="0.365169"/>
</svg>
