<svg width="66" height="66" viewBox="0 0 66 66" fill="none" xmlns="http://www.w3.org/2000/svg">
<path d="M32.6826 65.1826C50.6319 65.1826 65.1826 50.6319 65.1826 32.6826C65.1826 14.7334 50.6319 0.182617 32.6826 0.182617C14.7334 0.182617 0.182617 14.7334 0.182617 32.6826C0.182617 50.6319 14.7334 65.1826 32.6826 65.1826Z" fill="#B8DFF0"/>
<mask id="mask_drv" style="mask-type:luminance" maskUnits="userSpaceOnUse" x="0" y="0" width="66" height="66">
<path d="M32.6826 65.1826C50.6319 65.1826 65.1826 50.6319 65.1826 32.6826C65.1826 14.7334 50.6319 0.182617 32.6826 0.182617C14.7334 0.182617 0.182617 14.7334 0.182617 32.6826C0.182617 50.6319 14.7334 65.1826 32.6826 65.1826Z" fill="white"/>
</mask>
<g mask="url(#mask_drv)">
<path d="M32.6827 67.3736C51.842 67.3736 67.3737 58.3816 67.3737 47.2893C67.3737 36.1971 51.842 27.2051 32.6827 27.2051C13.5234 27.2051 -2.0083 36.1971 -2.0083 47.2893C-2.0083 58.3816 13.5234 67.3736 32.6827 67.3736Z" fill="#6ABF3A"/>
<path d="M65.1826 47.2893H0.182617V69.1994H65.1826V47.2893Z" fill="#5AAD2E"/>
<path opacity="0.85" d="M14.5 11C18.9 11 22.5 9.5 22.5 7.7C22.5 5.9 18.9 4.4 14.5 4.4C10.1 4.4 6.5 5.9 6.5 7.7C6.5 9.5 10.1 11 14.5 11Z" fill="white"/>
<path opacity="0.85" d="M50 8C53.2 8 55.8 6.9 55.8 5.5C55.8 4.1 53.2 3 50 3C46.8 3 44.2 4.1 44.2 5.5C44.2 6.9 46.8 8 50 8Z" fill="white"/>
<path d="M22 56 L 14 36 L 30 36 L 30 56 Z" fill="#90A4AE" stroke="#37474F" stroke-width="0.5"/>
<line x1="22" y1="38" x2="22" y2="42" stroke="white" stroke-width="0.4"/>
<line x1="22" y1="44" x2="22" y2="48" stroke="white" stroke-width="0.4"/>
<line x1="22" y1="50" x2="22" y2="54" stroke="white" stroke-width="0.4"/>
<rect x="32" y="22" width="22" height="18" fill="#FFE082" stroke="#5D4037" stroke-width="0.5"/>
<path d="M32 22 L 43 14 L 54 22" fill="#A1683E" stroke="#5D3A1F" stroke-width="0.5"/>
<rect x="38" y="28" width="10" height="12" fill="#5D4037" stroke="#3E2723" stroke-width="0.4"/>
<line x1="38" y1="30" x2="48" y2="30" stroke="#3E2723" stroke-width="0.3"/>
<line x1="38" y1="33" x2="48" y2="33" stroke="#3E2723" stroke-width="0.3"/>
<line x1="38" y1="36" x2="48" y2="36" stroke="#3E2723" stroke-width="0.3"/>
<rect x="33" y="26" width="3" height="3" fill="#90CAF9" stroke="#1976D2" stroke-width="0.3"/>
<rect x="50" y="26" width="3" height="3" fill="#90CAF9" stroke="#1976D2" stroke-width="0.3"/>
<rect x="36" y="40" width="3" height="3" fill="#5D4037" stroke="#3E2723" stroke-width="0.3"/>
<line x1="14" y1="48" x2="11" y2="48" stroke="#33691E" stroke-width="0.3"/>
<path d="M11 48 L 11.5 51 L 12 48 Z" fill="#33691E"/>
<path d="M55 48 L 55.5 50 L 56 48 Z" fill="#33691E"/>
</g>
<path d="M32.6826 65.1826C50.6319 65.1826 65.1826 50.6319 65.1826 32.6826C65.1826 14.7334 50.6319 0.182617 32.6826 0.182617C14.7334 0.182617 0.182617 14.7334 0.182617 32.6826C0.182617 50.6319 14.7334 65.1826 32.6826 65.1826Z" stroke="#E0E0E0" stroke-width="0.365169"/>
</svg>
