<svg width="66" height="66" viewBox="0 0 66 66" fill="none" xmlns="http://www.w3.org/2000/svg">
<path d="M32.6826 65.1826C50.6319 65.1826 65.1826 50.6319 65.1826 32.6826C65.1826 14.7334 50.6319 0.182617 32.6826 0.182617C14.7334 0.182617 0.182617 14.7334 0.182617 32.6826C0.182617 50.6319 14.7334 65.1826 32.6826 65.1826Z" fill="#B8DFF0"/>
<mask id="mask0_53_3280" style="mask-type:luminance" maskUnits="userSpaceOnUse" x="0" y="0" width="66" height="66">
<path d="M32.6826 65.1826C50.6319 65.1826 65.1826 50.6319 65.1826 32.6826C65.1826 14.7334 50.6319 0.182617 32.6826 0.182617C14.7334 0.182617 0.182617 14.7334 0.182617 32.6826C0.182617 50.6319 14.7334 65.1826 32.6826 65.1826Z" fill="white"/>
</mask>
<g mask="url(#mask0_53_3280)">
<path d="M32.6826 67.3737C51.8419 67.3737 67.3736 58.3817 67.3736 47.2895C67.3736 36.1972 51.8419 27.2052 32.6826 27.2052C13.5233 27.2052 -2.00842 36.1972 -2.00842 47.2895C-2.00842 58.3817 13.5233 67.3737 32.6826 67.3737Z" fill="#6ABF3A"/>
<path d="M65.1826 47.2893H0.182617V69.1994H65.1826V47.2893Z" fill="#5AAD2E"/>
<path opacity="0.85" d="M20.9972 18.4411C25.4341 18.4411 29.0309 16.9697 29.0309 15.1546C29.0309 13.3395 25.4341 11.868 20.9972 11.868C16.5603 11.868 12.9635 13.3395 12.9635 15.1546C12.9635 16.9697 16.5603 18.4411 20.9972 18.4411Z" fill="white"/>
<path opacity="0.85" d="M45.4635 14.059C48.6904 14.059 51.3062 12.9146 51.3062 11.5028C51.3062 10.0911 48.6904 8.94666 45.4635 8.94666C42.2367 8.94666 39.6208 10.0911 39.6208 11.5028C39.6208 12.9146 42.2367 14.059 45.4635 14.059Z" fill="white"/>
<path d="M10.7725 54.5927C13.596 54.5927 15.8849 50.015 15.8849 44.368C15.8849 38.7211 13.596 34.1433 10.7725 34.1433C7.94904 34.1433 5.66016 38.7211 5.66016 44.368C5.66016 50.015 7.94904 54.5927 10.7725 54.5927Z" fill="#57C04A"/>
<path d="M53.8625 55.323C56.2826 55.323 58.2445 51.3992 58.2445 46.559C58.2445 41.7187 56.2826 37.7949 53.8625 37.7949C51.4424 37.7949 49.4805 41.7187 49.4805 46.559C49.4805 51.3992 51.4424 55.323 53.8625 55.323Z" fill="#57C04A"/>
<path d="M50.6201 19.424H14.7451C13.3299 19.424 12.1826 20.5712 12.1826 21.9864V50.1739C12.1826 51.5892 13.3299 52.7364 14.7451 52.7364H50.6201C52.0353 52.7364 53.1826 51.5892 53.1826 50.1739V21.9864C53.1826 20.5712 52.0353 19.424 50.6201 19.424Z" fill="#E8F4FD" stroke="#5BA8D4" stroke-width="0.76875"/>
<path opacity="0.6" d="M12.1826 29.674H53.1826" stroke="#5BA8D4" stroke-width="0.384375"/>
<path opacity="0.6" d="M12.1826 38.6425H53.1826" stroke="#5BA8D4" stroke-width="0.384375"/>
<path opacity="0.6" d="M12.1826 47.6113H53.1826" stroke="#5BA8D4" stroke-width="0.384375"/>
<path opacity="0.6" d="M23.7137 19.424V52.7364" stroke="#5BA8D4" stroke-width="0.384375"/>
<path opacity="0.6" d="M35.245 19.424V52.7364" stroke="#5BA8D4" stroke-width="0.384375"/>
<path d="M19.8699 32.2362C28.4115 27.9654 36.9532 27.9654 45.4949 32.2362V47.6112C36.9532 50.1737 28.4115 50.1737 19.8699 47.6112V32.2362Z" stroke="#2E7D32" stroke-width="0.960937" stroke-dasharray="1.92 1.28"/>
<path opacity="0.75" d="M28.8386 41.2051C30.9615 41.2051 32.6824 39.4842 32.6824 37.3613C32.6824 35.2385 30.9615 33.5176 28.8386 33.5176C26.7158 33.5176 24.9949 35.2385 24.9949 37.3613C24.9949 39.4842 26.7158 41.2051 28.8386 41.2051Z" fill="#4CAF50"/>
<path opacity="0.75" d="M41.6511 36.7208C43.4202 36.7208 44.8542 35.2867 44.8542 33.5177C44.8542 31.7487 43.4202 30.3146 41.6511 30.3146C39.8821 30.3146 38.448 31.7487 38.448 33.5177C38.448 35.2867 39.8821 36.7208 41.6511 36.7208Z" fill="#4CAF50"/>
<path d="M37.1791 13.5503L35.0801 15.0201C34.7902 15.2231 34.7198 15.6225 34.9227 15.9123L40.8019 24.3087C41.0048 24.5985 41.4043 24.6689 41.6941 24.466L43.7932 22.9962C44.083 22.7932 44.1535 22.3938 43.9505 22.104L38.0714 13.7077C37.8684 13.4178 37.469 13.3474 37.1791 13.5503Z" fill="#F5C518"/>
<path d="M44.3184 22.6286L41.1698 24.8333L44.1094 29.0314L47.258 26.8267L44.3184 22.6286Z" fill="#F9A825"/>
<path d="M44.109 29.0314L47.2576 26.8267L47.888 31.0776L44.109 29.0314Z" fill="#FFCCBC"/>
<path d="M37.1791 13.5503L35.0801 15.0201C34.7902 15.2231 34.7198 15.6225 34.9227 15.9123L35.2902 16.4371C35.4931 16.7269 35.8926 16.7974 36.1824 16.5944L38.2815 15.1246C38.5713 14.9217 38.6417 14.5222 38.4388 14.2324L38.0714 13.7077C37.8684 13.4178 37.469 13.3474 37.1791 13.5503Z" fill="#BBBBBB"/>
</g>
<path d="M32.6826 65.1826C50.6319 65.1826 65.1826 50.6319 65.1826 32.6826C65.1826 14.7334 50.6319 0.182617 32.6826 0.182617C14.7334 0.182617 0.182617 14.7334 0.182617 32.6826C0.182617 50.6319 14.7334 65.1826 32.6826 65.1826Z" stroke="#E0E0E0" stroke-width="0.365169"/>
</svg>
