<svg width="66" height="66" viewBox="0 0 66 66" fill="none" xmlns="http://www.w3.org/2000/svg">
<path d="M32.6826 65.1826C50.6319 65.1826 65.1826 50.6319 65.1826 32.6826C65.1826 14.7334 50.6319 0.182617 32.6826 0.182617C14.7334 0.182617 0.182617 14.7334 0.182617 32.6826C0.182617 50.6319 14.7334 65.1826 32.6826 65.1826Z" fill="#FDE8BB"/>
<mask id="mask0_53_3405" style="mask-type:luminance" maskUnits="userSpaceOnUse" x="0" y="0" width="66" height="66">
<path d="M32.6826 65.1826C50.6319 65.1826 65.1826 50.6319 65.1826 32.6826C65.1826 14.7334 50.6319 0.182617 32.6826 0.182617C14.7334 0.182617 0.182617 14.7334 0.182617 32.6826C0.182617 50.6319 14.7334 65.1826 32.6826 65.1826Z" fill="white"/>
</mask>
<g mask="url(#mask0_53_3405)">
<path d="M32.6827 67.3736C51.842 67.3736 67.3737 58.3816 67.3737 47.2893C67.3737 36.1971 51.842 27.2051 32.6827 27.2051C13.5234 27.2051 -2.0083 36.1971 -2.0083 47.2893C-2.0083 58.3816 13.5234 67.3736 32.6827 67.3736Z" fill="#C8A96E"/>
<path d="M65.1826 47.2893H0.182617V69.1994H65.1826V47.2893Z" fill="#B8956A"/>
<path d="M52.7668 15.8849C55.9936 15.8849 58.6095 13.269 58.6095 10.0422C58.6095 6.81533 55.9936 4.19946 52.7668 4.19946C49.5399 4.19946 46.9241 6.81533 46.9241 10.0422C46.9241 13.269 49.5399 15.8849 52.7668 15.8849Z" fill="#FFD54F"/>
<path d="M12.5983 43.6377C15.8251 43.6377 18.441 42.0028 18.441 39.986C18.441 37.9693 15.8251 36.3344 12.5983 36.3344C9.37148 36.3344 6.75562 37.9693 6.75562 39.986C6.75562 42.0028 9.37148 43.6377 12.5983 43.6377Z" fill="#A0826D"/>
<path d="M51.6714 45.4635C55.3016 45.4635 58.2445 43.6651 58.2445 41.4467C58.2445 39.2282 55.3016 37.4298 51.6714 37.4298C48.0412 37.4298 45.0984 39.2282 45.0984 41.4467C45.0984 43.6651 48.0412 45.4635 51.6714 45.4635Z" fill="#9E7C6B"/>
<path d="M26.1096 47.6545C28.3281 47.6545 30.1265 46.51 30.1265 45.0983C30.1265 43.6866 28.3281 42.5421 26.1096 42.5421C23.8912 42.5421 22.0928 43.6866 22.0928 45.0983C22.0928 46.51 23.8912 47.6545 26.1096 47.6545Z" fill="#8D6E63"/>
<path d="M39.9859 45.8287C42.0027 45.8287 43.6376 44.8477 43.6376 43.6377C43.6376 42.4276 42.0027 41.4467 39.9859 41.4467C37.9691 41.4467 36.3342 42.4276 36.3342 43.6377C36.3342 44.8477 37.9691 45.8287 39.9859 45.8287Z" fill="#A0826D"/>
<path d="M35.2388 21.3623C35.2388 19.9506 34.0944 18.8062 32.6826 18.8062C31.2709 18.8062 30.1265 19.9506 30.1265 21.3623V36.6994C30.1265 38.1112 31.2709 39.2556 32.6826 39.2556C34.0944 39.2556 35.2388 38.1112 35.2388 36.6994V21.3623Z" fill="#5D8A3C"/>
<path d="M28.6656 24.6489H25.7443C24.7359 24.6489 23.9185 25.4664 23.9185 26.4748C23.9185 27.4832 24.7359 28.3006 25.7443 28.3006H28.6656C29.674 28.3006 30.4915 27.4832 30.4915 26.4748C30.4915 25.4664 29.674 24.6489 28.6656 24.6489Z" fill="#5D8A3C"/>
<path d="M27.5701 22.823C27.5701 21.8146 26.7527 20.9972 25.7443 20.9972C24.7359 20.9972 23.9185 21.8146 23.9185 22.823V27.2051C23.9185 28.2134 24.7359 29.0309 25.7443 29.0309C26.7527 29.0309 27.5701 28.2134 27.5701 27.2051V22.823Z" fill="#5D8A3C"/>
<path d="M39.6207 26.1096H36.6994C35.691 26.1096 34.8735 26.9271 34.8735 27.9355C34.8735 28.9438 35.691 29.7613 36.6994 29.7613H39.6207C40.6291 29.7613 41.4466 28.9438 41.4466 27.9355C41.4466 26.9271 40.6291 26.1096 39.6207 26.1096Z" fill="#5D8A3C"/>
<path d="M41.4466 23.5534C41.4466 22.545 40.6291 21.7275 39.6208 21.7275C38.6124 21.7275 37.7949 22.545 37.7949 23.5534V27.2051C37.7949 28.2135 38.6124 29.0309 39.6208 29.0309C40.6291 29.0309 41.4466 28.2135 41.4466 27.2051V23.5534Z" fill="#5D8A3C"/>
<path opacity="0.7" d="M31.5871 20.9972L29.7612 19.5365" stroke="white" stroke-width="0.365169"/>
<path opacity="0.7" d="M33.7781 22.4579L35.6039 20.9972" stroke="white" stroke-width="0.365169"/>
<path opacity="0.7" d="M31.5871 26.8399L29.7612 25.3793" stroke="white" stroke-width="0.365169"/>
<path opacity="0.7" d="M33.7781 29.031L35.6039 27.5703" stroke="white" stroke-width="0.365169"/>
<path d="M17.3455 34.5085C19.3623 34.5085 20.9972 33.364 20.9972 31.9523C20.9972 30.5406 19.3623 29.3961 17.3455 29.3961C15.3288 29.3961 13.6938 30.5406 13.6938 31.9523C13.6938 33.364 15.3288 34.5085 17.3455 34.5085Z" fill="#7CB342"/>
<path d="M14.4241 32.3175C15.8358 32.3175 16.9803 31.5 16.9803 30.4916C16.9803 29.4832 15.8358 28.6658 14.4241 28.6658C13.0124 28.6658 11.8679 29.4832 11.8679 30.4916C11.8679 31.5 13.0124 32.3175 14.4241 32.3175Z" fill="#8BC34A"/>
<path d="M19.5366 32.3175C20.9484 32.3175 22.0928 31.5 22.0928 30.4916C22.0928 29.4832 20.9484 28.6658 19.5366 28.6658C18.1249 28.6658 16.9805 29.4832 16.9805 30.4916C16.9805 31.5 18.1249 32.3175 19.5366 32.3175Z" fill="#7CB342"/>
<path d="M47.2894 34.8736C49.1045 34.8736 50.576 33.8927 50.576 32.6826C50.576 31.4725 49.1045 30.4916 47.2894 30.4916C45.4744 30.4916 44.0029 31.4725 44.0029 32.6826C44.0029 33.8927 45.4744 34.8736 47.2894 34.8736Z" fill="#7CB342"/>
<path d="M50.2108 32.6826C51.4208 32.6826 52.4018 32.0286 52.4018 31.2219C52.4018 30.4152 51.4208 29.7612 50.2108 29.7612C49.0007 29.7612 48.0198 30.4152 48.0198 31.2219C48.0198 32.0286 49.0007 32.6826 50.2108 32.6826Z" fill="#8BC34A"/>
<path d="M29.0311 50.5759C29.6361 50.5759 30.1266 50.0854 30.1266 49.4804C30.1266 48.8754 29.6361 48.3849 29.0311 48.3849C28.426 48.3849 27.9355 48.8754 27.9355 49.4804C27.9355 50.0854 28.426 50.5759 29.0311 50.5759Z" fill="#A0826D"/>
<path d="M36.3343 49.663C36.8385 49.663 37.2472 49.2543 37.2472 48.7501C37.2472 48.2459 36.8385 47.8372 36.3343 47.8372C35.8301 47.8372 35.4214 48.2459 35.4214 48.7501C35.4214 49.2543 35.8301 49.663 36.3343 49.663Z" fill="#8D6E63"/>
<path d="M21.7277 51.6714C22.131 51.6714 22.458 51.3444 22.458 50.941C22.458 50.5377 22.131 50.2107 21.7277 50.2107C21.3243 50.2107 20.9973 50.5377 20.9973 50.941C20.9973 51.3444 21.3243 51.6714 21.7277 51.6714Z" fill="#A0826D"/>
<path d="M43.6377 51.3062C44.2428 51.3062 44.7332 50.8158 44.7332 50.2107C44.7332 49.6057 44.2428 49.1152 43.6377 49.1152C43.0327 49.1152 42.5422 49.6057 42.5422 50.2107C42.5422 50.8158 43.0327 51.3062 43.6377 51.3062Z" fill="#8D6E63"/>
<path opacity="0.6" d="M21.7276 10.4073C25.3578 10.4073 28.3006 9.26284 28.3006 7.8511C28.3006 6.43936 25.3578 5.29492 21.7276 5.29492C18.0974 5.29492 15.1545 6.43936 15.1545 7.8511C15.1545 9.26284 18.0974 10.4073 21.7276 10.4073Z" fill="white"/>
<path opacity="0.6" d="M39.2556 7.48604C41.6757 7.48604 43.6376 6.66858 43.6376 5.66019C43.6376 4.65181 41.6757 3.83435 39.2556 3.83435C36.8354 3.83435 34.8735 4.65181 34.8735 5.66019C34.8735 6.66858 36.8354 7.48604 39.2556 7.48604Z" fill="white"/>
</g>
<path d="M32.6826 65.1826C50.6319 65.1826 65.1826 50.6319 65.1826 32.6826C65.1826 14.7334 50.6319 0.182617 32.6826 0.182617C14.7334 0.182617 0.182617 14.7334 0.182617 32.6826C0.182617 50.6319 14.7334 65.1826 32.6826 65.1826Z" stroke="#E0E0E0" stroke-width="0.365169"/>
</svg>
