<svg width="66" height="66" viewBox="0 0 66 66" fill="none" xmlns="http://www.w3.org/2000/svg">
<path d="M32.6826 65.1826C50.6319 65.1826 65.1826 50.6319 65.1826 32.6826C65.1826 14.7334 50.6319 0.182617 32.6826 0.182617C14.7334 0.182617 0.182617 14.7334 0.182617 32.6826C0.182617 50.6319 14.7334 65.1826 32.6826 65.1826Z" fill="#B8DFF0"/>
<mask id="mask_drip" style="mask-type:luminance" maskUnits="userSpaceOnUse" x="0" y="0" width="66" height="66">
<path d="M32.6826 65.1826C50.6319 65.1826 65.1826 50.6319 65.1826 32.6826C65.1826 14.7334 50.6319 0.182617 32.6826 0.182617C14.7334 0.182617 0.182617 14.7334 0.182617 32.6826C0.182617 50.6319 14.7334 65.1826 32.6826 65.1826Z" fill="white"/>
</mask>
<g mask="url(#mask_drip)">
<path d="M32.6827 67.3736C51.842 67.3736 67.3737 58.3816 67.3737 47.2893C67.3737 36.1971 51.842 27.2051 32.6827 27.2051C13.5234 27.2051 -2.0083 36.1971 -2.0083 47.2893C-2.0083 58.3816 13.5234 67.3736 32.6827 67.3736Z" fill="#A1683E"/>
<path d="M65.1826 47.2893H0.182617V69.1994H65.1826V47.2893Z" fill="#8B5A33"/>
<path opacity="0.85" d="M14.5 11C18.9 11 22.5 9.5 22.5 7.7C22.5 5.9 18.9 4.4 14.5 4.4C10.1 4.4 6.5 5.9 6.5 7.7C6.5 9.5 10.1 11 14.5 11Z" fill="white"/>
<path opacity="0.85" d="M50 8C53.2 8 55.8 6.9 55.8 5.5C55.8 4.1 53.2 3 50 3C46.8 3 44.2 4.1 44.2 5.5C44.2 6.9 46.8 8 50 8Z" fill="white"/>
<rect x="6" y="32" width="54" height="3.5" rx="1.5" fill="#37474F" stroke="#263238" stroke-width="0.4"/>
<circle cx="14" cy="33.7" r="0.8" fill="#90A4AE"/>
<circle cx="26" cy="33.7" r="0.8" fill="#90A4AE"/>
<circle cx="40" cy="33.7" r="0.8" fill="#90A4AE"/>
<circle cx="52" cy="33.7" r="0.8" fill="#90A4AE"/>
<path d="M14 36 L 13 39.5 Q 14 41 15 39.5 Z" fill="#1E88E5"/>
<path d="M26 36 L 25 39.5 Q 26 41 27 39.5 Z" fill="#1E88E5"/>
<path d="M40 36 L 39 39.5 Q 40 41 41 39.5 Z" fill="#1E88E5"/>
<path d="M52 36 L 51 39.5 Q 52 41 53 39.5 Z" fill="#1E88E5"/>
<circle cx="14" cy="44" r="2.5" fill="#5D4037" opacity="0.4"/>
<circle cx="26" cy="44" r="2.5" fill="#5D4037" opacity="0.4"/>
<circle cx="40" cy="44" r="2.5" fill="#5D4037" opacity="0.4"/>
<circle cx="52" cy="44" r="2.5" fill="#5D4037" opacity="0.4"/>
<path d="M14 32 L 14 28 Q 13 25 14 23 Q 15 25 14 28 Z" fill="#7CB342"/>
<ellipse cx="13.5" cy="26" rx="1.5" ry="2" fill="#66BB6A"/>
<ellipse cx="14.5" cy="26" rx="1.5" ry="2" fill="#66BB6A"/>
<path d="M26 32 L 26 24 L 25 27 L 26 24 L 27 27 Z" fill="#7CB342"/>
<circle cx="26" cy="22" r="3" fill="#4CAF50"/>
<circle cx="24" cy="21" r="2" fill="#66BB6A"/>
<circle cx="28" cy="21" r="2" fill="#66BB6A"/>
<rect x="39" y="22" width="2" height="10" fill="#5D4037"/>
<circle cx="40" cy="20" r="4" fill="#4CAF50"/>
<circle cx="38" cy="19" r="2.5" fill="#66BB6A"/>
<circle cx="42" cy="19" r="2.5" fill="#66BB6A"/>
<circle cx="40" cy="17" r="2.5" fill="#81C784"/>
<path d="M52 32 L 52 26 L 51 28 L 52 26 L 53 28 Z" fill="#7CB342"/>
<ellipse cx="52" cy="24" rx="2.5" ry="2" fill="#66BB6A"/>
<ellipse cx="50.5" cy="22.5" rx="1.5" ry="1.5" fill="#81C784"/>
<ellipse cx="53.5" cy="22.5" rx="1.5" ry="1.5" fill="#81C784"/>
</g>
<path d="M32.6826 65.1826C50.6319 65.1826 65.1826 50.6319 65.1826 32.6826C65.1826 14.7334 50.6319 0.182617 32.6826 0.182617C14.7334 0.182617 0.182617 14.7334 0.182617 32.6826C0.182617 50.6319 14.7334 65.1826 32.6826 65.1826Z" stroke="#E0E0E0" stroke-width="0.365169"/>
</svg>
