<svg width="66" height="66" viewBox="0 0 66 66" fill="none" xmlns="http://www.w3.org/2000/svg">
<path d="M32.6826 65.1826C50.6319 65.1826 65.1826 50.6319 65.1826 32.6826C65.1826 14.7334 50.6319 0.182617 32.6826 0.182617C14.7334 0.182617 0.182617 14.7334 0.182617 32.6826C0.182617 50.6319 14.7334 65.1826 32.6826 65.1826Z" fill="#B8DFF0"/>
<mask id="mask0_53_3628" style="mask-type:luminance" maskUnits="userSpaceOnUse" x="0" y="0" width="66" height="66">
<path d="M32.6826 65.1826C50.6319 65.1826 65.1826 50.6319 65.1826 32.6826C65.1826 14.7334 50.6319 0.182617 32.6826 0.182617C14.7334 0.182617 0.182617 14.7334 0.182617 32.6826C0.182617 50.6319 14.7334 65.1826 32.6826 65.1826Z" fill="white"/>
</mask>
<g mask="url(#mask0_53_3628)">
<path opacity="0.85" d="M20.9972 12.9635C25.0308 12.9635 28.3006 11.6556 28.3006 10.0422C28.3006 8.42878 25.0308 7.12085 20.9972 7.12085C16.9637 7.12085 13.6938 8.42878 13.6938 10.0422C13.6938 11.6556 16.9637 12.9635 20.9972 12.9635Z" fill="white"/>
<path opacity="0.85" d="M42.1771 9.31171C45.0005 9.31171 47.2894 8.33076 47.2894 7.1207C47.2894 5.91064 45.0005 4.92969 42.1771 4.92969C39.3536 4.92969 37.0647 5.91064 37.0647 7.1207C37.0647 8.33076 39.3536 9.31171 42.1771 9.31171Z" fill="white"/>
<path d="M65.1826 43.6377H0.182617V66.2781H65.1826V43.6377Z" fill="#5AAD2E"/>
<path d="M32.6827 49.4803C51.842 49.4803 67.3737 46.8645 67.3737 43.6376C67.3737 40.4108 51.842 37.7949 32.6827 37.7949C13.5234 37.7949 -2.0083 40.4108 -2.0083 43.6376C-2.0083 46.8645 13.5234 49.4803 32.6827 49.4803Z" fill="#6ABF3A"/>
<path opacity="0.45" d="M8.21632 43.6377H0.182617V66.2781H8.21632V43.6377Z" fill="#57AD28"/>
<path opacity="0.45" d="M24.2837 43.6377H16.25V66.2781H24.2837V43.6377Z" fill="#57AD28"/>
<path opacity="0.45" d="M40.3511 43.6377H32.3174V66.2781H40.3511V43.6377Z" fill="#57AD28"/>
<path opacity="0.45" d="M56.4185 43.6377H48.3848V66.2781H56.4185V43.6377Z" fill="#57AD28"/>
<path opacity="0.8" d="M12.9635 41.8119C13.9719 41.8119 14.7894 41.3214 14.7894 40.7164C14.7894 40.1113 13.9719 39.6208 12.9635 39.6208C11.9552 39.6208 11.1377 40.1113 11.1377 40.7164C11.1377 41.3214 11.9552 41.8119 12.9635 41.8119Z" fill="#8BC34A"/>
<path opacity="0.7" d="M10.0422 43.09C10.8489 43.09 11.5029 42.6813 11.5029 42.1771C11.5029 41.6729 10.8489 41.2642 10.0422 41.2642C9.23551 41.2642 8.58154 41.6729 8.58154 42.1771C8.58154 42.6813 9.23551 43.09 10.0422 43.09Z" fill="#7CB342"/>
<path opacity="0.6" d="M7.48589 42.177C8.09092 42.177 8.58139 41.85 8.58139 41.4466C8.58139 41.0433 8.09092 40.7163 7.48589 40.7163C6.88086 40.7163 6.39038 41.0433 6.39038 41.4466C6.39038 41.85 6.88086 42.177 7.48589 42.177Z" fill="#8BC34A"/>
</g>
<path d="M32.6826 65.1826C50.6319 65.1826 65.1826 50.6319 65.1826 32.6826C65.1826 14.7334 50.6319 0.182617 32.6826 0.182617C14.7334 0.182617 0.182617 14.7334 0.182617 32.6826C0.182617 50.6319 14.7334 65.1826 32.6826 65.1826Z" stroke="#E0E0E0" stroke-width="0.365169"/>
<path d="M15.682 22.2869C16.1617 22.5828 16.5313 23.0286 16.6795 23.5767C16.7353 23.9136 16.7009 24.2557 16.6843 24.5952C16.679 24.7652 16.674 24.9352 16.6693 25.1053C16.6614 25.3715 16.6521 25.6374 16.6381 25.9034C16.5335 26.9416 16.5335 26.9416 16.9105 27.8567C17.1159 28.0353 17.3389 28.1696 17.5798 28.2947C17.7451 28.3841 17.8818 28.4974 18.0237 28.6198C18.0687 28.6564 18.1136 28.6931 18.16 28.7309C18.2027 28.7659 18.2455 28.8009 18.2896 28.837C18.7087 29.1794 19.1303 29.5185 19.5533 29.856C19.5544 29.7867 19.5554 29.7174 19.5565 29.646C19.5606 29.3879 19.5661 29.1298 19.572 28.8717C19.5744 28.7602 19.5764 28.6487 19.578 28.5372C19.5804 28.3765 19.5841 28.2159 19.5881 28.0552C19.5885 28.0057 19.589 27.9561 19.5895 27.905C19.5987 27.5955 19.6481 27.3965 19.8381 27.1505C20.1051 26.9725 20.2339 26.97 20.5501 27.0081C20.7432 27.138 20.7432 27.138 20.9061 27.3641C20.9489 27.6323 20.9336 27.895 20.9214 28.1656C20.9187 28.3264 20.9163 28.4871 20.914 28.6479C20.9086 28.9002 20.9016 29.1521 20.8912 29.4043C20.8058 30.3994 20.8058 30.3995 21.1847 31.2689C21.3908 31.4468 21.614 31.5838 21.8536 31.7117C22.0111 31.7989 22.1424 31.9069 22.278 32.0247C22.3199 32.0592 22.3619 32.0936 22.4051 32.1292C22.4464 32.1632 22.4877 32.1972 22.5302 32.2322C22.9205 32.5516 23.3165 32.862 23.7183 33.1667C24.1692 33.5084 24.611 33.8594 25.0488 34.2176C25.4741 34.5655 25.9053 34.9053 26.3384 35.2435C26.4987 35.3688 26.6585 35.4948 26.8184 35.6206C27.4008 36.0791 27.986 36.5341 28.5714 36.9888C28.7382 37.1185 28.905 37.2483 29.0717 37.3781C29.3874 37.6239 29.7033 37.8695 30.0193 38.1148C30.0633 38.149 30.1072 38.1832 30.1526 38.2184C30.2727 38.3116 30.3929 38.4046 30.5132 38.4975C30.5785 38.548 30.6437 38.5985 30.7109 38.6505C31.0453 38.9054 31.3875 39.1499 31.728 39.3964C31.729 39.2914 31.729 39.2914 31.73 39.1843C31.7329 38.922 31.7376 38.6597 31.7428 38.3974C31.7448 38.2843 31.7463 38.1713 31.7473 38.0583C31.755 37.2381 31.8129 36.5729 32.3896 35.9436C32.8484 35.5394 33.3661 35.4722 33.9589 35.4691C34.0103 35.4687 34.0616 35.4684 34.1145 35.468C34.2841 35.467 34.4536 35.4665 34.6232 35.4661C34.7109 35.4658 34.7109 35.4658 34.8003 35.4655C35.1107 35.4644 35.4211 35.4638 35.7315 35.4635C36.0483 35.4631 36.3651 35.4614 36.6819 35.4593C36.9286 35.458 37.1752 35.4576 37.4219 35.4575C37.5384 35.4573 37.655 35.4567 37.7715 35.4558C39.8372 35.4402 41.6264 35.9276 43.1907 37.3317C43.2633 37.3967 43.2633 37.3967 43.3373 37.4629C43.6998 37.806 44.0513 38.1934 44.0889 38.7101C44.0903 38.821 44.0897 38.9318 44.0874 39.0426C44.0874 39.1021 44.0874 39.1616 44.0874 39.2229C44.087 39.3478 44.0857 39.4727 44.0837 39.5976C44.0807 39.7875 44.0807 39.9772 44.0812 40.167C44.0805 40.2891 44.0796 40.4112 44.0785 40.5333C44.0784 40.5893 44.0784 40.6453 44.0784 40.703C44.0692 41.1388 43.9911 41.5376 43.7191 41.8925C43.6799 41.9249 43.6406 41.9573 43.6001 41.9906C43.5616 42.0243 43.523 42.058 43.4833 42.0927C43.3331 42.1731 43.3331 42.1731 42.8347 42.2443C42.8582 43.0901 42.8817 43.9359 42.9059 44.8074C43.1526 44.5254 43.1526 44.5254 43.4043 44.2378C43.9909 43.7664 44.7142 43.4383 45.469 43.3834C45.5425 43.3767 45.5425 43.3767 45.6175 43.3698C46.4697 43.3259 47.3505 43.587 48.0321 44.0954C48.0823 44.1319 48.1325 44.1684 48.1842 44.2061C48.8488 44.7352 49.2749 45.5503 49.4561 46.3737C49.5592 47.5973 49.3464 48.5478 48.6109 49.5445C48.0031 50.2481 47.1141 50.6603 46.2041 50.7723C45.4788 50.8201 44.6438 50.7541 44.0316 50.3218C43.7806 50.192 43.5648 50.1882 43.289 50.1903C43.2349 50.1898 43.1808 50.1894 43.1251 50.1889C42.9442 50.1878 42.7634 50.1881 42.5825 50.1884C42.4526 50.1879 42.3228 50.1873 42.193 50.1866C41.8403 50.185 41.4877 50.1848 41.1351 50.185C40.8403 50.185 40.5456 50.1844 40.2509 50.1838C39.555 50.1824 38.8591 50.1822 38.1633 50.1827C37.4467 50.1831 36.7301 50.1815 36.0135 50.1789C35.3975 50.1767 34.7815 50.1759 34.1654 50.1762C33.7979 50.1763 33.4303 50.1759 33.0628 50.1742C32.7166 50.1726 32.3705 50.1727 32.0244 50.1742C31.8979 50.1744 31.7714 50.174 31.6449 50.173C30.8965 50.1674 30.3454 50.2346 29.6633 50.5743C28.3805 50.9899 27.0252 50.7867 25.8412 50.1939C25.3516 49.9189 24.8697 49.5519 24.5194 49.1093C24.3386 48.9624 24.1873 48.9679 23.9567 48.9504C23.8683 48.943 23.7799 48.9355 23.6888 48.9278C23.6421 48.9242 23.5953 48.9206 23.5472 48.9169C23.3032 48.8979 23.0595 48.875 22.8159 48.8517C22.7434 48.8448 22.7434 48.8448 22.6694 48.8377C22.0466 48.7761 21.4414 48.662 20.8349 48.5096C20.7768 48.495 20.7187 48.4805 20.6589 48.4655C18.3121 47.858 16.165 46.5032 14.9134 44.3814C13.3248 41.5143 13.0181 37.6641 13.8345 34.5002C14.0531 33.7504 14.4271 33.0314 14.9967 32.4903C14.6913 32.1651 14.3499 31.9012 13.9955 31.6315C13.8818 31.5448 13.7682 31.4579 13.6548 31.3709C13.6049 31.3329 13.5549 31.2949 13.5035 31.2557C13.0827 30.9112 13.0827 30.9112 13.0343 30.5724C13.0478 30.3398 13.0805 30.274 13.2168 30.0696C13.4397 29.921 13.5761 29.8868 13.8422 29.8942C14.1571 29.9601 14.3785 30.1774 14.6185 30.3811C14.7322 30.4736 14.846 30.5661 14.9597 30.6586C15.0148 30.7042 15.0699 30.7498 15.1267 30.7968C15.329 30.9629 15.5359 31.1216 15.7443 31.2799C16.1074 31.5587 16.4689 31.8395 16.83 32.121C17.2497 32.4479 17.6708 32.7729 18.0938 33.0955C18.5716 33.4598 19.0466 33.8277 19.5206 34.197C19.9809 34.5556 20.4431 34.9117 20.9061 35.267C21.4853 35.7114 22.0626 36.1582 22.6387 36.6068C23.104 36.9689 23.5709 37.3288 24.0387 37.6877C24.618 38.1321 25.1953 38.5789 25.7713 39.0275C26.279 39.4226 26.7888 39.815 27.2993 40.2064C27.3866 40.2734 27.4739 40.3404 27.5612 40.4074C27.6437 40.4707 27.7262 40.534 27.8088 40.5972C28.0889 40.8123 28.0889 40.8123 28.1682 40.8915C28.3087 40.9152 28.4493 40.9384 28.5903 40.9592C29.1649 41.0443 29.701 41.1468 30.2329 41.3899C30.2968 41.419 30.3608 41.4481 30.4267 41.4781C30.8082 41.6685 31.0834 41.8764 31.3809 42.182C31.8509 42.6363 32.3847 42.7157 33.0095 42.8138C33.0095 42.6259 33.0095 42.4379 33.0095 42.2443C32.9391 42.2428 32.8686 42.2413 32.796 42.2398C32.4297 42.1862 32.1662 41.9593 31.9416 41.6747C31.9138 41.5849 31.886 41.4952 31.8573 41.4027C31.7219 41.0133 31.4314 40.8434 31.1006 40.6201C30.9775 40.5334 30.8544 40.4465 30.7315 40.3595C30.6709 40.3171 30.6102 40.2747 30.5477 40.231C30.309 40.0612 30.079 39.8818 29.8502 39.699C29.7703 39.6355 29.6904 39.5721 29.6104 39.5088C29.572 39.4782 29.5336 39.4477 29.494 39.4163C29.3027 39.2654 29.1092 39.1173 28.9157 38.9692C28.4682 38.6261 28.0248 38.2781 27.5819 37.9291C27.374 37.7654 27.1659 37.6019 26.9578 37.4385C26.8747 37.3732 26.7917 37.3079 26.7086 37.2427C26.6675 37.2104 26.6264 37.1781 26.584 37.1448C26.1272 36.7858 25.6703 36.4269 25.2135 36.0679C25.1518 36.0195 25.1518 36.0195 25.0889 35.9701C25.0057 35.9047 24.9225 35.8393 24.8394 35.7739C24.6337 35.6123 24.4279 35.4508 24.2217 35.2898C23.7282 34.9039 23.2398 34.5123 22.7544 34.1162C22.4094 33.8351 22.0608 33.5591 21.71 33.2853C21.3897 33.0347 21.0741 32.7787 20.7592 32.5214C20.4204 32.2447 20.0792 31.9724 19.7313 31.7071C19.1875 31.292 18.659 30.8586 18.1294 30.4256C17.7968 30.1539 17.4637 29.8829 17.1296 29.613C17.0355 29.5368 16.9417 29.4602 16.848 29.3834C16.712 29.2718 16.5753 29.1611 16.4384 29.0506C16.3773 28.9999 16.3773 28.9999 16.3149 28.9482C16.0861 28.7651 16.0132 28.7168 15.7087 28.7168C15.6418 28.7399 15.5749 28.7629 15.5059 28.7867C15.0468 28.9351 14.546 28.9122 14.0845 28.7836C13.5816 28.4779 13.1987 28.1504 13.0032 27.5777C12.9624 27.2644 12.9632 26.9543 12.9654 26.6388C12.9651 26.5493 12.9648 26.4598 12.9645 26.3676C12.9644 26.1789 12.9647 25.9904 12.9661 25.8017C12.9677 25.5614 12.9668 25.3211 12.965 25.0808C12.9638 24.8496 12.9647 24.6184 12.9654 24.3872C12.9648 24.3016 12.9642 24.216 12.9636 24.1278C12.9701 23.544 13.0455 23.1519 13.4434 22.7035C13.5229 22.636 13.5229 22.636 13.6039 22.5672C13.6567 22.5211 13.7095 22.4751 13.7638 22.4276C14.2761 22.0596 15.1091 22.0163 15.682 22.2869Z" fill="black"/>
<path d="M16.0645 33.2021C16.2721 33.2988 16.4452 33.4099 16.6249 33.5515C16.6771 33.5923 16.7292 33.6332 16.783 33.6753C16.8381 33.7189 16.8932 33.7624 16.95 33.8073C17.0659 33.8982 17.1818 33.989 17.2977 34.0799C17.3545 34.1245 17.4113 34.1692 17.4699 34.2152C17.6842 34.3831 17.8998 34.5494 18.1159 34.7151C18.189 34.7713 18.2622 34.8274 18.3375 34.8853C18.4098 34.9407 18.482 34.9962 18.5564 35.0533C18.7496 35.2018 18.9427 35.3504 19.1357 35.4989C19.324 35.6438 19.5124 35.7886 19.7008 35.9332C20.1454 36.2746 20.5884 36.6178 21.0305 36.9622C21.4997 37.3278 21.9711 37.6903 22.4441 38.051C22.8111 38.3312 23.176 38.614 23.5402 38.8979C23.9572 39.2229 24.3752 39.5466 24.795 39.868C24.844 39.9055 24.893 39.943 24.9434 39.9817C25.2007 40.1783 25.4595 40.3727 25.7203 40.5646C25.7734 40.6038 25.8264 40.643 25.881 40.6834C25.9827 40.7583 26.0847 40.8329 26.187 40.907C26.3041 40.9934 26.4177 41.0844 26.5305 41.1762C26.5305 41.2232 26.5305 41.2702 26.5305 41.3186C26.4362 41.3614 26.4362 41.3614 26.34 41.4051C25.0151 42.0249 24.1614 42.9592 23.6114 44.3089C23.3001 45.2125 23.3227 46.1628 23.5402 47.0856C23.5538 47.1432 23.5674 47.2008 23.5814 47.2602C23.6137 47.3922 23.6479 47.5237 23.6826 47.6551C23.1544 47.6706 22.6616 47.635 22.143 47.535C22.075 47.522 22.0069 47.509 21.9369 47.4957C19.6866 47.0516 17.5467 46.0088 16.2169 44.0767C15.4761 42.9474 15.0849 41.7143 14.8542 40.393C14.8351 40.2909 14.8351 40.2909 14.8156 40.1866C14.7063 39.5568 14.6863 38.9385 14.6895 38.3016C14.6896 38.2489 14.6897 38.1962 14.6898 38.1419C14.6955 36.5735 14.7073 34.5609 15.8776 33.3712C15.9701 33.2875 15.9701 33.2875 16.0645 33.2021Z" fill="#F24234"/>
<path d="M30.2152 42.7961C30.9888 43.354 31.5504 44.0893 31.7993 45.021C31.832 45.2871 31.8366 45.5496 31.8349 45.8175C31.8345 45.89 31.8341 45.9624 31.8336 46.0371C31.8096 47.0544 31.3951 47.8163 30.7135 48.563C30.0836 49.1593 29.1753 49.5156 28.3151 49.5375C27.1548 49.4992 26.2696 49.1267 25.4628 48.296C24.7526 47.4973 24.4981 46.6333 24.5149 45.5797C24.5919 44.6325 25.052 43.7437 25.7475 43.0987C27.0902 42.0347 28.7501 41.898 30.2152 42.7961Z" fill="#7D8C92"/>
<path d="M32.7244 44.0952C33.0934 44.1368 33.4472 44.1947 33.8091 44.2804C33.8803 44.2972 33.8803 44.2972 33.953 44.3143C34.1072 44.3507 34.2613 44.3876 34.4153 44.4245C34.524 44.4503 34.6327 44.476 34.7414 44.5018C35.4851 44.6786 36.2267 44.8635 36.9678 45.0511C37.6632 45.226 38.362 45.3839 39.062 45.5398C40.1331 45.7793 41.199 46.0405 42.2648 46.3023C42.2607 46.3927 42.2566 46.4831 42.2523 46.5763C42.2265 47.4033 42.3176 48.0253 42.6208 48.7942C42.6208 48.8412 42.6208 48.8882 42.6208 48.9366C39.12 48.9366 35.6193 48.9366 32.0125 48.9366C32.1183 48.6719 32.2082 48.4875 32.3595 48.2558C32.6005 47.8603 32.7433 47.4591 32.8668 47.0143C32.883 46.9566 32.8991 46.8988 32.9158 46.8394C33.1434 45.886 32.9949 45.0141 32.7244 44.0952Z" fill="#F24234"/>
<path d="M47.1776 45.0209C47.6646 45.3159 48.0332 45.8832 48.2119 46.4195C48.3415 47.0652 48.3088 47.7279 47.9608 48.296C47.5187 48.8875 47.0377 49.3031 46.3233 49.5063C45.506 49.6132 44.934 49.4655 44.2586 49.0079C43.8342 48.6437 43.5794 48.1808 43.4042 47.6552C43.3452 46.8032 43.3892 46.142 43.956 45.4614C44.8381 44.5334 46.0603 44.3955 47.1776 45.0209Z" fill="#7D8C92"/>
<path d="M33.0095 39.1826C36.2283 39.1826 39.4472 39.1826 42.7635 39.1826C42.7635 39.7935 42.7635 40.4044 42.7635 41.0337C39.5447 41.0337 36.3259 41.0337 33.0095 41.0337C33.0095 40.4229 33.0095 39.812 33.0095 39.1826Z" fill="#9E9E9E"/>
<path d="M34.291 42.1731C36.6875 42.1731 39.084 42.1731 41.5531 42.1731C41.5531 43.0659 41.5531 43.9587 41.5531 44.8786C41.1977 44.8342 40.8811 44.791 40.5383 44.7089C40.4551 44.6893 40.372 44.6696 40.2864 44.6493C40.1978 44.628 40.1092 44.6068 40.0179 44.5849C39.8255 44.5392 39.633 44.4938 39.4406 44.4483C39.3668 44.4309 39.3668 44.4309 39.2915 44.4131C38.7811 44.2926 38.2693 44.1785 37.7574 44.0643C36.5983 43.8047 35.4446 43.5241 34.291 43.2411C34.291 42.8886 34.291 42.5362 34.291 42.1731Z" fill="#5F7C8A"/>
<path d="M16.7764 36.762C16.9687 36.8901 17.0998 36.9815 17.2036 37.1892C17.213 37.3421 17.2181 37.4952 17.2211 37.6483C17.2235 37.7436 17.2259 37.8388 17.2282 37.9341C17.2316 38.0829 17.2347 38.2317 17.2376 38.3806C17.2738 40.1801 17.5708 42.1343 18.9123 43.4545C19.5469 44.0205 20.3525 44.52 21.1804 44.7444C21.4042 44.8073 21.4042 44.8073 21.5466 44.9274C21.6532 45.1738 21.6152 45.3345 21.5466 45.5904C21.4443 45.764 21.4443 45.764 21.2618 45.8752C20.5018 46.0462 19.7631 45.5917 19.1423 45.1995C17.973 44.4312 17.2155 43.5082 16.634 42.2442C16.6062 42.1867 16.5784 42.1293 16.5498 42.0701C15.9996 40.8414 15.9144 39.3485 15.8998 38.0213C15.8986 37.9511 15.8973 37.881 15.896 37.8087C15.8966 37.1848 15.8966 37.1848 16.1357 36.9044C16.3857 36.7377 16.482 36.7267 16.7764 36.762Z" fill="#050101"/>
<path d="M29.0104 44.215C29.5115 44.5202 29.8711 44.8674 30.0191 45.4481C30.1099 46.1027 29.9401 46.5662 29.5785 47.1035C29.1509 47.5216 28.8047 47.6778 28.1991 47.6953C27.581 47.6712 27.2463 47.546 26.8286 47.0946C26.4283 46.6249 26.3483 46.226 26.3636 45.6197C26.4153 45.1062 26.6576 44.7655 27.0305 44.4188C27.6325 43.9489 28.3269 43.869 29.0104 44.215Z" fill="#010202"/>
<path d="M33.9786 36.7194C34.032 36.7192 34.0854 36.7189 34.1405 36.7186C34.3168 36.7181 34.4929 36.7202 34.6691 36.7223C34.7925 36.7226 34.9159 36.7228 35.0393 36.7228C35.2981 36.7233 35.5568 36.7249 35.8156 36.7274C36.1449 36.7306 36.4742 36.7317 36.8035 36.732C37.0586 36.7323 37.3137 36.7334 37.5687 36.7347C37.69 36.7354 37.8112 36.7359 37.9325 36.7362C38.8485 36.7397 39.7524 36.7584 40.6052 37.1314C40.656 37.153 40.7069 37.1745 40.7593 37.1967C41.1764 37.3798 41.5637 37.601 41.909 37.9013C41.909 37.9248 41.909 37.9483 41.909 37.9725C38.9956 37.9725 36.0822 37.9725 33.0806 37.9725C33.0806 37.1181 33.0806 37.1181 33.2247 36.8894C33.4827 36.7344 33.6859 36.7132 33.9786 36.7194Z" fill="#F24234"/>
<path d="M28.6663 42.2441C29.6748 42.3532 30.5191 42.9002 31.1582 43.6681C31.6109 44.3605 31.8399 44.9932 31.8346 45.8173C31.8342 45.8898 31.8338 45.9623 31.8334 46.037C31.8093 47.0542 31.3948 47.8161 30.7132 48.5629C30.2039 49.045 29.4897 49.3595 28.8087 49.5062C28.6416 49.4776 28.6416 49.4776 28.5239 49.435C28.5973 49.3954 28.6708 49.3557 28.7464 49.3149C29.5577 48.8768 30.1142 48.0258 30.375 47.1567C30.6671 46.1675 30.6459 44.9579 30.2012 44.0216C29.8201 43.3221 29.331 42.7538 28.6663 42.3153C28.6663 42.2918 28.6663 42.2683 28.6663 42.2441Z" fill="#535B5F"/>
<path d="M45.825 44.665C46.3912 44.6007 46.9679 44.8403 47.418 45.1812C47.9499 45.7385 48.2509 46.3053 48.2768 47.0768C48.2557 47.8378 48.0119 48.3044 47.4889 48.8514C47.072 49.2382 46.6256 49.4967 46.0474 49.5153C45.974 49.5124 45.9006 49.5094 45.825 49.5064C45.9175 49.4029 45.9175 49.4029 46.0118 49.2973C46.7281 48.4557 46.9645 47.7502 46.9046 46.6555C46.8412 45.8995 46.4352 45.3157 45.8961 44.8074C45.8727 44.7604 45.8492 44.7134 45.825 44.665Z" fill="#535B5F"/>
<path d="M15.1389 23.4481C15.295 23.5455 15.295 23.5455 15.4236 23.7329C15.4669 23.9922 15.4635 24.2491 15.4615 24.5114C15.4617 24.5876 15.462 24.6637 15.4623 24.7422C15.4625 24.9033 15.462 25.0643 15.4608 25.2254C15.4592 25.4717 15.4608 25.7178 15.4626 25.9641C15.4624 26.1206 15.462 26.2772 15.4615 26.4337C15.462 26.5073 15.4626 26.5808 15.4632 26.6566C15.4591 26.9718 15.4549 27.1678 15.2942 27.4441C15.0756 27.6319 14.9265 27.6538 14.6405 27.6488C14.441 27.523 14.319 27.433 14.2133 27.2216C14.2055 27.1137 14.202 27.0055 14.2007 26.8973C14.1998 26.8301 14.1989 26.7628 14.1979 26.6935C14.1974 26.6206 14.1969 26.5477 14.1963 26.4726C14.1958 26.3978 14.1952 26.323 14.1946 26.2459C14.1936 26.0874 14.1928 25.9288 14.1923 25.7703C14.1911 25.5279 14.1879 25.2856 14.1848 25.0433C14.1841 24.8893 14.1835 24.7354 14.183 24.5814C14.1817 24.509 14.1805 24.4365 14.1792 24.3618C14.1807 23.8575 14.1807 23.8575 14.3487 23.582C14.623 23.3362 14.7832 23.3684 15.1389 23.4481Z" fill="#F14234"/>
<path d="M41.1257 46.0889C41.2755 46.1109 41.4253 46.1332 41.5751 46.1556C41.6585 46.168 41.7419 46.1804 41.8279 46.1932C42.0512 46.2313 42.0512 46.2313 42.2648 46.3025C42.2607 46.3929 42.2566 46.4833 42.2523 46.5764C42.2265 47.4034 42.3176 48.0254 42.6208 48.7944C42.6208 48.8413 42.6208 48.8883 42.6208 48.9367C39.12 48.9367 35.6193 48.9367 32.0125 48.9367C32.0125 48.9133 32.0125 48.8898 32.0125 48.8655C35.1373 48.8655 38.2621 48.8655 41.4817 48.8655C41.3642 48.6306 41.2467 48.3956 41.1257 48.1536C41.0094 47.863 40.9652 47.7502 40.9644 47.4614C40.9641 47.3686 40.9641 47.3686 40.9638 47.274C40.9644 47.2104 40.9649 47.1468 40.9655 47.0812C40.9646 46.9853 40.9646 46.9853 40.9638 46.8875C40.964 46.8257 40.9642 46.764 40.9644 46.7004C40.9645 46.6445 40.9647 46.5886 40.9648 46.531C40.9852 46.3568 41.0389 46.2401 41.1257 46.0889Z" fill="#B71E1D"/>
<path d="M34.291 42.1731C36.6875 42.1731 39.084 42.1731 41.5531 42.1731C41.5531 43.0659 41.5531 43.9587 41.5531 44.8786C41.1234 44.8249 40.6962 44.7499 40.2716 44.665C40.2951 43.8662 40.3186 43.0673 40.3428 42.2443C38.3457 42.2443 36.3486 42.2443 34.291 42.2443C34.291 42.2208 34.291 42.1973 34.291 42.1731Z" fill="#334249"/>
<path d="M33.0095 39.1826C33.033 39.1826 33.0565 39.1826 33.0807 39.1826C33.0807 39.77 33.0807 40.3574 33.0807 40.9625C35.8766 40.9625 38.6725 40.9625 41.5532 40.9625C41.5532 40.3752 41.5532 39.7878 41.5532 39.1826C41.9526 39.1826 42.352 39.1826 42.7635 39.1826C42.7635 39.7935 42.7635 40.4044 42.7635 41.0337C39.5447 41.0337 36.3259 41.0337 33.0095 41.0337C33.0095 40.4229 33.0095 39.812 33.0095 39.1826Z" fill="#696969"/>
<path d="M36.142 22.3801C36.6246 22.6689 37.1971 23.2646 37.3382 23.8116C37.3567 24.0814 37.2825 24.2191 37.1388 24.4449C36.889 24.6114 36.792 24.6166 36.498 24.5872C36.1973 24.4396 36.023 24.2523 35.8172 23.991C35.7642 23.9243 35.7113 23.8577 35.6567 23.7891C35.6054 23.7235 35.5541 23.658 35.5012 23.5905C35.4484 23.5279 35.3955 23.4653 35.341 23.4008C35.2165 23.2345 35.2165 23.2345 35.1853 23.0209C35.2202 22.7815 35.2864 22.6447 35.43 22.4513C35.6659 22.3334 35.889 22.3274 36.142 22.3801Z" fill="#A4C400"/>
<path d="M39.8442 28.788C40.1392 29.0076 40.2226 29.2884 40.3204 29.629C40.343 29.7023 40.343 29.7023 40.3661 29.7771C40.6051 30.5739 40.6051 30.5739 40.4717 30.9462C40.3376 31.1449 40.2849 31.215 40.0578 31.2799C39.8487 31.311 39.8487 31.311 39.6306 31.2799C39.2731 30.9996 39.1802 30.7147 39.0744 30.292C39.059 30.2367 39.0437 30.1813 39.0278 30.1243C38.9399 29.7922 38.8896 29.4901 38.9187 29.144C39.1834 28.7552 39.4046 28.7252 39.8442 28.788Z" fill="#A3C400"/>
<path d="M34.5045 25.5841C34.9392 25.9242 35.3372 26.5795 35.474 27.106C35.4907 27.3652 35.4305 27.5057 35.2877 27.72C35.0532 27.8764 34.9227 27.9259 34.6449 27.9041C34.2111 27.7753 33.9828 27.2242 33.7658 26.8612C33.7403 26.8193 33.7148 26.7773 33.6885 26.7341C33.5309 26.4583 33.4685 26.2565 33.5077 25.9401C33.7796 25.5183 34.0228 25.4535 34.5045 25.5841Z" fill="#A4C400"/>
<path d="M31.8701 22.8786C32.053 22.9834 32.1889 23.0745 32.3462 23.2079C32.3848 23.2383 32.4234 23.2687 32.4632 23.2999C32.7545 23.5354 33.0833 23.8067 33.2014 24.1716C33.1996 24.4655 33.1593 24.5786 32.9648 24.8009C32.6031 25.0153 32.6031 25.0153 32.2973 24.9433C32.0655 24.7976 31.8625 24.6247 31.6565 24.4449C31.5968 24.3938 31.537 24.3427 31.4755 24.29C30.9537 23.8363 30.9537 23.8363 30.9268 23.5327C30.9467 23.2779 31.007 23.1533 31.1581 22.9498C31.3884 22.8347 31.621 22.841 31.8701 22.8786Z" fill="#A4C400"/>
<path d="M38.349 25.3705C38.7049 25.593 38.8606 25.8894 39.0476 26.2516C39.0911 26.3309 39.0911 26.3309 39.1354 26.4118C39.2942 26.7139 39.396 26.9431 39.3458 27.2928C39.2176 27.485 39.1262 27.6162 38.9186 27.72C38.5067 27.7599 38.5067 27.7599 38.349 27.72C38.1008 27.4625 37.932 27.1554 37.7616 26.8434C37.7358 26.7988 37.7099 26.7543 37.6832 26.7084C37.496 26.3653 37.4564 26.1169 37.4946 25.7265C37.7349 25.377 37.9327 25.3036 38.349 25.3705Z" fill="#A4C400"/>
<path d="M29.8036 18.8429C29.9493 18.8732 30.0932 18.9081 30.2374 18.9449C30.2859 18.9561 30.3344 18.9672 30.3844 18.9788C30.7115 19.0605 30.9643 19.1728 31.2297 19.3898C31.3207 19.579 31.3268 19.7519 31.3009 19.9594C31.1753 20.163 31.0876 20.2796 30.8737 20.3866C30.4338 20.4118 30.0633 20.346 29.6411 20.2264C29.5844 20.2118 29.5276 20.1972 29.4691 20.1822C29.2278 20.1152 29.0623 20.0686 28.8794 19.8935C28.7662 19.6561 28.7564 19.4293 28.809 19.1762C29.0836 18.7769 29.344 18.7686 29.8036 18.8429Z" fill="#A3C400"/>
<path d="M30.3749 25.8689C30.6178 26.0539 30.8133 26.2816 31.0157 26.5096C31.083 26.5834 31.083 26.5834 31.1517 26.6587C31.3456 26.8897 31.4696 27.0711 31.4874 27.3774C31.4374 27.6824 31.3937 27.8054 31.1581 28.0048C30.8675 28.0963 30.7243 28.1056 30.4461 27.9781C30.2113 27.7726 30.0334 27.5552 29.8487 27.3048C29.7306 27.1404 29.7306 27.1404 29.5651 26.9635C29.4099 26.7367 29.3831 26.5695 29.3782 26.296C29.4707 26.0648 29.5426 25.9693 29.7564 25.8422C29.9929 25.7872 30.1397 25.8089 30.3749 25.8689Z" fill="#A4C400"/>
<path d="M32.1505 28.876C32.4354 28.9812 32.5931 29.2354 32.7228 29.4979C32.7855 29.6498 32.8406 29.8026 32.8937 29.9581C32.913 30.0097 32.9324 30.0614 32.9523 30.1146C33.072 30.4562 33.1014 30.7059 33.0094 31.0661C32.814 31.2902 32.6979 31.3438 32.4042 31.391C32.083 31.3393 32.007 31.2418 31.799 30.9949C31.7021 30.8153 31.6316 30.6307 31.5632 30.4387C31.5444 30.3907 31.5256 30.3428 31.5063 30.2934C31.3779 29.9449 31.3422 29.6574 31.3718 29.2862C31.5885 28.9612 31.7796 28.8902 32.1505 28.876Z" fill="#A4C400"/>
<path d="M27.3136 23.8755C27.5362 23.9431 27.7381 24.0381 27.9455 24.1425C27.9986 24.1673 28.0516 24.1921 28.1063 24.2176C28.5933 24.4541 28.5933 24.4541 28.7376 24.7299C28.7747 25.0215 28.7673 25.1756 28.6219 25.4329C28.4055 25.6265 28.3171 25.6608 28.0256 25.6554C27.7771 25.5835 27.5478 25.4799 27.3136 25.3706C27.2375 25.3362 27.1613 25.3018 27.0828 25.2663C26.4888 24.9864 26.4888 24.9864 26.363 24.8033C26.2886 24.57 26.3295 24.3947 26.3881 24.1603C26.6119 23.7966 26.9268 23.8306 27.3136 23.8755Z" fill="#A4C400"/>
<path d="M28.5239 21.3123C29.5319 21.594 29.5319 21.594 29.9479 21.8818C30.0629 22.1119 30.06 22.3451 30.0191 22.5938C29.8767 22.8074 29.8767 22.8074 29.6631 22.9498C29.2216 22.9858 28.8826 22.9063 28.4705 22.754C28.4177 22.736 28.365 22.718 28.3106 22.6995C28.0153 22.5935 27.7914 22.4974 27.5984 22.2378C27.5482 21.8866 27.5435 21.7505 27.7407 21.4547C28.0199 21.2686 28.2041 21.2508 28.5239 21.3123Z" fill="#A4C400"/>
<path d="M33.2943 20.1731C33.4797 20.2575 33.6431 20.3644 33.8104 20.4801C33.853 20.5079 33.8956 20.5358 33.9395 20.5645C34.5313 20.9593 34.5313 20.9593 34.6426 21.3078C34.6479 21.5693 34.5885 21.675 34.4334 21.8818C34.291 22.0242 34.291 22.0242 34.0391 22.0567C33.6485 22.0466 33.373 21.8544 33.054 21.6459C32.9966 21.6104 32.9393 21.5748 32.8802 21.5382C32.4615 21.2735 32.4615 21.2735 32.2975 21.0274C32.2492 20.5206 32.2492 20.5206 32.431 20.2843C32.7234 20.0693 32.9499 20.0894 33.2943 20.1731Z" fill="#A4C400"/>
<path d="M36.071 28.8592C36.5637 29.2633 36.7204 29.8906 36.8177 30.5011C36.8337 30.8083 36.8301 30.9414 36.6228 31.1775C36.2375 31.3789 36.2375 31.3789 35.9598 31.2976C35.6027 31.1145 35.518 30.887 35.3985 30.5198C35.3796 30.4593 35.3607 30.3988 35.3412 30.3365C35.3212 30.2771 35.3012 30.2177 35.2806 30.1566C35.1656 29.7939 35.1166 29.5223 35.2166 29.1439C35.4727 28.8502 35.6896 28.7979 36.071 28.8592Z" fill="#A4C400"/>
<path d="M33.2942 32.4902C33.5429 32.6408 33.6004 32.8111 33.668 33.0821C33.7943 33.7889 33.7943 33.7889 33.579 34.1589C33.3408 34.3624 33.2371 34.4024 32.9335 34.3789C32.696 34.3141 32.5838 34.1774 32.4398 33.9854C32.3176 33.6218 32.3244 33.2233 32.3686 32.8462C32.6139 32.4476 32.8603 32.4283 33.2942 32.4902Z" fill="#A4C400"/>
<path d="M24.2523 23.3415C24.3098 23.3404 24.3672 23.3393 24.4264 23.3381C24.6961 23.3399 24.8476 23.3456 25.0733 23.5017C25.244 23.7632 25.2338 24.0013 25.1779 24.3026C25.0214 24.5185 24.9323 24.5744 24.6795 24.6586C24.5403 24.6671 24.4007 24.6711 24.2612 24.672C24.188 24.673 24.1147 24.674 24.0393 24.675C23.8169 24.658 23.6662 24.6196 23.4692 24.5162C23.3239 24.2983 23.3043 24.2361 23.3001 23.9867C23.298 23.9325 23.296 23.8782 23.2939 23.8223C23.3989 23.3089 23.8218 23.3332 24.2523 23.3415Z" fill="#A5C400"/>
<path d="M40.6276 32.4902C40.8006 32.6233 40.8868 32.7238 40.9835 32.9174C40.9942 33.0788 40.9993 33.2406 41.0013 33.4024C41.0032 33.4895 41.005 33.5766 41.0069 33.6663C40.982 33.9302 40.9291 34.0611 40.7699 34.2701C40.5451 34.3825 40.2996 34.3996 40.058 34.3413C39.7952 34.146 39.7114 34.0395 39.6547 33.7139C39.6538 33.6145 39.6547 33.5151 39.6575 33.4157C39.6561 33.366 39.6547 33.3162 39.6533 33.265C39.6559 32.9876 39.6942 32.8562 39.8647 32.6351C40.1543 32.418 40.2735 32.4396 40.6276 32.4902Z" fill="#A4C400"/>
<path d="M36.9253 32.4901C37.1794 32.6685 37.2651 32.7801 37.3391 33.0819C37.3435 33.1686 37.3479 33.2552 37.3525 33.3445C37.3552 33.3935 37.358 33.4425 37.3608 33.493C37.3698 33.7625 37.3723 33.9768 37.2101 34.1988C36.9845 34.3492 36.8447 34.3648 36.5788 34.381C36.3306 34.316 36.2269 34.1843 36.0709 33.9852C36.0131 33.7294 36.0131 33.7294 35.9997 33.4513C35.9939 33.3595 35.988 33.2677 35.9819 33.1732C36.0008 32.9015 36.048 32.7743 36.2133 32.5613C36.4432 32.4464 36.6767 32.4487 36.9253 32.4901Z" fill="#A4C300"/>
<path d="M25.4626 20.9206C25.52 20.9195 25.5775 20.9184 25.6367 20.9172C25.9064 20.919 26.0578 20.9247 26.2836 21.0808C26.4545 21.3426 26.4436 21.5802 26.3882 21.8817C26.2239 22.1163 26.0924 22.1849 25.8186 22.2377C25.3872 22.2679 24.9878 22.2874 24.6366 22.003C24.5104 21.8493 24.5062 21.7628 24.5059 21.5658C24.5045 21.5116 24.5031 21.4573 24.5017 21.4014C24.6144 20.8894 25.0287 20.9123 25.4626 20.9206Z" fill="#A4C400"/>
<path d="M26.6642 18.4467C26.774 18.444 26.774 18.444 26.8861 18.4412C27.1972 18.4751 27.3806 18.6024 27.5986 18.8205C27.6552 19.314 27.6552 19.314 27.4543 19.5839C27.1919 19.7849 26.9909 19.7994 26.6731 19.7906C26.5984 19.7926 26.5984 19.7926 26.5223 19.7947C26.2449 19.7921 26.1135 19.7538 25.8924 19.5834C25.6753 19.2938 25.6969 19.1746 25.7475 18.8205C25.9992 18.4819 26.2607 18.4528 26.6642 18.4467)" fill="#A3C400"/>
<path d="M28.2837 45.2256C28.5725 45.3218 28.6682 45.3921 28.8088 45.6617C28.8088 45.9383 28.7758 46.1005 28.6264 46.3336C28.4132 46.4702 28.2692 46.4905 28.019 46.4765C27.8832 46.4448 27.8832 46.4448 27.7053 46.298C27.5694 46.0319 27.5458 45.8854 27.5985 45.5905C27.8216 45.3293 27.9374 45.2375 28.2837 45.2256Z" fill="#5C7885"/>
<path d="M46.1096 46.5162C46.2876 46.6275 46.2876 46.6275 46.3944 46.801C46.4365 47.0906 46.4209 47.2474 46.2876 47.5085C46.0709 47.6873 45.9499 47.7043 45.6754 47.6848C45.54 47.6554 45.54 47.6554 45.3665 47.5441C45.2158 47.3091 45.1791 47.1517 45.184 46.8722C45.4423 46.4806 45.6735 46.4539 46.1096 46.5162Z" fill="#030304"/>
<path d="M39.8445 36.9045C40.5995 37.095 41.2981 37.4152 41.9092 37.9013C41.9092 37.9248 41.9092 37.9483 41.9092 37.9725C41.103 38.0489 41.103 38.0489 40.8337 37.8765C40.7549 37.7913 40.679 37.7033 40.6062 37.6129C40.425 37.405 40.201 37.2793 39.9671 37.1368C39.9267 37.1071 39.8862 37.0775 39.8445 37.0469C39.8445 36.9999 39.8445 36.953 39.8445 36.9045Z" fill="#C11D1D"/>
</svg>
