<svg width="66" height="66" viewBox="0 0 66 66" fill="none" xmlns="http://www.w3.org/2000/svg">
<path d="M32.6826 65.1826C50.6319 65.1826 65.1826 50.6319 65.1826 32.6826C65.1826 14.7334 50.6319 0.182617 32.6826 0.182617C14.7334 0.182617 0.182617 14.7334 0.182617 32.6826C0.182617 50.6319 14.7334 65.1826 32.6826 65.1826Z" fill="#DCEEC8"/>
<mask id="mask_pg" style="mask-type:luminance" maskUnits="userSpaceOnUse" x="0" y="0" width="66" height="66">
<path d="M32.6826 65.1826C50.6319 65.1826 65.1826 50.6319 65.1826 32.6826C65.1826 14.7334 50.6319 0.182617 32.6826 0.182617C14.7334 0.182617 0.182617 14.7334 0.182617 32.6826C0.182617 50.6319 14.7334 65.1826 32.6826 65.1826Z" fill="white"/>
</mask>
<g mask="url(#mask_pg)">
<path d="M32.6827 67.3736C51.842 67.3736 67.3737 58.3816 67.3737 47.2893C67.3737 36.1971 51.842 27.2051 32.6827 27.2051C13.5234 27.2051 -2.0083 36.1971 -2.0083 47.2893C-2.0083 58.3816 13.5234 67.3736 32.6827 67.3736Z" fill="#A1683E"/>
<path d="M65.1826 47.2893H0.182617V69.1994H65.1826V47.2893Z" fill="#8B5A33"/>
<path opacity="0.85" d="M14.5 11C18.9 11 22.5 9.5 22.5 7.7C22.5 5.9 18.9 4.4 14.5 4.4C10.1 4.4 6.5 5.9 6.5 7.7C6.5 9.5 10.1 11 14.5 11Z" fill="white"/>
<path opacity="0.85" d="M50 8C53.2 8 55.8 6.9 55.8 5.5C55.8 4.1 53.2 3 50 3C46.8 3 44.2 4.1 44.2 5.5C44.2 6.9 46.8 8 50 8Z" fill="white"/>
<rect x="32" y="32" width="2.5" height="14" fill="#5D4037" rx="0.4"/>
<circle cx="33.3" cy="28" r="6" fill="#4CAF50"/>
<circle cx="29" cy="26" r="4" fill="#66BB6A"/>
<circle cx="38" cy="26" r="4" fill="#66BB6A"/>
<circle cx="33.3" cy="22" r="4" fill="#81C784"/>
<circle cx="30" cy="30" r="2" fill="#388E3C" opacity="0.5"/>
<circle cx="36.5" cy="30" r="2" fill="#388E3C" opacity="0.5"/>
<path d="M30 46 Q 28 50 24 50 L 24 52 Q 28 52 30 50 Z" fill="#5D4037"/>
<path d="M36.5 46 Q 38 50 42 50 L 42 52 Q 38 52 36 50 Z" fill="#5D4037"/>
<path d="M33.3 46 L 33.3 53 L 32.5 52 L 33.3 53 L 34 52 Z" fill="#5D4037"/>
<path d="M14 36 L 14 30 L 17 32 L 17 38 Z" fill="#90A4AE" stroke="#37474F" stroke-width="0.4"/>
<path d="M14 38 L 17 38 L 16 41 L 13 41 Z" fill="#78909C" stroke="#37474F" stroke-width="0.4"/>
<rect x="13" y="40" width="2" height="9" fill="#5D4037" transform="rotate(15 14 44)"/>
<line x1="11" y1="48" x2="20" y2="48" stroke="#5D4037" stroke-width="0.3" opacity="0.5"/>
<line x1="13" y1="50" x2="22" y2="50" stroke="#5D4037" stroke-width="0.3" opacity="0.5"/>
<circle cx="50" cy="38" r="1.2" fill="#1E88E5"/>
<circle cx="48" cy="42" r="1" fill="#1E88E5"/>
<circle cx="52" cy="42" r="1" fill="#1E88E5"/>
<circle cx="50" cy="46" r="1.2" fill="#1E88E5"/>
<circle cx="46" cy="46" r="0.9" fill="#1E88E5" opacity="0.7"/>
<circle cx="54" cy="46" r="0.9" fill="#1E88E5" opacity="0.7"/>
</g>
<path d="M32.6826 65.1826C50.6319 65.1826 65.1826 50.6319 65.1826 32.6826C65.1826 14.7334 50.6319 0.182617 32.6826 0.182617C14.7334 0.182617 0.182617 14.7334 0.182617 32.6826C0.182617 50.6319 14.7334 65.1826 32.6826 65.1826Z" stroke="#E0E0E0" stroke-width="0.365169"/>
</svg>
