<svg width="66" height="66" viewBox="0 0 66 66" fill="none" xmlns="http://www.w3.org/2000/svg">
<path d="M32.6826 65.1826C50.6319 65.1826 65.1826 50.6319 65.1826 32.6826C65.1826 14.7334 50.6319 0.182617 32.6826 0.182617C14.7334 0.182617 0.182617 14.7334 0.182617 32.6826C0.182617 50.6319 14.7334 65.1826 32.6826 65.1826Z" fill="#C8E6C9"/>
<mask id="mask_at" style="mask-type:luminance" maskUnits="userSpaceOnUse" x="0" y="0" width="66" height="66">
<path d="M32.6826 65.1826C50.6319 65.1826 65.1826 50.6319 65.1826 32.6826C65.1826 14.7334 50.6319 0.182617 32.6826 0.182617C14.7334 0.182617 0.182617 14.7334 0.182617 32.6826C0.182617 50.6319 14.7334 65.1826 32.6826 65.1826Z" fill="white"/>
</mask>
<g mask="url(#mask_at)">
<path d="M32.6827 67.3736C51.842 67.3736 67.3737 58.3816 67.3737 47.2893C67.3737 36.1971 51.842 27.2051 32.6827 27.2051C13.5234 27.2051 -2.0083 36.1971 -2.0083 47.2893C-2.0083 58.3816 13.5234 67.3736 32.6827 67.3736Z" fill="#6ABF3A"/>
<path d="M65.1826 47.2893H0.182617V69.1994H65.1826V47.2893Z" fill="#5AAD2E"/>
<path opacity="0.85" d="M14.5 11C18.9 11 22.5 9.5 22.5 7.7C22.5 5.9 18.9 4.4 14.5 4.4C10.1 4.4 6.5 5.9 6.5 7.7C6.5 9.5 10.1 11 14.5 11Z" fill="white"/>
<path opacity="0.85" d="M50 8C53.2 8 55.8 6.9 55.8 5.5C55.8 4.1 53.2 3 50 3C46.8 3 44.2 4.1 44.2 5.5C44.2 6.9 46.8 8 50 8Z" fill="white"/>
<rect x="11" y="34" width="44" height="11" rx="0.5" fill="#4CAF50" stroke="#2E7D32" stroke-width="0.5"/>
<rect x="11" y="34" width="44" height="2" fill="#388E3C"/>
<path d="M14 34 L 14 30 L 13 32 L 12.5 30 L 12 32 Z" fill="#66BB6A"/>
<path d="M18 34 L 18 29 L 17 31 L 16.5 28.5 L 16 31 Z" fill="#7CB342"/>
<path d="M22 34 L 22 30 L 21 32 L 20.5 30 L 20 32 Z" fill="#66BB6A"/>
<path d="M26 34 L 26 28 L 25 30.5 L 24.5 28 L 24 30.5 Z" fill="#7CB342"/>
<path d="M30 34 L 30 29 L 29 31 L 28.5 28.5 L 28 31 Z" fill="#66BB6A"/>
<path d="M34 34 L 34 27 L 33 30 L 32.5 27 L 32 30 Z" fill="#7CB342"/>
<path d="M38 34 L 38 29 L 37 31 L 36.5 28.5 L 36 31 Z" fill="#66BB6A"/>
<path d="M42 34 L 42 28 L 41 30.5 L 40.5 28 L 40 30.5 Z" fill="#7CB342"/>
<path d="M46 34 L 46 30 L 45 32 L 44.5 30 L 44 32 Z" fill="#66BB6A"/>
<path d="M50 34 L 50 29 L 49 31 L 48.5 28.5 L 48 31 Z" fill="#7CB342"/>
<path d="M54 34 L 54 30 L 53 32 L 52.5 30 L 52 32 Z" fill="#66BB6A"/>
<rect x="42" y="20" width="14" height="20" rx="1" fill="#7CB342" stroke="#33691E" stroke-width="0.4" transform="rotate(-15 49 30)"/>
<rect x="42" y="20" width="14" height="3" fill="#5D4037" transform="rotate(-15 49 30)"/>
<line x1="44" y1="25" x2="56" y2="22" stroke="#33691E" stroke-width="0.3" transform="rotate(-15 49 30)"/>
<line x1="44" y1="29" x2="56" y2="26" stroke="#33691E" stroke-width="0.3" transform="rotate(-15 49 30)"/>
<line x1="44" y1="33" x2="56" y2="30" stroke="#33691E" stroke-width="0.3" transform="rotate(-15 49 30)"/>
<line x1="44" y1="37" x2="56" y2="34" stroke="#33691E" stroke-width="0.3" transform="rotate(-15 49 30)"/>
</g>
<path d="M32.6826 65.1826C50.6319 65.1826 65.1826 50.6319 65.1826 32.6826C65.1826 14.7334 50.6319 0.182617 32.6826 0.182617C14.7334 0.182617 0.182617 14.7334 0.182617 32.6826C0.182617 50.6319 14.7334 65.1826 32.6826 65.1826Z" stroke="#E0E0E0" stroke-width="0.365169"/>
</svg>
