<svg width="65" height="65" viewBox="0 0 65 65" fill="none" xmlns="http://www.w3.org/2000/svg">
  <defs>
    <clipPath id="circleClip">
      <circle cx="32.5" cy="32.5" r="32.5"/>
    </clipPath>
  </defs>
  <!-- Circle background -->
  <path id="Vector" d="M32.5 65C50.4493 65 65 50.4493 65 32.5C65 14.5507 50.4493 0 32.5 0C14.5507 0 0 14.5507 0 32.5C0 50.4493 14.5507 65 32.5 65Z" fill="#B8DFF0"/>
  <!-- Landscape clipped to circle -->
  <g clip-path="url(#circleClip)">
    <svg x="-2.19" y="9.13" width="69.382" height="59.888" viewBox="0 0 69.3821 59.8877" overflow="visible">
      <g id="Group">
<path id="Vector" d="M34.691 58.0619C53.8503 58.0619 69.382 49.0698 69.382 37.9776C69.382 26.8854 53.8503 17.8933 34.691 17.8933C15.5317 17.8933 0 26.8854 0 37.9776C0 49.0698 15.5317 58.0619 34.691 58.0619Z" fill="#6ABF3A"/>
<path id="Vector_2" d="M67.191 37.9776H2.19101V59.8877H67.191V37.9776Z" fill="#5AAD2E"/>
<path id="Vector_3" d="M12.0506 39.4383C14.4707 39.4383 16.4326 35.8415 16.4326 31.4046C16.4326 26.9677 14.4707 23.3708 12.0506 23.3708C9.63044 23.3708 7.66854 26.9677 7.66854 31.4046C7.66854 35.8415 9.63044 39.4383 12.0506 39.4383Z" fill="#57C04A"/>
<path id="Vector_4" d="M57.3315 40.8989C59.3482 40.8989 60.9831 37.6291 60.9831 33.5956C60.9831 29.562 59.3482 26.2922 57.3315 26.2922C55.3147 26.2922 53.6798 29.562 53.6798 33.5956C53.6798 37.6291 55.3147 40.8989 57.3315 40.8989Z" fill="#57C04A"/>
<path id="Vector_5" opacity="0.85" d="M23.736 8.03377C27.7695 8.03377 31.0393 6.72584 31.0393 5.11242C31.0393 3.49901 27.7695 2.19107 23.736 2.19107C19.7024 2.19107 16.4326 3.49901 16.4326 5.11242C16.4326 6.72584 19.7024 8.03377 23.736 8.03377Z" fill="white"/>
<path id="Vector_6" opacity="0.85" d="M46.7416 4.38209C49.5651 4.38209 51.8539 3.40114 51.8539 2.19107C51.8539 0.981012 49.5651 6.30925e-05 46.7416 6.30925e-05C43.9181 6.30925e-05 41.6292 0.981012 41.6292 2.19107C41.6292 3.40114 43.9181 4.38209 46.7416 4.38209Z" fill="white"/>
</g>
    </svg>
  </g>
  <!-- Stones detail -->
  <svg x="16.43" y="19.35" width="32.136" height="32.135" viewBox="0 0 32.1365 32.1349" overflow="visible">
    <g id="Group 33948">
<path id="Vector" d="M8.55768 0.0133868C8.68113 0.0127423 8.68113 0.0127423 8.80707 0.0120847C9.03217 0.0109637 9.25725 0.0110348 9.48234 0.0113924C9.6706 0.0115862 9.85885 0.0112042 10.0471 0.0108265C10.4915 0.0099477 10.9358 0.0100443 11.3801 0.0107577C11.8377 0.0114762 12.2953 0.0105958 12.7529 0.00891719C13.1465 0.00752769 13.54 0.00711489 13.9336 0.00748195C14.1684 0.00769249 14.4031 0.00754455 14.6379 0.00646447C14.8998 0.00531172 15.1618 0.00619868 15.4237 0.00727258C15.501 0.00666727 15.5782 0.00606195 15.6578 0.0054383C16.2141 0.0102096 16.6027 0.108729 17.0125 0.508504C17.0551 0.549363 17.0976 0.590221 17.1414 0.632318C17.1851 0.675315 17.2287 0.718312 17.2737 0.762613C17.3676 0.85306 17.4615 0.94347 17.5554 1.03384C17.6009 1.07788 17.6463 1.12191 17.6931 1.16728C17.8638 1.33152 18.0378 1.49142 18.2129 1.65089C18.4679 1.88365 18.7223 2.11704 18.9759 2.35134C19.0097 2.3826 19.0436 2.41385 19.0784 2.44605C19.147 2.50936 19.2155 2.57267 19.284 2.63599C19.4539 2.79291 19.6238 2.94974 19.7938 3.10657C19.8616 3.16918 19.9294 3.23179 19.9972 3.2944C20.0476 3.34089 20.0476 3.34089 20.099 3.38832C20.472 3.73267 20.8451 4.07703 21.2181 4.42138C21.2517 4.45241 21.2854 4.48344 21.32 4.51541C21.3874 4.57763 21.4548 4.63988 21.5221 4.70217C21.6981 4.86484 21.8746 5.0269 22.0519 5.18811C22.1068 5.23829 22.1068 5.23829 22.1629 5.28949C22.2326 5.3531 22.3025 5.41654 22.3725 5.47976C22.7644 5.83827 22.997 6.12464 23.0353 6.6679C23.0366 6.76064 23.0373 6.85339 23.0374 6.94614C23.0379 6.9971 23.0384 7.04806 23.0389 7.10056C23.0404 7.26828 23.041 7.436 23.0414 7.60373C23.042 7.72101 23.0425 7.83829 23.0431 7.95557C23.0441 8.20125 23.0446 8.44691 23.0448 8.69259C23.0451 9.00613 23.0475 9.31962 23.0504 9.63314C23.0522 9.8754 23.0527 10.1176 23.0527 10.3599C23.053 10.4754 23.0538 10.5909 23.0551 10.7065C23.0677 11.9152 23.0677 11.9152 22.7051 12.3729C22.3437 12.7109 22.0037 12.8884 21.5025 12.8919C21.4254 12.8927 21.3482 12.8935 21.2688 12.8943C21.185 12.8945 21.1013 12.8947 21.0176 12.8948C20.9309 12.8952 20.8443 12.8956 20.7577 12.896C20.5762 12.8968 20.3947 12.897 20.2133 12.8969C19.9821 12.8969 19.7509 12.8986 19.5197 12.9008C19.3407 12.9022 19.1617 12.9024 18.9827 12.9024C18.8565 12.9026 18.7302 12.9039 18.604 12.9053C18.0041 12.9024 17.5858 12.788 17.0983 12.4379C17.0501 12.4037 17.0019 12.3695 16.9522 12.3342C16.9021 12.2979 16.8519 12.2616 16.8002 12.2242C16.6896 12.1454 16.579 12.0666 16.4683 11.9879C16.4123 11.9478 16.3564 11.9077 16.2987 11.8664C16.0355 11.6785 15.7702 11.4936 15.505 11.3085C15.4009 11.2356 15.2967 11.1627 15.1927 11.0898C14.9815 10.9421 14.7704 10.7943 14.5592 10.6467C14.5067 10.6098 14.4542 10.5729 14.4001 10.535C14.294 10.461 14.1874 10.3878 14.0803 10.3154C13.8353 10.1483 13.6092 9.98393 13.3995 9.7738C12.6215 9.03896 11.6294 9.16223 10.6233 9.17925C10.5748 9.18092 10.5264 9.18259 10.4764 9.18431C9.922 9.19792 9.4271 9.10029 8.99353 8.74147C8.62828 8.31797 8.47639 7.81513 8.31558 7.28946C8.28822 7.20239 8.26077 7.11535 8.23326 7.02834C8.16107 6.79931 8.08995 6.56995 8.01907 6.34051C7.94907 6.11454 7.87806 5.88887 7.80712 5.66319C7.72261 5.39422 7.63837 5.12517 7.5553 4.85575C7.42923 4.44719 7.302 4.0393 7.16687 3.63364C7.10731 3.45465 7.04875 3.27534 6.99023 3.096C6.96265 3.01246 6.9346 2.92908 6.906 2.84588C6.68925 2.21465 6.50256 1.46388 6.77479 0.817396C6.92523 0.572869 7.1282 0.385611 7.36567 0.226515C7.41337 0.194334 7.46107 0.162154 7.51021 0.128999C7.85675 -0.00641953 8.18876 0.0120449 8.55768 0.0133868Z" fill="#DEC39B"/>
<path id="Vector_2" d="M19.0531 13.8654C19.1341 13.8649 19.1341 13.8649 19.2168 13.8644C19.395 13.8635 19.5732 13.8631 19.7514 13.8628C19.8758 13.8624 20.0002 13.862 20.1246 13.8617C20.3854 13.861 20.6462 13.8607 20.907 13.8604C21.2399 13.8601 21.5729 13.8586 21.9058 13.8568C22.1629 13.8556 22.4199 13.8553 22.6769 13.8552C22.7996 13.855 22.9223 13.8545 23.045 13.8537C24.6027 13.844 24.6027 13.844 25.1662 14.3825C25.4881 14.7445 25.6052 15.1152 25.599 15.592C25.5727 15.8995 25.4819 16.1891 25.3951 16.4841C25.3753 16.5535 25.3555 16.6229 25.3351 16.6945C25.2718 16.9159 25.2074 17.137 25.143 17.3582C25.1014 17.5032 25.0599 17.6484 25.0184 17.7935C24.916 18.1508 24.8115 18.5075 24.7065 18.864C24.6469 19.0691 24.5895 19.2747 24.5326 19.4805C24.4962 19.6083 24.4597 19.7362 24.4232 19.864C24.4079 19.9214 24.3926 19.9787 24.3768 20.0378C24.1911 20.6763 23.7475 21.1164 23.2861 21.5772C23.2169 21.6471 23.2169 21.6471 23.1462 21.7184C22.9951 21.8707 22.8435 22.0225 22.6919 22.1742C22.5858 22.2808 22.4797 22.3873 22.3736 22.4938C22.1518 22.7163 21.9298 22.9386 21.7076 23.1607C21.4237 23.4446 21.1407 23.7294 20.8578 24.0143C20.6392 24.2344 20.42 24.4538 20.2007 24.6731C20.0961 24.7778 19.9917 24.8827 19.8875 24.9879C19.7416 25.135 19.595 25.2813 19.4481 25.4274C19.4057 25.4705 19.3634 25.5136 19.3197 25.558C18.7749 26.0957 18.2881 26.2818 17.5264 26.2813C17.4795 26.2816 17.4326 26.2818 17.3843 26.282C17.2302 26.2826 17.0761 26.2827 16.922 26.2828C16.8143 26.283 16.7065 26.2832 16.5987 26.2834C16.3732 26.2838 16.1476 26.2839 15.9221 26.2839C15.6339 26.2838 15.3458 26.2847 15.0577 26.2858C14.8352 26.2865 14.6127 26.2866 14.3902 26.2866C14.2841 26.2866 14.1779 26.2869 14.0717 26.2874C13.9228 26.288 13.7739 26.2878 13.625 26.2875C13.5817 26.2878 13.5384 26.2882 13.4939 26.2885C12.9258 26.2849 12.444 26.1351 12.0262 25.7479C11.7781 25.4209 11.6462 25.0233 11.4979 24.6444C11.4763 24.5906 11.4547 24.5368 11.4324 24.4814C10.8864 23.1174 10.8864 23.1174 10.9971 22.5157C11.0035 22.4736 11.01 22.4316 11.0166 22.3882C11.13 21.9568 11.5007 21.6239 11.7892 21.2976C11.901 21.1694 12.007 21.0371 12.1123 20.9034C12.4474 20.481 12.7921 20.0663 13.1354 19.6505C13.3202 19.4265 13.5047 19.2024 13.6893 18.9782C13.7623 18.8895 13.8354 18.8008 13.9084 18.7121C13.9446 18.6682 13.9807 18.6243 14.018 18.579C14.4197 18.0912 14.8215 17.6034 15.2232 17.1155C15.2594 17.0716 15.2956 17.0277 15.3328 16.9824C15.4057 16.8939 15.4786 16.8054 15.5515 16.717C15.7366 16.4922 15.9216 16.2674 16.1064 16.0424C16.448 15.6264 16.7902 15.2109 17.1367 14.799C17.1891 14.7367 17.2415 14.6744 17.2955 14.6102C17.8177 14.0158 18.2767 13.8665 19.0531 13.8654Z" fill="#DEC39B"/>
<path id="Vector_3" d="M6.06068 10.1633C6.12455 10.1629 6.18842 10.1625 6.25423 10.162C6.46528 10.1608 6.67633 10.1606 6.88739 10.1605C7.03438 10.1601 7.18138 10.1596 7.32838 10.1592C7.63659 10.1584 7.94479 10.1582 8.253 10.1583C8.64719 10.1583 9.04134 10.1566 9.43552 10.1544C9.73921 10.153 10.0429 10.1528 10.3466 10.1529C10.4919 10.1527 10.6371 10.1522 10.7824 10.1512C10.9861 10.15 11.1896 10.1503 11.3933 10.1511C11.4528 10.1504 11.5124 10.1497 11.5737 10.1489C12.0887 10.1538 12.4927 10.3177 12.9099 10.6173C12.9582 10.6516 13.0065 10.6858 13.0562 10.7211C13.1314 10.7755 13.1314 10.7755 13.2081 10.8311C13.3178 10.9093 13.4275 10.9874 13.5373 11.0656C13.5931 11.1056 13.649 11.1457 13.7066 11.1869C13.876 11.3076 14.0463 11.4268 14.2172 11.5455C14.2999 11.603 14.2999 11.603 14.3844 11.6617C14.4889 11.7343 14.5935 11.8068 14.6982 11.8793C16.0076 12.7923 16.0076 12.7923 16.1938 13.3746C16.2654 14.1091 16.0871 14.5692 15.6303 15.1277C15.4883 15.2971 15.3457 15.4659 15.2022 15.6342C14.9907 15.8824 14.7855 16.1348 14.5828 16.3904C14.2859 16.7609 13.982 17.1258 13.6798 17.492C13.495 17.7159 13.3104 17.9401 13.1259 18.1643C13.0528 18.253 12.9798 18.3417 12.9067 18.4304C12.8706 18.4743 12.8344 18.5182 12.7972 18.5634C12.6876 18.6964 12.578 18.8295 12.4685 18.9625C12.4323 19.0065 12.3961 19.0504 12.3588 19.0957C12.2861 19.184 12.2133 19.2724 12.1405 19.3607C11.9535 19.5876 11.7669 19.8147 11.5809 20.0423C11.3985 20.2655 11.215 20.4878 11.0307 20.7093C10.9703 20.7821 10.9103 20.855 10.8506 20.9283C10.5473 21.3007 10.2839 21.5854 9.80755 21.7017C9.22716 21.7569 8.69069 21.6574 8.13393 21.5084C8.00711 21.4747 7.87986 21.4432 7.75243 21.4119C7.11567 21.2498 6.5986 21.0636 6.2514 20.4822C6.09556 20.1551 6.0281 19.8008 5.94897 19.449C5.92802 19.3591 5.90701 19.2691 5.88592 19.1792C5.82722 18.9276 5.76985 18.6756 5.71279 18.4236C5.67403 18.2526 5.63499 18.0816 5.59589 17.9107C5.40703 17.0848 5.22066 16.2584 5.03506 15.4317C4.94507 15.0311 4.85486 14.6305 4.76467 14.2299C4.69478 13.9195 4.62492 13.609 4.5552 13.2986C4.54252 13.2422 4.52985 13.1858 4.51679 13.1278C4.49322 13.0229 4.46967 12.918 4.44615 12.8132C4.38952 12.5596 4.38952 12.5596 4.32687 12.3075C4.20681 11.8002 4.24788 11.2668 4.50918 10.8154C4.92041 10.2777 5.41718 10.1627 6.06068 10.1633Z" fill="#FEDFB1"/>
<path id="Vector_4" d="M24.6149 22.2339C24.7108 22.2329 24.7108 22.2329 24.8086 22.232C25.4236 22.3279 25.7946 22.6799 26.2201 23.1109C26.2814 23.1719 26.3427 23.2328 26.4042 23.2936C26.5697 23.458 26.7342 23.6233 26.8985 23.7888C27.0712 23.9626 27.2447 24.1355 27.4181 24.3085C27.709 24.5992 27.9992 24.8904 28.2891 25.182C28.6235 25.5185 28.9589 25.8539 29.2949 26.1888C29.6191 26.5119 29.9425 26.8358 30.2656 27.16C30.4027 27.2975 30.54 27.4348 30.6776 27.5718C30.8397 27.7335 31.0011 27.8957 31.1621 28.0584C31.2491 28.1459 31.3366 28.2329 31.4241 28.3198C31.9185 28.8218 32.1283 29.2023 32.1341 29.9172C32.1331 30.0325 32.1331 30.0325 32.132 30.1502C32.1335 30.2268 32.135 30.3034 32.1365 30.3824C32.1357 30.9225 32.0527 31.3165 31.6701 31.7114C31.3387 32.019 31.0484 32.1104 30.5949 32.1121C30.5516 32.1125 30.5083 32.1128 30.4637 32.1131C30.3191 32.1141 30.1744 32.1141 30.0298 32.1142C29.9259 32.1146 29.822 32.1152 29.7181 32.1157C29.4361 32.1171 29.154 32.1177 28.872 32.118C28.6957 32.1182 28.5193 32.1186 28.3429 32.1191C27.7272 32.1206 27.1115 32.1214 26.4957 32.1216C25.9226 32.1219 25.3495 32.1237 24.7763 32.1263C24.2837 32.1285 23.7911 32.1295 23.2984 32.1295C23.0044 32.1296 22.7105 32.1301 22.4165 32.1319C22.1398 32.1336 21.8631 32.1337 21.5863 32.1327C21.4851 32.1326 21.3839 32.133 21.2827 32.134C20.7267 32.1391 20.2272 32.1317 19.7626 31.7819C19.431 31.4294 19.2476 31.088 19.2426 30.5976C19.2416 30.5244 19.2406 30.4512 19.2395 30.3758C19.2392 30.2972 19.2388 30.2187 19.2385 30.1377C19.2379 30.0562 19.2374 29.9748 19.2368 29.8909C19.2358 29.7185 19.2353 29.5461 19.2351 29.3738C19.2348 29.1545 19.2324 28.9353 19.2295 28.716C19.2272 28.5051 19.2271 28.2942 19.2268 28.0833C19.2255 28.0053 19.2243 27.9274 19.2231 27.8471C19.2283 26.8212 19.7872 26.3256 20.4758 25.6427C20.5653 25.553 20.6547 25.4633 20.7441 25.3735C20.931 25.1862 21.1184 24.9994 21.3062 24.8131C21.5461 24.575 21.7845 24.3355 22.0225 24.0956C22.2067 23.9103 22.3917 23.7257 22.5769 23.5413C22.6651 23.4533 22.753 23.3651 22.8407 23.2767C22.9637 23.1529 23.0876 23.0302 23.2119 22.9077C23.2474 22.8716 23.2829 22.8354 23.3195 22.7981C23.6814 22.4456 24.1017 22.2287 24.6149 22.2339Z" fill="#FEDFB1"/>
<path id="Vector_5" d="M7.19363 22.2056C7.24732 22.2189 7.30102 22.2322 7.35633 22.2459C7.46921 22.274 7.58202 22.3025 7.69476 22.3312C7.86599 22.3746 8.03751 22.4169 8.20909 22.459C8.31933 22.4866 8.42955 22.5143 8.53975 22.5421C8.59037 22.5545 8.641 22.5669 8.69315 22.5797C9.28417 22.7323 9.70472 22.9394 10.058 23.4548C10.1582 23.6454 10.2327 23.8399 10.3041 24.0428C10.3242 24.0971 10.3442 24.1514 10.3649 24.2073C10.428 24.3787 10.4896 24.5507 10.5511 24.7227C10.5937 24.839 10.6364 24.9552 10.6792 25.0715C10.757 25.2837 10.8346 25.4961 10.9108 25.7089C10.926 25.7513 10.9413 25.7937 10.957 25.8374C11.1471 26.4131 11.0672 26.8579 10.8094 27.3993C10.6904 27.6055 10.5584 27.8009 10.4229 27.9965C10.3857 28.0514 10.3484 28.1063 10.31 28.1628C10.1901 28.3391 10.0693 28.5149 9.94847 28.6906C9.82442 28.8722 9.70054 29.054 9.57667 29.2358C9.49518 29.3553 9.41362 29.4747 9.33199 29.5942C9.10686 29.9238 8.88428 30.2547 8.66644 30.5892C8.6213 30.6583 8.57616 30.7274 8.52966 30.7985C8.45076 30.9198 8.37234 31.0415 8.29451 31.1635C8.01946 31.5844 7.73332 31.9386 7.24059 32.095C7.04367 32.1139 6.84746 32.1134 6.64975 32.1132C6.59067 32.1136 6.53158 32.1141 6.4707 32.1145C6.27561 32.1157 6.08053 32.1159 5.88543 32.1161C5.74951 32.1165 5.61359 32.1169 5.47767 32.1173C5.19278 32.1181 4.90789 32.1183 4.623 32.1182C4.25857 32.1182 3.89417 32.1199 3.52975 32.1221C3.24899 32.1235 2.96824 32.1237 2.68748 32.1237C2.55316 32.1238 2.41884 32.1244 2.28452 32.1253C2.09631 32.1266 1.90817 32.1262 1.71995 32.1254C1.66487 32.1261 1.60979 32.1268 1.55304 32.1276C1.11953 32.1232 0.791705 32.0091 0.46355 31.7216C0.412946 31.6604 0.412946 31.6604 0.361319 31.5981C0.326615 31.5575 0.29191 31.5169 0.256154 31.475C0.0642544 31.1965 0.0243627 30.9551 0.0212597 30.62C0.0197582 30.4971 0.0197582 30.4971 0.0182264 30.3717C0.0178271 30.2826 0.0174895 30.1935 0.017209 30.1045C0.016647 30.0124 0.0160758 29.9203 0.015496 29.8282C0.014465 29.6352 0.0139818 29.4422 0.0138003 29.2492C0.0134642 29.0034 0.0111084 28.7576 0.00824397 28.5118C0.00636986 28.3215 0.00592865 28.1312 0.0058661 27.9409C0.00560479 27.8503 0.00483336 27.7598 0.00351689 27.6693C-0.00458594 27.0637 0.0381011 26.5415 0.473894 26.083C0.595733 25.9709 0.721885 25.8707 0.854373 25.7714C0.897421 25.7385 0.940468 25.7056 0.984821 25.6717C1.12151 25.5689 1.25965 25.4685 1.3983 25.3684C1.83672 25.0487 2.27067 24.724 2.70137 24.394C3.17073 24.0348 3.64309 23.6802 4.12046 23.3316C4.35799 23.158 4.5935 22.9826 4.82546 22.8016C4.86982 22.7673 4.91419 22.733 4.9599 22.6976C5.0421 22.6338 5.12384 22.5694 5.20499 22.5043C5.83231 22.0197 6.45174 22.0164 7.19363 22.2056Z" fill="#DEC39B"/>
<path id="Vector_6" d="M31.7211 14.0633C32.0174 14.3831 32.1122 14.6563 32.1135 15.0898C32.114 15.1706 32.1145 15.2514 32.1151 15.3347C32.1151 15.4239 32.115 15.513 32.1149 15.6021C32.1153 15.6964 32.1157 15.7906 32.1162 15.8848C32.1173 16.1404 32.1176 16.3961 32.1177 16.6517C32.1178 16.8115 32.118 16.9713 32.1184 17.1312C32.1195 17.6891 32.12 18.2471 32.1199 18.805C32.1199 19.3245 32.1212 19.844 32.1232 20.3635C32.1248 20.81 32.1255 21.2565 32.1254 21.703C32.1254 21.9694 32.1257 22.2359 32.127 22.5023C32.1283 22.7531 32.1283 23.0038 32.1273 23.2545C32.1272 23.3463 32.1275 23.4381 32.1283 23.5298C32.1327 24.1068 32.1126 24.5161 31.7299 24.9704C31.3274 25.3122 30.961 25.5013 30.4234 25.4747C29.9692 25.4225 29.7083 25.2796 29.3711 24.9644C29.3385 24.9339 29.3058 24.9035 29.2722 24.8722C28.9101 24.5327 28.557 24.184 28.2054 23.8337C28.1712 23.7997 28.1371 23.7657 28.1019 23.7307C27.9219 23.5517 27.7421 23.3725 27.5625 23.1931C27.3784 23.0094 27.1937 22.8262 27.0089 22.6432C26.8652 22.5006 26.722 22.3577 26.5788 22.2147C26.5109 22.1469 26.4428 22.0794 26.3746 22.012C25.3928 21.0412 25.3928 21.0412 25.3808 20.3318C25.3848 19.8886 25.4756 19.5016 25.6012 19.0787C25.6224 19.0042 25.6436 18.9298 25.6654 18.853C25.7329 18.6166 25.8019 18.3807 25.871 18.1447C25.9156 17.9893 25.9602 17.8337 26.0046 17.6782C26.0923 17.3721 26.1809 17.0664 26.2704 16.7608C26.3555 16.4697 26.4383 16.1781 26.519 15.8858C26.5381 15.8178 26.5572 15.7497 26.5768 15.6797C26.6122 15.5533 26.647 15.4267 26.681 15.3C26.8384 14.7433 27.0857 14.2541 27.5888 13.9381C28.0892 13.7166 28.6457 13.6919 29.1839 13.649C29.3334 13.6369 29.4828 13.623 29.6322 13.6091C30.3987 13.5423 31.1328 13.4893 31.7211 14.0633Z" fill="#DDC29A"/>
<path id="Vector_7" d="M31.4151 4.64884C31.7333 4.87938 31.978 5.17283 32.0967 5.54836C32.1154 5.73765 32.1151 5.92612 32.1149 6.11621C32.1153 6.17286 32.1158 6.2295 32.1162 6.28786C32.1174 6.47482 32.1176 6.66178 32.1178 6.84874C32.1182 6.97905 32.1186 7.10935 32.119 7.23965C32.1198 7.51276 32.12 7.78585 32.1199 8.05895C32.1199 8.40822 32.1216 8.75746 32.1238 9.10673C32.1252 9.37588 32.1254 9.64503 32.1254 9.91419C32.1255 10.0429 32.1261 10.1716 32.127 10.3004C32.1283 10.4808 32.1279 10.6611 32.1271 10.8416C32.1278 10.8943 32.1286 10.947 32.1293 11.0014C32.1245 11.4491 31.9898 11.7684 31.6976 12.1068C30.4728 13.1566 27.6732 12.8942 26.1214 12.909C26.0785 12.9099 26.0356 12.9108 25.9915 12.9117C25.4603 12.9214 25.0233 12.8799 24.5835 12.5607C24.2187 12.1745 24.0679 11.8244 24.0635 11.2901C24.0629 11.2453 24.0624 11.2004 24.0619 11.1542C24.0604 11.0065 24.0598 10.8587 24.0594 10.711C24.0588 10.6077 24.0583 10.5043 24.0577 10.401C24.0567 10.1844 24.0562 9.96786 24.056 9.75129C24.0557 9.47515 24.0533 9.19908 24.0504 8.92296C24.0486 8.70944 24.0481 8.49593 24.0481 8.2824C24.0478 8.18069 24.047 8.07897 24.0457 7.97727C24.0377 7.30275 24.0855 6.77392 24.5522 6.24881C25.0724 5.86991 25.8076 5.72278 26.4173 5.54641C26.4939 5.52397 26.5706 5.50153 26.6495 5.47841C26.8106 5.43132 26.9717 5.38436 27.1328 5.33764C27.3356 5.27884 27.5382 5.21961 27.7408 5.16023C28.4603 4.94942 29.1803 4.74002 29.9042 4.54489C29.9508 4.53204 29.9975 4.51918 30.0456 4.50593C30.544 4.37437 30.9623 4.3972 31.4151 4.64884Z" fill="#FDDEB1"/>
<path id="Vector_8" d="M1.42349 0.0194959C1.48537 0.0184949 1.54725 0.0174939 1.61101 0.0164626C1.67728 0.0161269 1.74354 0.0157911 1.81182 0.0154452C1.88076 0.0148799 1.94971 0.0143146 2.02075 0.0137322C2.16657 0.0128248 2.3124 0.012268 2.45823 0.0120365C2.67989 0.0112937 2.90144 0.00821522 3.12308 0.00505095C3.26514 0.00445811 3.40719 0.00400526 3.54925 0.00370581C3.61488 0.00248289 3.68051 0.00125998 3.74813 0C4.24331 0.00299709 4.66079 0.116421 5.03719 0.452957C5.41112 0.858669 5.53145 1.48966 5.69095 2.00307C5.72783 2.11968 5.76477 2.23626 5.80177 2.35283C5.88269 2.60847 5.96292 2.86431 6.04282 3.12026C6.14876 3.45884 6.25677 3.7967 6.36563 4.13434C6.47084 4.46076 6.57515 4.78746 6.67884 5.11436C6.74255 5.31517 6.8066 5.51585 6.87153 5.71627C6.94463 5.94284 7.0162 6.16985 7.08744 6.39702C7.10931 6.46371 7.13118 6.5304 7.15372 6.59912C7.33181 7.17618 7.42347 7.76785 7.17011 8.3345C6.94701 8.72226 6.65502 8.94723 6.23878 9.11713C5.947 9.16804 5.66577 9.18786 5.36987 9.18883C5.32929 9.18904 5.2887 9.18925 5.24689 9.18947C5.11406 9.19006 4.98123 9.19019 4.8484 9.19025C4.75507 9.19046 4.66175 9.19067 4.56842 9.19089C4.37323 9.19126 4.17804 9.19138 3.98285 9.19134C3.73425 9.19133 3.48567 9.19219 3.23707 9.19327C3.04439 9.19397 2.85171 9.19409 2.65903 9.19406C2.56746 9.19413 2.47588 9.1944 2.38431 9.19489C0.975132 9.2017 0.975131 9.2017 0.416056 8.67886C0.040378 8.27352 0.0217289 7.91776 0.0222063 7.38721C0.0217857 7.32018 0.0213651 7.25315 0.0209318 7.1841C0.0197426 6.96258 0.0194978 6.74107 0.0193631 6.51955C0.0189607 6.36538 0.0185395 6.21121 0.0181002 6.05705C0.0173503 5.73384 0.0171184 5.41063 0.0171926 5.08742C0.0172053 4.67372 0.0154962 4.26005 0.0133393 3.84636C0.0119454 3.52789 0.0116931 3.20944 0.0117593 2.89097C0.0116117 2.73848 0.0110589 2.58599 0.0100898 2.4335C0.00885978 2.21995 0.00922409 2.00646 0.00997776 1.79291C0.00927409 1.73021 0.00857042 1.66752 0.00784542 1.60293C0.0119424 1.14496 0.109158 0.809491 0.413855 0.461786C0.454613 0.42805 0.49537 0.394314 0.537363 0.359556C0.577959 0.324851 0.618555 0.290146 0.660382 0.25439C0.905464 0.0855251 1.12768 0.0231354 1.42349 0.0194959Z" fill="#FEDFB1"/>
<path id="Vector_9" d="M2.32175 10.2754C2.83542 10.5885 3.07 11.0499 3.21867 11.6155C3.27074 11.8342 3.32044 12.0535 3.36939 12.273C3.38841 12.3571 3.40746 12.4411 3.42654 12.5252C3.47794 12.7521 3.52891 12.9792 3.5798 13.2062C3.63325 13.4444 3.6871 13.6824 3.7409 13.9205C3.83112 14.3199 3.92109 14.7195 4.01087 15.119C4.13741 15.6822 4.2644 16.2452 4.39149 16.8083C4.5618 17.5629 4.73197 18.3176 4.90164 19.0723C4.92871 19.1927 4.95582 19.3131 4.98293 19.4335C4.99907 19.5054 5.01522 19.5773 5.03185 19.6513C5.04586 19.7137 5.05988 19.776 5.07431 19.8402C5.21873 20.4992 5.21704 20.9517 4.85965 21.5322C4.64923 21.8201 4.37364 22.0118 4.08656 22.2183C4.00368 22.279 4.00368 22.279 3.91913 22.341C3.80695 22.4231 3.69458 22.505 3.58202 22.5866C3.43497 22.6936 3.28901 22.8018 3.1435 22.9109C3.06133 22.9722 2.97916 23.0335 2.89697 23.0948C2.86022 23.1224 2.82347 23.15 2.7856 23.1785C2.30874 23.5304 1.88376 23.7073 1.29259 23.6426C0.852141 23.5312 0.49405 23.3283 0.228224 22.9539C0.0692301 22.634 0.0167342 22.402 0.0157002 22.0389C0.0153188 21.9929 0.0149374 21.9469 0.0145445 21.8995C0.0135078 21.7464 0.0138017 21.5934 0.0141028 21.4403C0.013643 21.3301 0.0131053 21.22 0.0124959 21.1098C0.011107 20.8112 0.0109213 20.5126 0.01104 20.2141C0.0110475 19.9645 0.010511 19.715 0.00998957 19.4654C0.00878602 18.8765 0.00860461 18.2875 0.00902801 17.6986C0.00944374 17.0917 0.00801214 16.4849 0.00569001 15.8781C0.00376644 15.3564 0.00305705 14.8347 0.00330067 14.313C0.00342995 14.0017 0.00308962 13.6904 0.00155428 13.3792C0.000157611 13.0863 0.000279791 12.7935 0.00154975 12.5007C0.00176281 12.3935 0.00144655 12.2863 0.000549015 12.1791C-0.00442471 11.5409 0.0146023 11.0308 0.482577 10.5496C0.522608 10.5224 0.56264 10.4952 0.603884 10.4672C0.643915 10.4388 0.683946 10.4105 0.725191 10.3813C1.19144 10.112 1.8206 10.0533 2.32175 10.2754Z" fill="#2D2419"/>
<path id="Vector_10" d="M8.55768 0.0133868C8.68113 0.0127423 8.68113 0.0127423 8.80707 0.0120847C9.03217 0.0109637 9.25725 0.0110348 9.48234 0.0113924C9.6706 0.0115862 9.85885 0.0112042 10.0471 0.0108265C10.4915 0.0099477 10.9358 0.0100443 11.3801 0.0107577C11.8377 0.0114762 12.2953 0.0105958 12.7529 0.00891719C13.1465 0.00752769 13.54 0.00711489 13.9336 0.00748195C14.1684 0.00769249 14.4031 0.00754455 14.6379 0.00646447C14.8998 0.00531172 15.1618 0.00619868 15.4237 0.00727258C15.501 0.00666727 15.5782 0.00606195 15.6578 0.0054383C16.2141 0.0102096 16.6027 0.108729 17.0125 0.508504C17.0551 0.549363 17.0976 0.590221 17.1414 0.632318C17.1851 0.675315 17.2287 0.718312 17.2737 0.762613C17.3676 0.85306 17.4615 0.94347 17.5554 1.03384C17.6009 1.07788 17.6463 1.12191 17.6931 1.16728C17.8638 1.33152 18.0378 1.49142 18.2129 1.65089C18.4679 1.88365 18.7223 2.11704 18.9759 2.35134C19.0097 2.3826 19.0436 2.41385 19.0784 2.44605C19.147 2.50936 19.2155 2.57267 19.284 2.63599C19.4539 2.79291 19.6238 2.94974 19.7938 3.10657C19.8616 3.16918 19.9294 3.23179 19.9972 3.2944C20.0476 3.34089 20.0476 3.34089 20.099 3.38832C20.472 3.73267 20.8451 4.07703 21.2181 4.42138C21.2517 4.45241 21.2854 4.48344 21.32 4.51541C21.3874 4.57763 21.4548 4.63988 21.5221 4.70217C21.6981 4.86484 21.8746 5.0269 22.0519 5.18811C22.1068 5.23829 22.1068 5.23829 22.1629 5.28949C22.2326 5.3531 22.3025 5.41654 22.3725 5.47976C22.7644 5.83827 22.997 6.12464 23.0353 6.6679C23.0366 6.76064 23.0373 6.85339 23.0374 6.94614C23.0379 6.9971 23.0384 7.04806 23.0389 7.10056C23.0404 7.26828 23.041 7.436 23.0414 7.60373C23.042 7.72101 23.0425 7.83829 23.0431 7.95557C23.0441 8.20125 23.0446 8.44691 23.0448 8.69259C23.0451 9.00613 23.0475 9.31962 23.0504 9.63314C23.0522 9.8754 23.0527 10.1176 23.0527 10.3599C23.053 10.4754 23.0538 10.5909 23.0551 10.7065C23.0677 11.9152 23.0677 11.9152 22.7051 12.3729C22.3437 12.7109 22.0037 12.8884 21.5025 12.8919C21.4254 12.8927 21.3482 12.8935 21.2688 12.8943C21.185 12.8945 21.1013 12.8947 21.0176 12.8948C20.9309 12.8952 20.8443 12.8956 20.7577 12.896C20.5762 12.8968 20.3947 12.897 20.2133 12.8969C19.9821 12.8969 19.7509 12.8986 19.5197 12.9008C19.3407 12.9022 19.1617 12.9024 18.9827 12.9024C18.8565 12.9026 18.7302 12.9039 18.604 12.9053C18.0041 12.9024 17.5858 12.788 17.0983 12.4379C17.0501 12.4037 17.0019 12.3695 16.9522 12.3342C16.9021 12.2979 16.8519 12.2616 16.8002 12.2242C16.6896 12.1454 16.579 12.0666 16.4683 11.9879C16.4123 11.9478 16.3564 11.9077 16.2987 11.8664C16.0355 11.6785 15.7702 11.4936 15.505 11.3085C15.4009 11.2356 15.2967 11.1627 15.1927 11.0898C14.9815 10.9421 14.7704 10.7943 14.5592 10.6467C14.5067 10.6098 14.4542 10.5729 14.4001 10.535C14.294 10.461 14.1874 10.3878 14.0803 10.3154C13.8353 10.1483 13.6092 9.98393 13.3995 9.7738C12.6215 9.03896 11.6294 9.16223 10.6233 9.17925C10.5748 9.18092 10.5264 9.18259 10.4764 9.18431C9.922 9.19792 9.4271 9.10029 8.99353 8.74147C8.62828 8.31797 8.47639 7.81513 8.31558 7.28946C8.28822 7.20239 8.26077 7.11535 8.23326 7.02834C8.16107 6.79931 8.08995 6.56995 8.01907 6.34051C7.94907 6.11454 7.87806 5.88887 7.80712 5.66319C7.72261 5.39422 7.63837 5.12517 7.5553 4.85575C7.42923 4.44719 7.302 4.0393 7.16687 3.63364C7.10731 3.45465 7.04875 3.27534 6.99023 3.096C6.96265 3.01246 6.9346 2.92908 6.906 2.84588C6.68925 2.21465 6.50256 1.46388 6.77479 0.817396C6.92523 0.572869 7.1282 0.385611 7.36567 0.226515C7.41337 0.194334 7.46107 0.162154 7.51021 0.128999C7.85675 -0.00641953 8.18876 0.0120449 8.55768 0.0133868ZM7.85088 1.2486C7.72698 1.43804 7.71745 1.53924 7.76148 1.75948C7.85966 2.1237 7.97249 2.48252 8.08887 2.84122C8.11769 2.93118 8.14648 3.02116 8.17523 3.11116C8.25081 3.34739 8.32692 3.58346 8.40314 3.81949C8.49495 4.10411 8.58615 4.38893 8.67744 4.67372C8.74865 4.89581 8.81994 5.11787 8.89152 5.33985C9.081 5.92791 9.26833 6.51669 9.44183 7.1097C9.46047 7.17298 9.47911 7.23625 9.49832 7.30144C9.51713 7.36601 9.53593 7.43058 9.55531 7.4971C9.67308 7.83254 9.67308 7.83254 9.93268 8.05276C10.0163 8.05884 10.1002 8.06124 10.1841 8.06164C10.236 8.06208 10.2878 8.06252 10.3413 8.06298C10.4257 8.06337 10.4257 8.06337 10.5118 8.06377C10.6313 8.06522 10.7507 8.06673 10.8701 8.06829C11.0582 8.07048 11.2462 8.07232 11.4343 8.07317C11.616 8.07415 11.7976 8.07667 11.9792 8.07942C12.0621 8.07924 12.0621 8.07924 12.1467 8.07906C12.7699 8.0911 13.2527 8.33579 13.7441 8.70234C13.8367 8.76956 13.9294 8.83673 14.0221 8.90387C14.07 8.93881 14.1179 8.97376 14.1672 9.00977C14.4191 9.19229 14.6746 9.36969 14.9297 9.54758C15.0356 9.62158 15.1414 9.69561 15.2472 9.76965C15.354 9.84432 15.4608 9.919 15.5676 9.99367C15.7802 10.1423 15.9928 10.291 16.2054 10.4398C16.2569 10.4757 16.3083 10.5117 16.3613 10.5488C16.616 10.727 16.8704 10.9058 17.124 11.0857C17.1724 11.1199 17.2207 11.1542 17.2705 11.1895C17.361 11.2537 17.4515 11.318 17.5419 11.3825C17.5825 11.4113 17.623 11.44 17.6648 11.4697C17.6998 11.4946 17.7347 11.5195 17.7708 11.5451C17.8269 11.583 17.8269 11.583 17.8841 11.6215C17.9311 11.6536 17.978 11.6857 18.0264 11.7188C18.2161 11.8194 18.3261 11.8328 18.5391 11.8327C18.6394 11.8333 18.6394 11.8333 18.7417 11.8339C18.8133 11.8333 18.8848 11.8327 18.9585 11.8321C19.0696 11.8322 19.0696 11.8322 19.1828 11.8322C19.3391 11.8321 19.4953 11.8314 19.6516 11.8304C19.8909 11.8289 20.1302 11.8291 20.3696 11.8295C20.5214 11.8292 20.6733 11.8287 20.8251 11.8282C20.8968 11.8283 20.9685 11.8283 21.0423 11.8284C21.109 11.8278 21.1756 11.8272 21.2443 11.8266C21.3029 11.8263 21.3614 11.826 21.4218 11.8257C21.5908 11.808 21.6887 11.7804 21.8286 11.6841C21.9888 11.4666 21.9716 11.2391 21.975 10.9764C21.9757 10.9308 21.9764 10.8851 21.9772 10.8381C21.9793 10.6874 21.9805 10.5367 21.9814 10.386C21.9819 10.3343 21.9823 10.2827 21.9827 10.2295C21.985 9.95609 21.9865 9.68272 21.9873 9.40933C21.9884 9.12776 21.992 8.84628 21.9963 8.56474C21.9991 8.34752 21.9999 8.13032 22.0003 7.91309C22.0007 7.80934 22.002 7.7056 22.004 7.60187C22.0322 6.94048 22.0322 6.94048 21.7429 6.36816C21.6692 6.30118 21.5936 6.2363 21.5155 6.17446C21.4566 6.11732 21.3977 6.06018 21.337 6.00131C21.2797 5.94998 21.2224 5.89865 21.1633 5.84576C21.0979 5.78668 21.0324 5.72757 20.967 5.66845C20.9336 5.63845 20.9002 5.60846 20.8659 5.57756C20.6963 5.42445 20.5288 5.26917 20.3612 5.11401C20.2928 5.05082 20.2244 4.98764 20.156 4.92446C20.122 4.89308 20.088 4.86169 20.053 4.82936C19.8832 4.67244 19.7132 4.51561 19.5433 4.35877C19.4755 4.29616 19.4077 4.23355 19.3398 4.17094C19.2895 4.12446 19.2895 4.12446 19.2381 4.07703C18.1189 3.04396 18.1189 3.04396 18.0171 2.95C17.9495 2.88754 17.8818 2.82508 17.8141 2.76263C17.6421 2.60389 17.4702 2.44505 17.2984 2.28604C16.9795 1.99095 16.6601 1.69644 16.3385 1.40436C16.2892 1.35957 16.2398 1.31478 16.189 1.26863C15.9958 1.10359 15.8803 1.09493 15.6308 1.09342C15.5647 1.09288 15.4986 1.09234 15.4305 1.09179C15.3213 1.09139 15.3213 1.09139 15.2098 1.09098C15.0951 1.09021 15.0951 1.09021 14.9781 1.08943C14.7242 1.08787 14.4703 1.08683 14.2163 1.08593C14.1289 1.0856 14.0415 1.08526 13.9541 1.08492C13.5906 1.08357 13.227 1.0824 12.8634 1.08169C12.3423 1.08068 11.8213 1.0786 11.3002 1.07503C10.9338 1.07261 10.5675 1.07138 10.2011 1.07105C9.98227 1.07082 9.76346 1.07007 9.54464 1.06804C9.30045 1.06581 9.0563 1.06606 8.81211 1.06652C8.73966 1.06549 8.66722 1.06447 8.59258 1.06341C8.19499 1.06438 8.19499 1.06438 7.85088 1.2486Z" fill="#2D2419"/>
<path id="Vector_11" d="M21.8509 0.0219777C21.9312 0.0214436 22.0115 0.0209095 22.0942 0.0203593C22.1828 0.0204031 22.2713 0.0204608 22.3599 0.0205313C22.4535 0.0201564 22.5471 0.0197303 22.6407 0.0192568C22.8947 0.0181517 23.1486 0.0178572 23.4025 0.0177772C23.5613 0.0176882 23.7201 0.0174207 23.8789 0.0170889C24.4332 0.0159307 24.9875 0.015419 25.5418 0.0155176C26.0579 0.0155928 26.5739 0.014272 27.09 0.0122939C27.5336 0.0106546 27.9771 0.00998495 28.4207 0.0100649C28.6854 0.0100968 28.9501 0.00974288 29.2148 0.00841476C29.4639 0.00719906 29.713 0.0071949 29.9621 0.00810379C30.0532 0.00823434 30.1444 0.00794136 30.2356 0.00718212C30.8106 0.00270481 31.2264 0.0203923 31.6735 0.41218C31.7073 0.452938 31.741 0.493695 31.7758 0.535688C31.8105 0.576284 31.8452 0.61688 31.8809 0.658707C32.1734 1.08315 32.1587 1.60864 32.0966 2.10485C31.9759 2.51527 31.7709 2.81118 31.4079 3.044C30.852 3.30755 30.2481 3.46144 29.6597 3.63439C29.5502 3.6668 29.4407 3.69923 29.3312 3.73169C29.102 3.79954 28.8728 3.8672 28.6435 3.93469C28.3538 4.01999 28.0642 4.10567 27.7747 4.19148C27.1318 4.38195 26.4886 4.57099 25.8447 4.75804C25.7204 4.79417 25.5962 4.8304 25.4719 4.86664C25.2787 4.92268 25.0852 4.97779 24.8916 5.03236C24.84 5.04737 24.7884 5.06238 24.7352 5.07784C24.2304 5.21716 23.743 5.23281 23.2686 4.98491C23.0442 4.81297 22.8451 4.61831 22.6425 4.42142C22.5526 4.33878 22.4627 4.25615 22.3723 4.17399C22.2774 4.08772 22.1829 4.00102 22.0886 3.91418C21.9526 3.7891 21.8164 3.66424 21.6801 3.5395C21.5084 3.3822 21.3379 3.22368 21.1677 3.06473C21.0875 2.99078 21.0056 2.91869 20.9234 2.84688C20.5472 2.50485 20.3438 2.12698 20.3164 1.61229C20.3448 1.08719 20.4976 0.715338 20.8855 0.359597C21.1891 0.100064 21.4532 0.0231751 21.8509 0.0219777Z" fill="#2D2419"/>
<path id="Vector_12" d="M19.0531 13.8654C19.1341 13.8649 19.1341 13.8649 19.2168 13.8644C19.395 13.8635 19.5732 13.8631 19.7514 13.8628C19.8758 13.8624 20.0002 13.862 20.1246 13.8617C20.3854 13.861 20.6462 13.8607 20.907 13.8604C21.2399 13.8601 21.5729 13.8586 21.9058 13.8568C22.1629 13.8556 22.4199 13.8553 22.6769 13.8552C22.7996 13.855 22.9223 13.8545 23.045 13.8537C24.6027 13.844 24.6027 13.844 25.1662 14.3825C25.4881 14.7445 25.6052 15.1152 25.599 15.592C25.5727 15.8995 25.4819 16.1891 25.3951 16.4841C25.3753 16.5535 25.3555 16.6229 25.3351 16.6945C25.2718 16.9159 25.2074 17.137 25.143 17.3582C25.1014 17.5032 25.0599 17.6484 25.0184 17.7935C24.916 18.1508 24.8115 18.5075 24.7065 18.864C24.6469 19.0691 24.5895 19.2747 24.5326 19.4805C24.4962 19.6083 24.4597 19.7362 24.4232 19.864C24.4079 19.9214 24.3926 19.9787 24.3768 20.0378C24.1911 20.6763 23.7475 21.1164 23.2861 21.5772C23.2169 21.6471 23.2169 21.6471 23.1462 21.7184C22.9951 21.8707 22.8435 22.0225 22.6919 22.1742C22.5858 22.2808 22.4797 22.3873 22.3736 22.4938C22.1518 22.7163 21.9298 22.9386 21.7076 23.1607C21.4237 23.4446 21.1407 23.7294 20.8578 24.0143C20.6392 24.2344 20.42 24.4538 20.2007 24.6731C20.0961 24.7778 19.9917 24.8827 19.8875 24.9879C19.7416 25.135 19.595 25.2813 19.4481 25.4274C19.4057 25.4705 19.3634 25.5136 19.3197 25.558C18.7749 26.0957 18.2881 26.2818 17.5264 26.2813C17.4795 26.2816 17.4326 26.2818 17.3843 26.282C17.2302 26.2826 17.0761 26.2827 16.922 26.2828C16.8143 26.283 16.7065 26.2832 16.5987 26.2834C16.3732 26.2838 16.1476 26.2839 15.9221 26.2839C15.6339 26.2838 15.3458 26.2847 15.0577 26.2858C14.8352 26.2865 14.6127 26.2866 14.3902 26.2866C14.2841 26.2866 14.1779 26.2869 14.0717 26.2874C13.9228 26.288 13.7739 26.2878 13.625 26.2875C13.5817 26.2878 13.5384 26.2882 13.4939 26.2885C12.9258 26.2849 12.444 26.1351 12.0262 25.7479C11.7781 25.4209 11.6462 25.0233 11.4979 24.6444C11.4763 24.5906 11.4547 24.5368 11.4324 24.4814C10.8864 23.1174 10.8864 23.1174 10.9971 22.5157C11.0035 22.4736 11.01 22.4316 11.0166 22.3882C11.13 21.9568 11.5007 21.6239 11.7892 21.2976C11.901 21.1694 12.007 21.0371 12.1123 20.9034C12.4474 20.481 12.7921 20.0663 13.1354 19.6505C13.3202 19.4265 13.5047 19.2024 13.6893 18.9782C13.7623 18.8895 13.8354 18.8008 13.9084 18.7121C13.9446 18.6682 13.9807 18.6243 14.018 18.579C14.4197 18.0912 14.8215 17.6034 15.2232 17.1155C15.2594 17.0716 15.2956 17.0277 15.3328 16.9824C15.4057 16.8939 15.4786 16.8054 15.5515 16.717C15.7366 16.4922 15.9216 16.2674 16.1064 16.0424C16.448 15.6264 16.7902 15.2109 17.1367 14.799C17.1891 14.7367 17.2415 14.6744 17.2955 14.6102C17.8177 14.0158 18.2767 13.8665 19.0531 13.8654ZM18.0094 15.4407C17.9794 15.477 17.9495 15.5132 17.9186 15.5505C17.8384 15.6493 17.7613 15.7501 17.6846 15.8516C17.4436 16.1643 17.1956 16.4688 16.9372 16.7673C16.62 17.1338 16.3111 17.506 16.0059 17.8825C15.6347 18.3373 15.2618 18.7907 14.8885 19.2437C14.6866 19.4888 14.485 19.7341 14.2841 19.9799C14.0513 20.2648 13.8176 20.549 13.5836 20.833C13.5468 20.8777 13.51 20.9225 13.472 20.9685C13.2746 21.2082 13.077 21.4478 12.879 21.687C12.8191 21.7595 12.8191 21.7595 12.758 21.8335C12.6812 21.9265 12.6043 22.0193 12.5274 22.1121C12.4928 22.1541 12.4581 22.1961 12.4224 22.2393C12.3919 22.2761 12.3614 22.313 12.33 22.3509C12.1616 22.5638 12.0919 22.7045 12.0992 22.9787C12.1504 23.3147 12.2816 23.6296 12.4045 23.945C12.4529 24.0695 12.4995 24.1947 12.5459 24.32C12.5764 24.3999 12.607 24.4797 12.6376 24.5595C12.6652 24.6314 12.6927 24.7033 12.7211 24.7774C12.8217 24.975 12.8723 25.0373 13.0632 25.1453C13.2274 25.1653 13.3771 25.1748 13.5415 25.1755C13.5894 25.1765 13.6372 25.1774 13.6866 25.1784C13.8448 25.1811 14.003 25.1824 14.1613 25.1834C14.2717 25.1845 14.3822 25.1856 14.4926 25.1867C14.7243 25.1886 14.956 25.1897 15.1877 25.1904C15.4833 25.1914 15.7788 25.1959 16.0743 25.2013C16.3026 25.2048 16.5309 25.2058 16.7592 25.206C16.8681 25.2066 16.977 25.2081 17.0858 25.2106C17.7882 25.2366 17.7882 25.2366 18.3929 24.9218C18.496 24.8098 18.5976 24.6962 18.6981 24.5818C18.8117 24.4689 18.9274 24.3584 19.0433 24.2479C19.5258 23.7868 19.9979 23.3149 20.4721 22.8454C20.7321 22.5879 20.9928 22.331 21.2549 22.0756C21.5104 21.8267 21.7642 21.5762 22.017 21.3247C22.1129 21.2298 22.2092 21.1355 22.3062 21.0418C22.9057 20.4612 23.2709 20.0192 23.4564 19.1973C23.4981 19.0566 23.5406 18.9161 23.5839 18.7758C23.6249 18.6353 23.6656 18.4947 23.7061 18.354C23.7279 18.2786 23.7497 18.2031 23.7722 18.1254C23.8176 17.9678 23.8629 17.8102 23.9081 17.6526C23.9658 17.4516 24.0241 17.2507 24.0826 17.0499C24.1389 16.8561 24.1944 16.662 24.2501 16.4679C24.271 16.3964 24.2919 16.3249 24.3135 16.2513C24.4637 15.7585 24.4637 15.7585 24.4582 15.2529C24.284 15.0639 24.1459 14.9873 23.8942 14.9694C23.794 14.9673 23.6938 14.9667 23.5936 14.9671C23.5112 14.966 23.5112 14.966 23.4271 14.9648C23.246 14.9628 23.0648 14.9626 22.8837 14.9626C22.7574 14.9619 22.6312 14.9613 22.5049 14.9605C22.2404 14.9593 21.9759 14.9591 21.7114 14.9595C21.3729 14.9599 21.0345 14.9571 20.696 14.9535C20.4353 14.9512 20.1746 14.9509 19.9138 14.9511C19.7891 14.9509 19.6643 14.9501 19.5396 14.9485C19.3648 14.9465 19.1902 14.9472 19.0154 14.9487C18.9642 14.9475 18.913 14.9464 18.8603 14.9451C18.4459 14.9535 18.2637 15.1267 18.0094 15.4407Z" fill="#2D2419"/>
<path id="Vector_13" d="M6.06068 10.1633C6.12455 10.1629 6.18842 10.1625 6.25423 10.162C6.46528 10.1608 6.67633 10.1606 6.88739 10.1605C7.03438 10.1601 7.18138 10.1596 7.32838 10.1592C7.63659 10.1584 7.94479 10.1582 8.253 10.1583C8.64719 10.1583 9.04134 10.1566 9.43552 10.1544C9.73921 10.153 10.0429 10.1528 10.3466 10.1529C10.4919 10.1527 10.6371 10.1522 10.7824 10.1512C10.9861 10.15 11.1896 10.1503 11.3933 10.1511C11.4528 10.1504 11.5124 10.1497 11.5737 10.1489C12.0887 10.1538 12.4927 10.3177 12.9099 10.6173C12.9582 10.6516 13.0065 10.6858 13.0562 10.7211C13.1314 10.7755 13.1314 10.7755 13.2081 10.8311C13.3178 10.9093 13.4275 10.9874 13.5373 11.0656C13.5931 11.1056 13.649 11.1457 13.7066 11.1869C13.876 11.3076 14.0463 11.4268 14.2172 11.5455C14.2999 11.603 14.2999 11.603 14.3844 11.6617C14.4889 11.7343 14.5935 11.8068 14.6982 11.8793C16.0076 12.7923 16.0076 12.7923 16.1938 13.3746C16.2654 14.1091 16.0871 14.5692 15.6303 15.1277C15.4883 15.2971 15.3457 15.4659 15.2022 15.6342C14.9907 15.8824 14.7855 16.1348 14.5828 16.3904C14.2859 16.7609 13.982 17.1258 13.6798 17.492C13.495 17.7159 13.3104 17.9401 13.1259 18.1643C13.0528 18.253 12.9798 18.3417 12.9067 18.4304C12.8706 18.4743 12.8344 18.5182 12.7972 18.5634C12.6876 18.6964 12.578 18.8295 12.4685 18.9625C12.4323 19.0065 12.3961 19.0504 12.3588 19.0957C12.2861 19.184 12.2133 19.2724 12.1405 19.3607C11.9535 19.5876 11.7669 19.8147 11.5809 20.0423C11.3985 20.2655 11.215 20.4878 11.0307 20.7093C10.9703 20.7821 10.9103 20.855 10.8506 20.9283C10.5473 21.3007 10.2839 21.5854 9.80755 21.7017C9.22716 21.7569 8.69069 21.6574 8.13393 21.5084C8.00711 21.4747 7.87986 21.4432 7.75243 21.4119C7.11567 21.2498 6.5986 21.0636 6.2514 20.4822C6.09556 20.1551 6.0281 19.8008 5.94897 19.449C5.92802 19.3591 5.90701 19.2691 5.88592 19.1792C5.82722 18.9276 5.76985 18.6756 5.71279 18.4236C5.67403 18.2526 5.63499 18.0816 5.59589 17.9107C5.40703 17.0848 5.22066 16.2584 5.03506 15.4317C4.94507 15.0311 4.85486 14.6305 4.76467 14.2299C4.69478 13.9195 4.62492 13.609 4.5552 13.2986C4.54252 13.2422 4.52985 13.1858 4.51679 13.1278C4.49322 13.0229 4.46967 12.918 4.44615 12.8132C4.38952 12.5596 4.38952 12.5596 4.32687 12.3075C4.20681 11.8002 4.24788 11.2668 4.50918 10.8154C4.92041 10.2777 5.41718 10.1627 6.06068 10.1633ZM5.36225 11.5589C5.3318 11.7013 5.3318 11.7013 5.36371 11.8458C5.37233 11.9005 5.38094 11.9552 5.38982 12.0115C5.40138 12.0688 5.41294 12.126 5.42486 12.185C5.43626 12.2417 5.44766 12.2984 5.4594 12.3568C5.49994 12.5442 5.54413 12.7304 5.58921 12.9168C5.6235 13.0619 5.65774 13.207 5.69193 13.3521C5.7098 13.4276 5.72768 13.5031 5.7461 13.5809C5.83723 13.9694 5.92441 14.3588 6.01182 14.7481C6.12803 15.2642 6.24461 15.7803 6.36254 16.296C6.37294 16.3415 6.38335 16.387 6.39407 16.434C6.44668 16.664 6.49946 16.8939 6.55248 17.1239C6.64777 17.5378 6.74188 17.9519 6.83036 18.3673C6.8688 18.5477 6.90785 18.728 6.94691 18.9083C6.96508 18.9931 6.98292 19.0781 7.00041 19.1631C7.02451 19.2802 7.04984 19.3972 7.07522 19.514C7.08908 19.5801 7.10294 19.6462 7.11722 19.7142C7.208 19.9711 7.33714 20.0926 7.58077 20.2098C7.7391 20.2609 7.89564 20.3035 8.0579 20.3402C8.14664 20.3604 8.14664 20.3604 8.23717 20.3809C8.29827 20.3945 8.35936 20.4081 8.42231 20.4221C8.51323 20.4429 8.51323 20.4429 8.60598 20.4641C8.77665 20.5025 8.94755 20.5392 9.11884 20.5747C9.16294 20.5842 9.20703 20.5936 9.25246 20.6033C9.414 20.6331 9.52572 20.6514 9.67818 20.5833C9.92294 20.3474 10.1368 20.0967 10.3454 19.8283C10.53 19.5925 10.7203 19.3617 10.9111 19.1308C10.9875 19.0381 11.064 18.9454 11.1405 18.8527C11.1982 18.7827 11.1982 18.7827 11.2572 18.7113C11.442 18.4874 11.6265 18.2632 11.8111 18.039C11.8841 17.9503 11.9572 17.8616 12.0302 17.773C12.0664 17.729 12.1025 17.6851 12.1398 17.6399C13.345 16.1764 13.345 16.1764 13.4547 16.0432C13.5273 15.9551 13.5998 15.8669 13.6723 15.7788C13.8622 15.548 14.0525 15.3176 14.2436 15.0878C14.2831 15.0401 14.3227 14.9924 14.3634 14.9433C14.4388 14.8524 14.5142 14.7617 14.5899 14.6711C14.9559 14.2637 14.9559 14.2637 15.158 13.7718C15.0611 13.2747 14.2579 12.9051 13.8608 12.6373C13.8089 12.6023 13.7569 12.5673 13.7033 12.5313C13.3103 12.2669 12.9234 11.9939 12.5365 11.7205C12.4871 11.6858 12.4377 11.651 12.3868 11.6152C12.3435 11.5846 12.3003 11.554 12.2557 11.5226C12.1906 11.4786 12.1906 11.4786 12.1241 11.4337C12.082 11.4014 12.0399 11.3691 11.9965 11.3359C11.735 11.2089 11.5044 11.2186 11.2173 11.2196C11.1579 11.219 11.0985 11.2185 11.0373 11.218C10.8413 11.2165 10.6453 11.2164 10.4493 11.2165C10.3129 11.2161 10.1766 11.2156 10.0402 11.2151C9.75452 11.2142 9.46885 11.2141 9.18317 11.2145C8.81703 11.2149 8.45094 11.2129 8.08481 11.2104C7.80325 11.2088 7.5217 11.2086 7.24014 11.2088C7.10514 11.2087 6.97014 11.2081 6.83515 11.207C6.64643 11.2056 6.45783 11.2062 6.26911 11.2073C6.21336 11.2065 6.1576 11.2057 6.10015 11.2048C5.74844 11.2096 5.58313 11.261 5.36225 11.5589Z" fill="#2D2419"/>
<path id="Vector_14" d="M24.6149 22.2339C24.7108 22.2329 24.7108 22.2329 24.8086 22.232C25.4236 22.3279 25.7946 22.6799 26.2201 23.1109C26.2814 23.1719 26.3427 23.2328 26.4042 23.2936C26.5697 23.458 26.7342 23.6233 26.8985 23.7888C27.0712 23.9626 27.2447 24.1355 27.4181 24.3085C27.709 24.5992 27.9992 24.8904 28.2891 25.182C28.6235 25.5185 28.9589 25.8539 29.2949 26.1888C29.6191 26.5119 29.9425 26.8358 30.2656 27.16C30.4027 27.2975 30.54 27.4348 30.6776 27.5718C30.8397 27.7335 31.0011 27.8957 31.1621 28.0584C31.2491 28.1459 31.3366 28.2329 31.4241 28.3198C31.9185 28.8218 32.1283 29.2023 32.1341 29.9172C32.1331 30.0325 32.1331 30.0325 32.132 30.1502C32.1335 30.2268 32.135 30.3034 32.1365 30.3824C32.1357 30.9225 32.0527 31.3165 31.6701 31.7114C31.3387 32.019 31.0484 32.1104 30.5949 32.1121C30.5516 32.1125 30.5083 32.1128 30.4637 32.1131C30.3191 32.1141 30.1744 32.1141 30.0298 32.1142C29.9259 32.1146 29.822 32.1152 29.7181 32.1157C29.4361 32.1171 29.154 32.1177 28.872 32.118C28.6957 32.1182 28.5193 32.1186 28.3429 32.1191C27.7272 32.1206 27.1115 32.1214 26.4957 32.1216C25.9226 32.1219 25.3495 32.1237 24.7763 32.1263C24.2837 32.1285 23.7911 32.1295 23.2984 32.1295C23.0044 32.1296 22.7105 32.1301 22.4165 32.1319C22.1398 32.1336 21.8631 32.1337 21.5863 32.1327C21.4851 32.1326 21.3839 32.133 21.2827 32.134C20.7267 32.1391 20.2272 32.1317 19.7626 31.7819C19.431 31.4294 19.2476 31.088 19.2426 30.5976C19.2416 30.5244 19.2406 30.4512 19.2395 30.3758C19.2392 30.2972 19.2388 30.2187 19.2385 30.1377C19.2379 30.0562 19.2374 29.9748 19.2368 29.8909C19.2358 29.7185 19.2353 29.5461 19.2351 29.3738C19.2348 29.1545 19.2324 28.9353 19.2295 28.716C19.2272 28.5051 19.2271 28.2942 19.2268 28.0833C19.2255 28.0053 19.2243 27.9274 19.2231 27.8471C19.2283 26.8212 19.7872 26.3256 20.4758 25.6427C20.5653 25.553 20.6547 25.4633 20.7441 25.3735C20.931 25.1862 21.1184 24.9994 21.3062 24.8131C21.5461 24.575 21.7845 24.3355 22.0225 24.0956C22.2067 23.9103 22.3917 23.7257 22.5769 23.5413C22.6651 23.4533 22.753 23.3651 22.8407 23.2767C22.9637 23.1529 23.0876 23.0302 23.2119 22.9077C23.2474 22.8716 23.2829 22.8354 23.3195 22.7981C23.6814 22.4456 24.1017 22.2287 24.6149 22.2339ZM24.2322 23.4936C24.1902 23.5345 24.1481 23.5754 24.1047 23.6175C24.0561 23.6671 24.0075 23.7167 23.9575 23.7679C23.8972 23.827 23.8368 23.886 23.7763 23.9449C23.5592 24.1572 23.3446 24.372 23.1301 24.5869C23.051 24.666 22.9718 24.7451 22.8927 24.8242C22.7278 24.9889 22.5631 25.1538 22.3984 25.3188C22.1871 25.5304 21.9755 25.7418 21.7638 25.9531C21.6008 26.1159 21.438 26.2788 21.2751 26.4418C21.1971 26.5199 21.1191 26.5979 21.0409 26.6759C20.9323 26.7843 20.8239 26.893 20.7155 27.0018C20.6669 27.0501 20.6669 27.0501 20.6174 27.0994C20.3866 27.3316 20.3185 27.4394 20.316 27.7642C20.3154 27.8271 20.3148 27.89 20.3142 27.9548C20.3139 28.0231 20.3137 28.0913 20.3134 28.1616C20.313 28.2315 20.3127 28.3015 20.3123 28.3735C20.3117 28.5218 20.3113 28.6701 20.3111 28.8183C20.3105 29.0451 20.3085 29.2718 20.3065 29.4985C20.3061 29.6424 20.3058 29.7864 20.3056 29.9303C20.3048 29.9981 20.304 30.066 20.3032 30.1359C20.2976 30.5853 20.2976 30.5853 20.5139 30.968C20.6903 31.0562 20.8375 31.0393 21.0348 31.0402C21.0758 31.0405 21.1169 31.0408 21.1592 31.0411C21.2974 31.0419 21.4355 31.0423 21.5737 31.0427C21.6726 31.0432 21.7714 31.0437 21.8702 31.0442C22.1953 31.0459 22.5203 31.0468 22.8454 31.0477C22.9572 31.0481 23.0691 31.0484 23.1809 31.0487C23.646 31.0501 24.111 31.0513 24.5761 31.052C25.2431 31.053 25.91 31.0551 26.577 31.0586C27.0457 31.0611 27.5144 31.0623 27.9831 31.0626C28.2632 31.0628 28.5432 31.0636 28.8233 31.0656C29.0868 31.0675 29.3502 31.0679 29.6137 31.0672C29.7104 31.0672 29.8071 31.0677 29.9038 31.0688C30.0359 31.0702 30.1678 31.0697 30.2999 31.0687C30.4107 31.069 30.4107 31.069 30.5238 31.0693C30.7775 31.0191 30.8709 30.9147 31.0324 30.7176C31.0916 30.5351 31.0819 30.3569 31.0794 30.1658C31.0816 30.1177 31.0839 30.0695 31.0862 30.0199C31.0862 29.735 31.0397 29.5698 30.8453 29.3585C30.8055 29.3151 30.7657 29.2716 30.7246 29.2269C30.4951 28.9856 30.263 28.7472 30.0283 28.5108C29.9734 28.4553 29.9185 28.3997 29.8619 28.3425C29.6816 28.1604 29.5011 27.9785 29.3204 27.7967C29.2896 27.7656 29.2587 27.7345 29.2269 27.7025C28.9356 27.4093 28.6441 27.1161 28.3523 26.8232C27.9805 26.45 27.6093 26.0762 27.239 25.7016C26.9776 25.4373 26.7155 25.1736 26.4529 24.9105C26.2963 24.7537 26.1402 24.5966 25.9847 24.4387C25.8117 24.2629 25.6371 24.0886 25.4624 23.9144C25.4114 23.8621 25.3604 23.8098 25.3079 23.756C25.0239 23.4659 25.0239 23.4659 24.6563 23.318C24.442 23.3305 24.3808 23.3447 24.2322 23.4936Z" fill="#2D2419"/>
<path id="Vector_15" d="M12.9592 27.2478C13.0028 27.2472 13.0464 27.2467 13.0914 27.2461C13.2344 27.2447 13.3774 27.2446 13.5204 27.2447C13.6207 27.2442 13.7211 27.2438 13.8214 27.2432C14.0313 27.2424 14.2413 27.2423 14.4512 27.2427C14.7188 27.243 14.9863 27.2411 15.2538 27.2386C15.461 27.237 15.6682 27.2368 15.8754 27.237C15.9739 27.2369 16.0725 27.2363 16.1711 27.2352C16.7943 27.2289 17.3223 27.2619 17.8149 27.6901C18.2422 28.1167 18.2817 28.7012 18.2858 29.2754C18.2856 29.3659 18.2852 29.4565 18.2844 29.547C18.2834 29.6843 18.2844 29.8214 18.2856 29.9587C18.2876 31.1661 18.2876 31.1661 17.8725 31.6176C17.8393 31.6555 17.8062 31.6935 17.772 31.7326C17.3894 32.0427 17.0346 32.1322 16.5495 32.1274C16.4934 32.1279 16.4374 32.1283 16.3796 32.1287C16.1957 32.1298 16.0118 32.1291 15.8279 32.1283C15.6993 32.1284 15.5706 32.1287 15.442 32.129C15.173 32.1294 14.9039 32.1288 14.6349 32.1277C14.2909 32.1262 13.9469 32.1271 13.6029 32.1286C13.3375 32.1295 13.072 32.1292 12.8066 32.1285C12.6798 32.1284 12.553 32.1286 12.4262 32.1291C12.2486 32.1298 12.0712 32.1288 11.8936 32.1274C11.8158 32.1282 11.8158 32.1282 11.7365 32.129C11.3156 32.1229 10.9939 32.0001 10.6711 31.7282C10.3096 31.3024 10.1665 30.9497 10.1521 30.3911C10.2564 29.8057 10.6421 29.3095 10.9669 28.8254C11.052 28.6983 11.136 28.5705 11.2199 28.4426C11.2746 28.3605 11.3293 28.2785 11.384 28.1966C11.4087 28.1589 11.4334 28.1212 11.4588 28.0823C11.8315 27.5323 12.2954 27.2522 12.9592 27.2478Z" fill="#2D2419"/>
<path id="Vector_16" d="M7.19363 22.2056C7.24732 22.2189 7.30102 22.2322 7.35633 22.2459C7.46921 22.274 7.58202 22.3025 7.69476 22.3312C7.86599 22.3746 8.03751 22.4169 8.20909 22.459C8.31933 22.4866 8.42955 22.5143 8.53975 22.5421C8.59037 22.5545 8.641 22.5669 8.69315 22.5797C9.28417 22.7323 9.70472 22.9394 10.058 23.4548C10.1582 23.6454 10.2327 23.8399 10.3041 24.0428C10.3242 24.0971 10.3442 24.1514 10.3649 24.2073C10.428 24.3787 10.4896 24.5507 10.5511 24.7227C10.5937 24.839 10.6364 24.9552 10.6792 25.0715C10.757 25.2837 10.8346 25.4961 10.9108 25.7089C10.926 25.7513 10.9413 25.7937 10.957 25.8374C11.1471 26.4131 11.0672 26.8579 10.8094 27.3993C10.6904 27.6055 10.5584 27.8009 10.4229 27.9965C10.3857 28.0514 10.3484 28.1063 10.31 28.1628C10.1901 28.3391 10.0693 28.5149 9.94847 28.6906C9.82442 28.8722 9.70054 29.054 9.57667 29.2358C9.49518 29.3553 9.41362 29.4747 9.33199 29.5942C9.10686 29.9238 8.88428 30.2547 8.66644 30.5892C8.6213 30.6583 8.57616 30.7274 8.52966 30.7985C8.45076 30.9198 8.37234 31.0415 8.29451 31.1635C8.01946 31.5844 7.73332 31.9386 7.24059 32.095C7.04367 32.1139 6.84746 32.1134 6.64975 32.1132C6.59067 32.1136 6.53158 32.1141 6.4707 32.1145C6.27561 32.1157 6.08053 32.1159 5.88543 32.1161C5.74951 32.1165 5.61359 32.1169 5.47767 32.1173C5.19278 32.1181 4.90789 32.1183 4.623 32.1182C4.25857 32.1182 3.89417 32.1199 3.52975 32.1221C3.24899 32.1235 2.96824 32.1237 2.68748 32.1237C2.55316 32.1238 2.41884 32.1244 2.28452 32.1253C2.09631 32.1266 1.90817 32.1262 1.71995 32.1254C1.66487 32.1261 1.60979 32.1268 1.55304 32.1276C1.11953 32.1232 0.791705 32.0091 0.46355 31.7216C0.412946 31.6604 0.412946 31.6604 0.361319 31.5981C0.326615 31.5575 0.29191 31.5169 0.256154 31.475C0.0642544 31.1965 0.0243627 30.9551 0.0212597 30.62C0.0197582 30.4971 0.0197582 30.4971 0.0182264 30.3717C0.0178271 30.2826 0.0174895 30.1935 0.017209 30.1045C0.016647 30.0124 0.0160758 29.9203 0.015496 29.8282C0.014465 29.6352 0.0139818 29.4422 0.0138003 29.2492C0.0134642 29.0034 0.0111084 28.7576 0.00824397 28.5118C0.00636986 28.3215 0.00592865 28.1312 0.0058661 27.9409C0.00560479 27.8503 0.00483336 27.7598 0.00351689 27.6693C-0.00458594 27.0637 0.0381011 26.5415 0.473894 26.083C0.595733 25.9709 0.721885 25.8707 0.854373 25.7714C0.897421 25.7385 0.940468 25.7056 0.984821 25.6717C1.12151 25.5689 1.25965 25.4685 1.3983 25.3684C1.83672 25.0487 2.27067 24.724 2.70137 24.394C3.17073 24.0348 3.64309 23.6802 4.12046 23.3316C4.35799 23.158 4.5935 22.9826 4.82546 22.8016C4.86982 22.7673 4.91419 22.733 4.9599 22.6976C5.0421 22.6338 5.12384 22.5694 5.20499 22.5043C5.83231 22.0197 6.45174 22.0164 7.19363 22.2056ZM5.6323 23.5801C5.58121 23.6193 5.53012 23.6585 5.47748 23.6989C5.36872 23.7826 5.26036 23.8667 5.15236 23.9513C4.93452 24.1217 4.71441 24.289 4.49423 24.4564C4.38358 24.5405 4.27304 24.6248 4.16263 24.7092C3.80358 24.9838 3.44163 25.2539 3.07703 25.521C2.63357 25.8463 2.19284 26.175 1.75439 26.5071C1.69681 26.5504 1.63922 26.5938 1.57989 26.6384C1.52691 26.6787 1.47392 26.719 1.41933 26.7605C1.37215 26.7962 1.32496 26.8319 1.27635 26.8687C1.16026 26.9548 1.16026 26.9548 1.10481 27.0862C1.09753 27.2003 1.09419 27.3146 1.09274 27.4288C1.09173 27.5005 1.09073 27.5722 1.08969 27.646C1.08691 27.974 1.08431 28.302 1.08289 28.63C1.08206 28.8031 1.08031 28.9762 1.07776 29.1494C1.07408 29.3986 1.07296 29.6478 1.07204 29.8971C1.07062 29.9745 1.0692 30.0519 1.06774 30.1317C1.06792 30.204 1.0681 30.2762 1.06828 30.3507C1.06752 30.4459 1.06752 30.4459 1.06675 30.5429C1.12127 30.7931 1.21155 30.8811 1.41786 31.0307C1.60846 31.0616 1.7639 31.0736 1.95421 31.0712C2.00749 31.0717 2.06077 31.0723 2.11567 31.0728C2.29137 31.0742 2.46697 31.0733 2.64267 31.0722C2.765 31.0724 2.88733 31.0727 3.00966 31.0731C3.26588 31.0736 3.52206 31.0729 3.77827 31.0715C4.10652 31.0697 4.43469 31.0707 4.76293 31.0726C5.01549 31.0737 5.26803 31.0734 5.52059 31.0725C5.64161 31.0723 5.76262 31.0726 5.88364 31.0733C6.05287 31.0741 6.22198 31.0729 6.3912 31.0712C6.46605 31.0721 6.46605 31.0721 6.54242 31.0731C6.7899 31.0684 6.91028 31.0445 7.10576 30.888C7.21846 30.7456 7.32868 30.6056 7.42989 30.4548C7.46359 30.405 7.49729 30.3551 7.53201 30.3038C7.56756 30.2504 7.6031 30.1971 7.63973 30.1421C7.67766 30.0858 7.71558 30.0294 7.75466 29.9714C7.87581 29.7912 7.99647 29.6107 8.11713 29.4302C8.19626 29.3125 8.27542 29.1948 8.35461 29.0771C8.74654 28.4939 9.13471 27.9083 9.51803 27.3193C9.5527 27.2661 9.58737 27.2128 9.62309 27.158C9.65476 27.1091 9.68643 27.0603 9.71907 27.0099C9.74686 26.9671 9.77465 26.9242 9.80329 26.88C9.97432 26.6069 9.92421 26.3941 9.87021 26.0845C9.82359 25.9095 9.76358 25.7417 9.69926 25.5726C9.68217 25.5267 9.66508 25.4809 9.64748 25.4336C9.61145 25.3377 9.57508 25.2419 9.53837 25.1462C9.48271 25.0003 9.42911 24.8537 9.37557 24.7069C9.3401 24.6132 9.30452 24.5196 9.26881 24.426C9.25314 24.3825 9.23747 24.339 9.22133 24.2942C9.10201 23.9913 8.96603 23.8572 8.68062 23.7053C8.45839 23.6309 8.45839 23.6309 8.21887 23.5801C8.13033 23.5596 8.04179 23.539 7.95327 23.5184C7.90809 23.5081 7.86292 23.4979 7.81637 23.4873C7.67963 23.455 7.54405 23.4198 7.40837 23.3834C7.36449 23.3718 7.32062 23.3602 7.27541 23.3482C7.15353 23.3158 7.03173 23.2831 6.90993 23.2504C6.32225 23.1343 6.09077 23.2136 5.6323 23.5801Z" fill="#2D2419"/>
<path id="Vector_17" d="M31.7211 14.0633C32.0174 14.3831 32.1122 14.6563 32.1135 15.0898C32.114 15.1706 32.1145 15.2514 32.1151 15.3347C32.1151 15.4239 32.115 15.513 32.1149 15.6021C32.1153 15.6964 32.1157 15.7906 32.1162 15.8848C32.1173 16.1404 32.1176 16.3961 32.1177 16.6517C32.1178 16.8115 32.118 16.9713 32.1184 17.1312C32.1195 17.6891 32.12 18.2471 32.1199 18.805C32.1199 19.3245 32.1212 19.844 32.1232 20.3635C32.1248 20.81 32.1255 21.2565 32.1254 21.703C32.1254 21.9694 32.1257 22.2359 32.127 22.5023C32.1283 22.7531 32.1283 23.0038 32.1273 23.2545C32.1272 23.3463 32.1275 23.4381 32.1283 23.5298C32.1327 24.1068 32.1126 24.5161 31.7299 24.9704C31.3274 25.3122 30.961 25.5013 30.4234 25.4747C29.9692 25.4225 29.7083 25.2796 29.3711 24.9644C29.3385 24.9339 29.3058 24.9035 29.2722 24.8722C28.9101 24.5327 28.557 24.184 28.2054 23.8337C28.1712 23.7997 28.1371 23.7657 28.1019 23.7307C27.9219 23.5517 27.7421 23.3725 27.5625 23.1931C27.3784 23.0094 27.1937 22.8262 27.0089 22.6432C26.8652 22.5006 26.722 22.3577 26.5788 22.2147C26.5109 22.1469 26.4428 22.0794 26.3746 22.012C25.3928 21.0412 25.3928 21.0412 25.3808 20.3318C25.3848 19.8886 25.4756 19.5016 25.6012 19.0787C25.6224 19.0042 25.6436 18.9298 25.6654 18.853C25.7329 18.6166 25.8019 18.3807 25.871 18.1447C25.9156 17.9893 25.9602 17.8337 26.0046 17.6782C26.0923 17.3721 26.1809 17.0664 26.2704 16.7608C26.3555 16.4697 26.4383 16.1781 26.519 15.8858C26.5381 15.8178 26.5572 15.7497 26.5768 15.6797C26.6122 15.5533 26.647 15.4267 26.681 15.3C26.8384 14.7433 27.0857 14.2541 27.5888 13.9381C28.0892 13.7166 28.6457 13.6919 29.1839 13.649C29.3334 13.6369 29.4828 13.623 29.6322 13.6091C30.3987 13.5423 31.1328 13.4893 31.7211 14.0633ZM29.7724 14.7004C29.579 14.7124 29.3862 14.7278 29.1932 14.7442C29.1281 14.7492 29.0629 14.7541 28.9958 14.7591C28.4615 14.789 28.4615 14.789 27.9923 15.0188C27.8797 15.1544 27.8479 15.2675 27.8031 15.4378C27.7777 15.5317 27.7777 15.5317 27.7518 15.6275C27.7342 15.695 27.7166 15.7625 27.6984 15.8321C27.6597 15.9754 27.6209 16.1186 27.582 16.2618C27.5623 16.3342 27.5427 16.4067 27.5224 16.4813C27.4359 16.7925 27.3405 17.1007 27.2445 17.4091C27.0578 18.0113 26.8911 18.6178 26.7316 19.2278C26.7059 19.3253 26.7059 19.3253 26.6797 19.4248C26.6574 19.5109 26.6574 19.5109 26.6345 19.5987C26.5871 19.7609 26.5871 19.7609 26.5187 19.9149C26.4492 20.1091 26.4427 20.2439 26.4618 20.4496C26.5565 20.6031 26.5565 20.6031 26.6968 20.7388C26.7485 20.7928 26.8002 20.8469 26.8535 20.9026C26.9102 20.9597 26.9669 21.0168 27.0253 21.0757C27.0826 21.1344 27.1398 21.1932 27.1988 21.2537C27.3892 21.4483 27.5817 21.6408 27.7744 21.8331C27.8449 21.9036 27.9154 21.9742 27.9859 22.0447C28.1322 22.1912 28.2787 22.3375 28.4252 22.4837C28.6131 22.6713 28.8008 22.8591 28.9884 23.0471C29.1332 23.1922 29.2782 23.3371 29.4232 23.482C29.4926 23.5512 29.5618 23.6206 29.6311 23.6899C29.7272 23.7863 29.8236 23.8824 29.92 23.9785C29.9748 24.0332 30.0295 24.0879 30.0859 24.1442C30.258 24.306 30.3166 24.3284 30.555 24.3549C30.7866 24.3547 30.7866 24.3547 30.9193 24.197C31.0498 23.9907 31.0639 23.8825 31.0646 23.6405C31.0658 23.5268 31.0658 23.5268 31.067 23.4107C31.0666 23.3272 31.0662 23.2437 31.0658 23.1601C31.0662 23.0718 31.0668 22.9834 31.0674 22.895C31.0688 22.6555 31.0686 22.4159 31.0681 22.1763C31.0677 21.9762 31.0682 21.7761 31.0687 21.5761C31.0697 21.104 31.0695 20.632 31.0685 20.1599C31.0674 19.6731 31.0684 19.1862 31.0704 18.6994C31.0721 18.2812 31.0725 17.863 31.072 17.4448C31.0717 17.1951 31.0718 16.9454 31.0731 16.6957C31.0743 16.461 31.0739 16.2262 31.0724 15.9915C31.072 15.9054 31.0723 15.8193 31.0731 15.7332C31.1003 15.2264 31.1003 15.2264 30.8838 14.7944C30.6927 14.6725 30.5974 14.6545 30.3725 14.6665C30.2737 14.6707 30.2737 14.6707 30.1729 14.6751C30.0394 14.6844 29.9059 14.6929 29.7724 14.7004Z" fill="#2D2419"/>
<path id="Vector_18" d="M31.4151 4.64884C31.7333 4.87938 31.978 5.17283 32.0967 5.54836C32.1154 5.73765 32.1151 5.92612 32.1149 6.11621C32.1153 6.17286 32.1158 6.2295 32.1162 6.28786C32.1174 6.47482 32.1176 6.66178 32.1178 6.84874C32.1182 6.97905 32.1186 7.10935 32.119 7.23965C32.1198 7.51276 32.12 7.78585 32.1199 8.05895C32.1199 8.40822 32.1216 8.75746 32.1238 9.10673C32.1252 9.37588 32.1254 9.64503 32.1254 9.91419C32.1255 10.0429 32.1261 10.1716 32.127 10.3004C32.1283 10.4808 32.1279 10.6611 32.1271 10.8416C32.1278 10.8943 32.1286 10.947 32.1293 11.0014C32.1245 11.4491 31.9898 11.7684 31.6976 12.1068C30.4728 13.1566 27.6732 12.8942 26.1214 12.909C26.0785 12.9099 26.0356 12.9108 25.9915 12.9117C25.4603 12.9214 25.0233 12.8799 24.5835 12.5607C24.2187 12.1745 24.0679 11.8244 24.0635 11.2901C24.0629 11.2453 24.0624 11.2004 24.0619 11.1542C24.0604 11.0065 24.0598 10.8587 24.0594 10.711C24.0588 10.6077 24.0583 10.5043 24.0577 10.401C24.0567 10.1844 24.0562 9.96786 24.056 9.75129C24.0557 9.47515 24.0533 9.19908 24.0504 8.92296C24.0486 8.70944 24.0481 8.49593 24.0481 8.2824C24.0478 8.18069 24.047 8.07897 24.0457 7.97727C24.0377 7.30275 24.0855 6.77392 24.5522 6.24881C25.0724 5.86991 25.8076 5.72278 26.4173 5.54641C26.4939 5.52397 26.5706 5.50153 26.6495 5.47841C26.8106 5.43132 26.9717 5.38436 27.1328 5.33764C27.3356 5.27884 27.5382 5.21961 27.7408 5.16023C28.4603 4.94942 29.1803 4.74002 29.9042 4.54489C29.9508 4.53204 29.9975 4.51918 30.0456 4.50593C30.544 4.37437 30.9623 4.3972 31.4151 4.64884ZM29.6432 5.74402C29.5762 5.76396 29.5093 5.78389 29.4403 5.80443C28.9949 5.93776 28.5517 6.07738 28.1092 6.21983C27.6259 6.37377 27.1375 6.50866 26.6482 6.64184C26.4604 6.69336 26.2732 6.74637 26.0862 6.80056C25.9834 6.83032 25.9834 6.83032 25.8785 6.86067C25.8114 6.88135 25.7442 6.90203 25.675 6.92334C25.6143 6.94177 25.5536 6.9602 25.491 6.97919C25.3054 7.06456 25.2499 7.12596 25.147 7.30144C25.119 7.49175 25.119 7.49175 25.1237 7.70523C25.1233 7.78713 25.1229 7.86904 25.1225 7.95342C25.1231 8.04262 25.1237 8.13183 25.1243 8.22103C25.1243 8.31272 25.1243 8.4044 25.1242 8.49609C25.1242 8.68809 25.1248 8.88008 25.126 9.07207C25.1274 9.31798 25.1274 9.56386 25.127 9.80977C25.1268 9.99905 25.1272 10.1883 25.1278 10.3776C25.1281 10.4683 25.1281 10.5589 25.128 10.6496C25.128 10.7764 25.1289 10.9031 25.1298 11.0299C25.1301 11.102 25.1304 11.1741 25.1307 11.2484C25.1468 11.4315 25.1697 11.5333 25.2722 11.6841C25.466 11.8133 25.5076 11.8253 25.7269 11.8259C25.8076 11.8262 25.8076 11.8262 25.8899 11.8266C25.9774 11.8257 25.9774 11.8257 26.0666 11.8248C26.1581 11.8243 26.1581 11.8243 26.2515 11.8237C26.9507 11.8149 27.6443 11.7532 28.3401 11.6881C28.5313 11.6708 28.7224 11.6536 28.9136 11.6365C29.0359 11.6255 29.1582 11.6143 29.2805 11.6028C29.5383 11.5789 29.7953 11.5566 30.0541 11.5457C30.1316 11.5422 30.209 11.5388 30.2889 11.5352C30.3536 11.5335 30.4183 11.5317 30.485 11.5299C30.7028 11.4873 30.8104 11.3973 30.9697 11.2459C31.0673 11.0507 31.0432 10.843 31.0444 10.6286C31.0449 10.5778 31.0455 10.527 31.046 10.4746C31.0475 10.3061 31.0486 10.1375 31.0495 9.96897C31.05 9.8827 31.05 9.8827 31.0505 9.79468C31.0522 9.49026 31.0534 9.18584 31.0543 8.88141C31.0553 8.56686 31.0581 8.25234 31.0613 7.9378C31.0634 7.69604 31.0641 7.45429 31.0645 7.21253C31.0649 7.09657 31.0659 6.98062 31.0674 6.86468C31.0693 6.70233 31.0694 6.5401 31.0689 6.37775C31.0699 6.32989 31.0709 6.28204 31.072 6.23273C31.0691 5.98263 31.0415 5.87286 30.8838 5.67461C30.7312 5.53804 30.7312 5.53804 30.5557 5.51657C30.2424 5.56355 29.9459 5.65191 29.6432 5.74402Z" fill="#2D2419"/>
<path id="Vector_19" d="M1.42349 0.0194959C1.48537 0.0184949 1.54725 0.0174939 1.61101 0.0164626C1.67728 0.0161269 1.74354 0.0157911 1.81182 0.0154452C1.88076 0.0148799 1.94971 0.0143146 2.02075 0.0137322C2.16657 0.0128248 2.3124 0.012268 2.45823 0.0120365C2.67989 0.0112937 2.90144 0.00821522 3.12308 0.00505095C3.26514 0.00445811 3.40719 0.00400526 3.54925 0.00370581C3.61488 0.00248289 3.68051 0.00125998 3.74813 0C4.24331 0.00299709 4.66079 0.116421 5.03719 0.452957C5.41112 0.858669 5.53145 1.48966 5.69095 2.00307C5.72783 2.11968 5.76477 2.23626 5.80177 2.35283C5.88269 2.60847 5.96292 2.86431 6.04282 3.12026C6.14876 3.45884 6.25677 3.7967 6.36563 4.13434C6.47084 4.46076 6.57515 4.78746 6.67884 5.11436C6.74255 5.31517 6.8066 5.51585 6.87153 5.71627C6.94463 5.94284 7.0162 6.16985 7.08744 6.39702C7.10931 6.46371 7.13118 6.5304 7.15372 6.59912C7.33181 7.17618 7.42347 7.76785 7.17011 8.3345C6.94701 8.72226 6.65502 8.94723 6.23878 9.11713C5.947 9.16804 5.66577 9.18786 5.36987 9.18883C5.32929 9.18904 5.2887 9.18925 5.24689 9.18947C5.11406 9.19006 4.98123 9.19019 4.8484 9.19025C4.75507 9.19046 4.66175 9.19067 4.56842 9.19089C4.37323 9.19126 4.17804 9.19138 3.98285 9.19134C3.73425 9.19133 3.48567 9.19219 3.23707 9.19327C3.04439 9.19397 2.85171 9.19409 2.65903 9.19406C2.56746 9.19413 2.47588 9.1944 2.38431 9.19489C0.975132 9.2017 0.975131 9.2017 0.416056 8.67886C0.040378 8.27352 0.0217289 7.91776 0.0222063 7.38721C0.0217857 7.32018 0.0213651 7.25315 0.0209318 7.1841C0.0197426 6.96258 0.0194978 6.74107 0.0193631 6.51955C0.0189607 6.36538 0.0185395 6.21121 0.0181002 6.05705C0.0173503 5.73384 0.0171184 5.41063 0.0171926 5.08742C0.0172053 4.67372 0.0154962 4.26005 0.0133393 3.84636C0.0119454 3.52789 0.0116931 3.20944 0.0117593 2.89097C0.0116117 2.73848 0.0110589 2.58599 0.0100898 2.4335C0.00885978 2.21995 0.00922409 2.00646 0.00997776 1.79291C0.00927409 1.73021 0.00857042 1.66752 0.00784542 1.60293C0.0119424 1.14496 0.109158 0.809491 0.413855 0.461786C0.454613 0.42805 0.49537 0.394314 0.537363 0.359556C0.577959 0.324851 0.618555 0.290146 0.660382 0.25439C0.905464 0.0855251 1.12768 0.0231354 1.42349 0.0194959ZM1.10477 1.4161C1.05933 1.6199 1.06197 1.81902 1.06426 2.02716C1.06371 2.08838 1.06316 2.1496 1.0626 2.21267C1.06122 2.4148 1.06213 2.61683 1.06319 2.81895C1.06298 2.95953 1.06267 3.10011 1.06228 3.24069C1.06182 3.53522 1.06249 3.82973 1.06395 4.12426C1.06574 4.50177 1.06471 4.87922 1.06283 5.25673C1.0617 5.54699 1.06206 5.83723 1.06287 6.1275C1.06308 6.26669 1.06283 6.40588 1.0621 6.54507C1.0613 6.73964 1.06252 6.93409 1.06426 7.12865C1.06363 7.18616 1.06299 7.24367 1.06234 7.30293C1.06681 7.57261 1.08075 7.70462 1.23641 7.93202C1.46041 8.08111 1.58846 8.09172 1.85645 8.09128C1.9208 8.0918 1.9208 8.0918 1.98645 8.09233C2.12761 8.09307 2.26864 8.09155 2.40979 8.08993C2.50826 8.08982 2.60673 8.08983 2.7052 8.08994C2.91131 8.08984 3.11737 8.08867 3.32348 8.08669C3.58728 8.08421 3.85103 8.08393 4.11484 8.0844C4.3181 8.0846 4.52134 8.08384 4.72459 8.08277C4.82184 8.08233 4.91909 8.08213 5.01634 8.08219C5.15242 8.08207 5.28842 8.08073 5.42449 8.07905C5.50182 8.07852 5.57915 8.07799 5.65882 8.07745C5.88012 8.0507 5.99921 7.99809 6.17617 7.86493C6.30377 7.60974 6.24635 7.36216 6.16052 7.10187C6.10666 6.95011 6.05051 6.79937 5.99372 6.64868C5.87318 6.32575 5.76663 6.0023 5.67163 5.67089C5.45611 4.92899 5.2219 4.19285 4.98923 3.4562C4.92439 3.25089 4.85985 3.04548 4.79537 2.84006C4.73318 2.64212 4.67069 2.44427 4.60823 2.24642C4.58521 2.17298 4.56219 2.09955 4.53847 2.0239C4.51692 1.9559 4.49538 1.88791 4.47319 1.81785C4.45439 1.75822 4.43559 1.69859 4.41622 1.63715C4.32471 1.35287 4.32471 1.35287 4.11841 1.15121C3.97895 1.10093 3.87351 1.0861 3.72572 1.08387C3.67535 1.08286 3.62499 1.08186 3.5731 1.08083C3.51922 1.0805 3.46535 1.08016 3.40984 1.07981C3.35396 1.07925 3.29808 1.07868 3.2405 1.0781C3.12247 1.07719 3.00443 1.07664 2.88638 1.07641C2.70607 1.07566 2.52588 1.07258 2.34559 1.06942C2.23077 1.06883 2.11594 1.06838 2.00112 1.06808C1.94737 1.06685 1.89362 1.06563 1.83824 1.06437C1.78768 1.06475 1.73712 1.06513 1.68502 1.06552C1.64087 1.06521 1.59672 1.06489 1.55123 1.06456C1.3287 1.12876 1.24172 1.23103 1.10477 1.4161Z" fill="#2D2419"/>
<path id="Vector_20" d="M1.64485 11.2459C1.91492 11.3259 1.91492 11.3259 2.04399 11.4963C2.10433 11.6813 2.10433 11.6813 2.15649 11.9099C2.16614 11.9514 2.17579 11.9929 2.18574 12.0357C2.21742 12.1727 2.2481 12.3099 2.27877 12.4472C2.30086 12.5437 2.32299 12.6402 2.34517 12.7366C2.50801 13.448 2.66337 14.1611 2.8175 14.8744C2.94919 15.4823 3.08967 16.0878 3.23357 16.6929C3.46039 17.6467 3.6726 18.6033 3.87904 19.5617C3.91693 19.7362 3.95593 19.9103 3.99541 20.0844C4.04795 20.3264 4.08059 20.5168 4.0475 20.7626C3.77581 21.0803 3.42885 21.3182 3.09662 21.5687C3.04056 21.6114 2.98451 21.6541 2.92676 21.6981C2.64669 21.9104 2.36461 22.12 2.07945 22.3254C2.03026 22.3609 1.98107 22.3965 1.9304 22.4331C1.72532 22.5568 1.58656 22.5712 1.35528 22.5157C1.1808 22.3456 1.11084 22.2413 1.07314 21.9987C1.07297 21.921 1.07279 21.8432 1.07261 21.763C1.07218 21.7195 1.07174 21.676 1.07129 21.6312C1.07015 21.4857 1.07079 21.3404 1.07144 21.195C1.07099 21.0906 1.07045 20.9862 1.0698 20.8818C1.06839 20.5985 1.06858 20.3152 1.06913 20.0319C1.06945 19.7954 1.069 19.5589 1.06854 19.3224C1.06748 18.7645 1.0677 18.2066 1.06875 17.6487C1.06981 17.0731 1.06881 16.4975 1.06679 15.9219C1.06512 15.4276 1.06466 14.9334 1.0652 14.4391C1.0655 14.144 1.06536 13.8488 1.06408 13.5536C1.06293 13.2761 1.0633 12.9986 1.06485 12.7211C1.06516 12.6193 1.06494 12.5174 1.06415 12.4156C1.06315 12.2765 1.06409 12.1376 1.0655 11.9985C1.06554 11.9207 1.06558 11.8429 1.06562 11.7628C1.13104 11.4227 1.29596 11.2459 1.64485 11.2459Z" fill="#DDC29B"/>
<path id="Vector_21" d="M22.1415 1.07087C22.2545 1.06967 22.2545 1.06967 22.3697 1.06845C22.4518 1.06886 22.5339 1.06927 22.6185 1.06969C22.7063 1.06925 22.794 1.0687 22.8818 1.06806C23.1196 1.06665 23.3575 1.06683 23.5954 1.06739C23.7941 1.06771 23.9928 1.06725 24.1915 1.0668C24.6602 1.06573 25.129 1.06596 25.5977 1.067C26.0812 1.06806 26.5646 1.06707 27.048 1.06505C27.4633 1.06338 27.8786 1.06292 28.2939 1.06345C28.5418 1.06376 28.7897 1.06362 29.0377 1.06234C29.2708 1.06119 29.5039 1.06156 29.737 1.0631C29.8632 1.06357 29.9894 1.06249 30.1156 1.06136C30.7324 1.06785 30.7324 1.06785 30.9266 1.24839C31.0676 1.47216 31.0787 1.5946 31.0323 1.85441C30.7753 2.19397 30.4705 2.27014 30.0775 2.37877C30.0145 2.39709 29.9514 2.4154 29.8865 2.43427C29.6844 2.49261 29.4819 2.54936 29.2793 2.60573C29.2128 2.62432 29.1464 2.64292 29.078 2.66207C28.8129 2.73624 28.5479 2.81029 28.2826 2.88361C27.8294 3.00943 27.3811 3.14661 26.9335 3.29079C26.5713 3.40677 26.2068 3.5078 25.8384 3.6026C25.6404 3.65426 25.4442 3.71092 25.248 3.76891C25.1892 3.78618 25.1305 3.80345 25.0699 3.82125C24.9542 3.8554 24.8386 3.88995 24.7232 3.92494C24.1818 4.08405 24.1818 4.08405 23.8948 4.04576C23.775 3.9741 23.775 3.9741 23.6678 3.86967C23.604 3.80938 23.604 3.80938 23.539 3.74787C23.4911 3.70155 23.4432 3.65522 23.3939 3.60749C23.3067 3.52769 23.2195 3.4479 23.132 3.36842C23.0026 3.25061 22.8739 3.1319 22.7452 3.01325C22.6391 2.91558 22.5329 2.81812 22.4266 2.72068C22.3551 2.65498 22.2836 2.58927 22.2122 2.52356C22.1794 2.49356 22.1467 2.46356 22.1129 2.43265C22.0176 2.34485 21.923 2.25629 21.8287 2.16746C21.7937 2.1352 21.7588 2.10294 21.7228 2.06969C21.458 1.81788 21.458 1.81788 21.41 1.56484C21.453 1.35353 21.453 1.35353 21.5888 1.21712C21.7937 1.08529 21.9 1.07152 22.1415 1.07087Z" fill="#FDDEB0"/>
<path id="Vector_22" d="M13.1401 28.3192C13.2608 28.3177 13.2608 28.3177 13.3839 28.3162C13.4718 28.3158 13.5598 28.3155 13.6477 28.3152C13.738 28.3146 13.8282 28.3141 13.9184 28.3135C14.1076 28.3124 14.2967 28.312 14.4859 28.3118C14.7279 28.3114 14.9699 28.3091 15.212 28.3062C15.3984 28.3044 15.5847 28.3039 15.7711 28.3038C15.8603 28.3036 15.9496 28.3028 16.0388 28.3015C16.1637 28.2998 16.2887 28.3003 16.4137 28.3009C16.4847 28.3006 16.5557 28.3003 16.6289 28.2999C16.8811 28.3508 16.9746 28.4527 17.1329 28.6515C17.1642 28.8221 17.177 28.953 17.1744 29.123C17.1747 29.1677 17.175 29.2124 17.1753 29.2584C17.1756 29.3525 17.175 29.4466 17.1737 29.5406C17.172 29.6842 17.1737 29.8274 17.1757 29.9709C17.1755 30.0626 17.1751 30.1544 17.1744 30.2461C17.1754 30.31 17.1754 30.31 17.1764 30.3752C17.171 30.5959 17.14 30.7082 17.006 30.8854C16.7714 31.0684 16.591 31.0746 16.3055 31.0702C16.2291 31.0708 16.2291 31.0708 16.1511 31.0715C15.9832 31.0726 15.8155 31.0714 15.6476 31.07C15.5307 31.0701 15.4139 31.0702 15.297 31.0705C15.0523 31.0707 14.8076 31.0697 14.563 31.068C14.2493 31.0659 13.9357 31.0663 13.6221 31.0674C13.3809 31.0681 13.1396 31.0675 12.8984 31.0666C12.7828 31.0663 12.6671 31.0663 12.5515 31.0667C12.3899 31.067 12.2284 31.0658 12.0668 31.0641C11.9951 31.0647 11.9951 31.0647 11.922 31.0653C11.7053 31.0614 11.5822 31.0467 11.4057 30.9163C11.263 30.7131 11.2761 30.5855 11.3101 30.3419C11.3933 30.1784 11.4737 30.0414 11.5774 29.8927C11.6048 29.8519 11.6321 29.8111 11.6603 29.7691C11.718 29.6835 11.7762 29.5982 11.8348 29.5133C11.9245 29.3832 12.0127 29.2522 12.1007 29.1209C12.1571 29.0377 12.2135 28.9545 12.2701 28.8713C12.2965 28.8323 12.3229 28.7932 12.3501 28.753C12.5856 28.413 12.7295 28.3231 13.1401 28.3192Z" fill="#FEDFB1"/>
<path id="Vector_23" d="M1.16736 12.5607C1.301 12.7612 1.33384 12.8941 1.38307 13.1281C1.39986 13.2066 1.41665 13.2851 1.43394 13.366C1.44276 13.4081 1.45158 13.4501 1.46066 13.4935C1.50829 13.7207 1.5573 13.9476 1.60612 14.1746C1.61629 14.222 1.62645 14.2695 1.63693 14.3183C1.74701 14.8305 1.86383 15.3411 1.98129 15.8516C2.02346 16.0352 2.0656 16.2188 2.10773 16.4024C2.11808 16.4475 2.12843 16.4925 2.1391 16.539C2.26652 17.0942 2.392 17.6499 2.51667 18.2058C2.59804 18.5682 2.68041 18.9303 2.76685 19.2915C2.78165 19.3541 2.79644 19.4166 2.81168 19.4811C2.83862 19.5946 2.86604 19.7081 2.89407 19.8213C2.98905 20.2242 3.04861 20.6203 2.92044 21.0209C2.63325 21.4337 2.20396 21.7127 1.8052 22.0109C1.76398 22.042 1.72276 22.0731 1.68029 22.1052C1.37731 22.3278 1.37731 22.3278 1.16736 22.3278C1.16736 19.1047 1.16736 15.8815 1.16736 12.5607Z" fill="#FEDFB1"/>
<path id="Vector_24" d="M5.67527 11.2458C6.46337 11.2357 7.25145 11.2279 8.0396 11.2231C8.40563 11.2209 8.77161 11.2178 9.1376 11.2128C9.4912 11.208 9.84475 11.2054 10.1984 11.2043C10.3329 11.2035 10.4674 11.2019 10.6019 11.1995C11.9269 11.177 11.9269 11.177 12.4998 11.6841C12.592 11.7505 12.6848 11.8162 12.7783 11.8808C12.8669 11.9455 12.9554 12.0104 13.0437 12.0754C13.3716 12.3151 13.7011 12.5509 14.0376 12.7784C14.6683 13.2054 14.6683 13.2054 14.9455 13.4215C14.9836 13.4509 15.0218 13.4803 15.0611 13.5106C15.1294 13.625 15.1294 13.625 15.1338 13.8261C15.0459 14.1371 14.8904 14.317 14.6794 14.5564C14.5989 14.6507 14.5184 14.7451 14.438 14.8396C14.3967 14.8874 14.3554 14.9352 14.3129 14.9845C14.1224 15.2068 13.9373 15.4334 13.752 15.6599C13.6789 15.7486 13.6059 15.8373 13.5328 15.9259C13.4967 15.9699 13.4605 16.0138 13.4233 16.059C12.7293 16.9016 12.0354 17.7442 11.3415 18.5869C11.3053 18.6308 11.2691 18.6748 11.2318 18.7201C11.1593 18.8081 11.0867 18.8961 11.0141 18.9841C10.8228 19.216 10.6324 19.4486 10.4429 19.6821C10.4034 19.7306 10.3638 19.7791 10.3231 19.8292C10.2474 19.9222 10.1719 20.0153 10.0966 20.1087C9.75494 20.5273 9.75494 20.5273 9.55709 20.6373C9.34578 20.6217 9.34578 20.6217 9.11882 20.5747C9.04779 20.5631 8.97677 20.5515 8.9036 20.5395C8.85065 20.5305 8.79771 20.5214 8.74316 20.5121C8.80514 20.4915 8.86712 20.4708 8.93099 20.4495C8.9738 20.3666 9.01526 20.2829 9.05621 20.1991C9.16116 20.0687 9.26728 19.9417 9.37708 19.8156C9.44017 19.7421 9.50318 19.6686 9.56614 19.595C9.59694 19.559 9.62774 19.523 9.65947 19.486C9.7702 19.3553 9.87727 19.222 9.98362 19.0878C10.4743 18.4694 10.9787 17.8616 11.4902 17.2603C11.7216 16.9883 11.9473 16.7126 12.1691 16.4327C12.3191 16.2457 12.4715 16.0608 12.6243 15.8761C12.9455 15.4879 13.2656 15.0989 13.5798 14.7051C13.6224 14.6525 13.6224 14.6525 13.6658 14.5988C13.8721 14.3381 13.9863 14.1228 14.0298 13.7933C13.9882 13.4427 13.8307 13.1864 13.5654 12.952C13.4192 12.8439 13.2701 12.7426 13.118 12.6428C13.0697 12.6101 13.0213 12.5774 12.9715 12.5437C12.8612 12.469 12.7493 12.3967 12.6365 12.3259C12.4785 12.2143 12.3634 12.1137 12.2299 11.9779C11.2436 11.0567 9.83944 11.2652 8.58277 11.2862C8.25451 11.2907 7.92625 11.2906 7.59796 11.291C6.95698 11.2923 6.31617 11.2987 5.67527 11.3085C5.67527 11.2878 5.67527 11.2671 5.67527 11.2458Z" fill="#DBC099"/>
<path id="Vector_25" d="M24.7661 23.3417C25.0671 23.4582 25.2815 23.7284 25.5028 23.9548C25.5625 24.0145 25.6223 24.0742 25.6822 24.1337C25.8441 24.2952 26.0048 24.4579 26.1653 24.6207C26.3334 24.7911 26.5027 24.9603 26.6718 25.1297C26.9554 25.4141 27.2384 25.6992 27.5209 25.9848C27.9196 26.3878 28.3195 26.7895 28.7197 27.1911C29.0302 27.5027 29.3404 27.8147 29.6505 28.1268C29.6838 28.1603 29.7171 28.1938 29.7514 28.2284C29.9426 28.4207 30.1337 28.6133 30.3244 28.8061C30.41 28.8925 30.4957 28.9788 30.5814 29.065C30.6319 29.1162 30.6825 29.1674 30.7346 29.2201C30.8008 29.287 30.8008 29.287 30.8684 29.3553C31.0824 29.5878 31.0506 29.842 31.0558 30.1423C31.0593 30.2182 31.0593 30.2182 31.0629 30.2955C31.0636 30.3448 31.0643 30.3941 31.0651 30.4448C31.0663 30.4896 31.0676 30.5344 31.0688 30.5805C31.0113 30.7962 30.8885 30.8897 30.7193 31.0306C30.5233 31.0691 30.5233 31.0691 30.2989 31.0682C30.2575 31.0685 30.2161 31.0688 30.1734 31.0691C30.035 31.0696 29.8968 31.0678 29.7584 31.0661C29.659 31.066 29.5597 31.0661 29.4603 31.0663C29.1909 31.0664 28.9215 31.0645 28.652 31.0623C28.3704 31.0604 28.0887 31.0602 27.807 31.0598C27.2737 31.0589 26.7404 31.0563 26.2072 31.0531C25.6 31.0496 24.9928 31.0479 24.3857 31.0463C23.1368 31.0431 21.8879 31.0376 20.6391 31.0306C20.6391 31.0099 20.6391 30.9893 20.6391 30.968C23.6969 30.968 26.7548 30.968 29.9053 30.968C29.9926 29.8183 29.9926 29.8183 29.5181 28.9064C29.4795 28.8644 29.441 28.8223 29.4012 28.779C29.1952 28.5635 28.9868 28.3508 28.7754 28.1405C28.7271 28.0922 28.6788 28.0439 28.629 27.9941C28.471 27.8361 28.3127 27.6783 28.1545 27.5205C28.0442 27.4104 27.9339 27.3002 27.8236 27.19C27.5347 26.9012 27.2455 26.6127 26.9563 26.3242C26.6607 26.0292 26.3653 25.7341 26.0699 25.439C25.4911 24.8609 24.9121 24.283 24.333 23.7052C24.0834 23.8207 23.9121 23.9841 23.7208 24.178C23.6854 24.2134 23.6499 24.2489 23.6134 24.2854C23.4965 24.4023 23.3802 24.5197 23.2638 24.637C23.1827 24.7183 23.1017 24.7995 23.0206 24.8808C22.8075 25.0944 22.5947 25.3083 22.382 25.5224C22.1649 25.7409 21.9473 25.959 21.7298 26.1771C21.3033 26.605 20.8771 27.0333 20.4512 27.4618C20.4512 27.2257 20.536 27.1669 20.6962 27.005C20.7503 26.9517 20.7503 26.9517 20.8056 26.8973C20.8432 26.8595 20.8809 26.8217 20.9197 26.7828C21.0447 26.6577 21.1703 26.5332 21.296 26.4087C21.3827 26.3221 21.4695 26.2355 21.5562 26.1489C21.7381 25.9672 21.9203 25.7859 22.1028 25.6048C22.3371 25.3723 22.5708 25.1392 22.8044 24.906C22.9835 24.7271 23.1628 24.5484 23.3422 24.3697C23.4285 24.2838 23.5147 24.1979 23.6009 24.112C23.7213 23.992 23.8418 23.8723 23.9625 23.7526C23.9983 23.7169 24.0342 23.6811 24.0711 23.6442C24.4333 23.286 24.4333 23.286 24.7661 23.3417Z" fill="#DFC49C"/>
<path id="Vector_26" d="M1.4177 1.10308C1.7787 1.09998 2.13969 1.09771 2.50069 1.0962C2.62349 1.09557 2.74628 1.09471 2.86907 1.09363C3.04563 1.09211 3.22216 1.0914 3.39872 1.09085C3.45358 1.0902 3.50844 1.08955 3.56496 1.08889C3.61633 1.08888 3.66771 1.08887 3.72064 1.08886C3.76568 1.08858 3.81073 1.0883 3.85714 1.08802C4.00862 1.1059 4.10647 1.14685 4.23515 1.2283C4.3217 1.39651 4.3217 1.39651 4.40293 1.62474C4.41837 1.66789 4.43382 1.71103 4.44973 1.75548C4.6995 2.46597 4.91975 3.18704 5.14443 3.90574C5.20725 4.10643 5.2704 4.30702 5.33352 4.50761C5.51418 5.0824 5.69432 5.65734 5.87252 6.23289C5.89221 6.29645 5.9119 6.36001 5.93219 6.42549C6.00636 6.67333 6.07288 6.92287 6.13766 7.17331C6.16453 7.29983 6.16453 7.29983 6.23867 7.36407C6.25722 7.57277 6.26109 7.70023 6.1565 7.88452C6.00192 8.03909 5.88194 8.05219 5.66662 8.0589C5.59326 8.05817 5.51989 8.05744 5.44431 8.0567C5.37046 8.05613 5.29661 8.05557 5.22053 8.05498C5.13566 8.05389 5.13566 8.05389 5.04908 8.05278C5.05941 8.02179 5.06974 7.9908 5.08039 7.95887C5.16484 7.53658 5.09964 7.19357 4.95835 6.79691C4.94241 6.75012 4.92648 6.70332 4.91006 6.65511C4.85929 6.50638 4.8075 6.35804 4.7556 6.2097C4.68849 6.01555 4.6218 5.82125 4.55529 5.62689C4.53874 5.57866 4.52219 5.53042 4.50514 5.48073C4.35077 5.02713 4.2164 4.5686 4.08378 4.10828C3.9823 3.75997 3.87337 3.41386 3.76558 3.06746C3.72921 2.95037 3.72921 2.95037 3.6921 2.83092C3.52484 2.29434 3.35202 1.7603 3.17078 1.2283C2.30301 1.1973 2.30301 1.1973 1.4177 1.16569C1.4177 1.14502 1.4177 1.12436 1.4177 1.10308Z" fill="#DCC19A"/>
<path id="Vector_27" d="M30.7193 5.54836C30.9449 5.72055 31.0243 5.81337 31.0716 6.09661C31.0733 6.18931 31.0733 6.28205 31.0718 6.37476C31.0723 6.4256 31.0727 6.47644 31.0732 6.52882C31.0742 6.69639 31.073 6.86386 31.0717 7.03143C31.0717 7.14815 31.0719 7.26486 31.0721 7.38158C31.0723 7.62601 31.0714 7.8704 31.0697 8.11482C31.0675 8.4279 31.0679 8.74091 31.0691 9.054C31.0698 9.29495 31.0692 9.53589 31.0683 9.77685C31.0679 9.89227 31.068 10.0077 31.0684 10.1231C31.0687 10.2845 31.0674 10.4459 31.0657 10.6073C31.0661 10.6549 31.0665 10.7024 31.0669 10.7514C31.0614 11.0587 31.0016 11.2183 30.7819 11.4337C30.6013 11.524 30.4427 11.5022 30.2419 11.5002C30.1674 11.4997 30.093 11.4991 30.0164 11.4985C29.9304 11.4974 29.9304 11.4974 29.8427 11.4963C29.8529 11.46 29.8631 11.4236 29.8736 11.3862C29.9244 11.1617 29.9134 10.9349 29.9124 10.7059C29.9124 10.6515 29.9125 10.5971 29.9125 10.5411C29.9124 10.3616 29.9119 10.182 29.9114 10.0025C29.9113 9.8779 29.9112 9.75332 29.9112 9.62875C29.9109 9.30102 29.9103 8.97329 29.9096 8.64557C29.909 8.31109 29.9087 7.9766 29.9084 7.64212C29.9077 6.98594 29.9066 6.32976 29.9053 5.67358C30.4632 5.50939 30.4632 5.50939 30.7193 5.54836Z" fill="#DDC29A"/>
<path id="Vector_28" d="M12.7502 28.3384C13.2754 28.3311 13.8006 28.3256 14.3258 28.3222C14.5697 28.3205 14.8136 28.3183 15.0575 28.3148C15.2929 28.3114 15.5283 28.3095 15.7638 28.3087C15.8536 28.3081 15.9433 28.307 16.033 28.3053C16.1589 28.303 16.2848 28.3029 16.4107 28.3028C16.4823 28.3022 16.5539 28.3015 16.6277 28.3007C16.8813 28.3504 16.9742 28.4516 17.1329 28.6514C17.1642 28.822 17.177 28.953 17.1744 29.123C17.1747 29.1676 17.175 29.2123 17.1754 29.2583C17.1756 29.3524 17.175 29.4465 17.1737 29.5406C17.172 29.6841 17.1737 29.8274 17.1757 29.9709C17.1755 30.0626 17.1751 30.1543 17.1744 30.246C17.1754 30.3099 17.1754 30.3099 17.1764 30.3751C17.171 30.5958 17.1398 30.7083 17.0062 30.8856C16.77 31.0694 16.5885 31.0729 16.3015 31.0662C16.2245 31.0662 16.2245 31.0662 16.1459 31.0663C15.9768 31.0661 15.8079 31.0636 15.6388 31.0612C15.5213 31.0606 15.4039 31.0602 15.2864 31.0598C14.9777 31.0587 14.669 31.0556 14.3603 31.0521C14.0452 31.0489 13.73 31.0475 13.4148 31.0459C12.7967 31.0425 12.1786 31.0372 11.5606 31.0306C11.5606 31.01 11.5606 30.9893 11.5606 30.968C13.0275 30.968 14.4945 30.968 16.0059 30.968C16.0059 30.1209 16.0059 29.2738 16.0059 28.401C14.9315 28.401 13.8571 28.401 12.7502 28.401C12.7502 28.3803 12.7502 28.3597 12.7502 28.3384Z" fill="#DBC099"/>
<path id="Vector_29" d="M29.8426 1.10305C30.6398 1.05451 30.6398 1.05451 30.9305 1.23218C31.0598 1.46601 31.0793 1.59098 31.0322 1.85437C30.7945 2.15205 30.5597 2.2477 30.2066 2.34742C30.1612 2.36147 30.1159 2.37551 30.0692 2.38998C29.7353 2.48939 29.7353 2.48939 29.5922 2.41786C29.6523 2.34619 29.6523 2.34619 29.7135 2.27307C29.8888 2.04464 29.9139 1.88393 29.9131 1.60393C29.9133 1.52258 29.9133 1.52258 29.9136 1.43958C29.9113 1.28148 29.9113 1.28148 29.8426 1.10305Z" fill="#D9BF98"/>
</g>
  </svg>
  <!-- Circle outline -->
  <circle cx="32.5" cy="32.5" r="32.5" fill="none" stroke="#E0E0E0" stroke-width="0.365"/>
</svg>