<svg width="56" height="56" viewBox="0 0 56 56" fill="none" xmlns="http://www.w3.org/2000/svg"><circle cx="28" cy="28" r="28" fill="#BFD9E8"/><path d="M28 56c-8 0-15-2-20-6v-4c0-8 9-14 20-14s20 6 20 14v4c-5 4-12 6-20 6z" fill="#8BC34A"/><path d="M28 32v-10" stroke="#5F3D1A" stroke-width="2.2" stroke-linecap="round"/><circle cx="28" cy="20" r="3" fill="#5F3D1A"/><g stroke="#4AA3E0" stroke-width="1.6" stroke-linecap="round"><path d="M28 16l-4-5M28 16l-2-6M28 16l2-6M28 16l4-5M20 18l-6-2M36 18l6-2"/></g><g stroke="#2E7D33" stroke-width="1.4" stroke-linecap="round"><path d="M14 40v4M18 40v4M22 40v4M26 40v4M30 40v4M34 40v4M38 40v4M42 40v4"/></g></svg>
