<svg width="66" height="66" viewBox="0 0 66 66" fill="none" xmlns="http://www.w3.org/2000/svg">
<path d="M32.6826 65.1826C50.6319 65.1826 65.1826 50.6319 65.1826 32.6826C65.1826 14.7334 50.6319 0.182617 32.6826 0.182617C14.7334 0.182617 0.182617 14.7334 0.182617 32.6826C0.182617 50.6319 14.7334 65.1826 32.6826 65.1826Z" fill="#E8DFF5"/>
<mask id="mask_sc" style="mask-type:luminance" maskUnits="userSpaceOnUse" x="0" y="0" width="66" height="66">
<path d="M32.6826 65.1826C50.6319 65.1826 65.1826 50.6319 65.1826 32.6826C65.1826 14.7334 50.6319 0.182617 32.6826 0.182617C14.7334 0.182617 0.182617 14.7334 0.182617 32.6826C0.182617 50.6319 14.7334 65.1826 32.6826 65.1826Z" fill="white"/>
</mask>
<g mask="url(#mask_sc)">
<path d="M32.6827 67.3736C51.842 67.3736 67.3737 58.3816 67.3737 47.2893C67.3737 36.1971 51.842 27.2051 32.6827 27.2051C13.5234 27.2051 -2.0083 36.1971 -2.0083 47.2893C-2.0083 58.3816 13.5234 67.3736 32.6827 67.3736Z" fill="#7E6FB0"/>
<path d="M65.1826 47.2893H0.182617V69.1994H65.1826V47.2893Z" fill="#6B5C9C"/>
<path opacity="0.85" d="M14.5 11C18.9 11 22.5 9.5 22.5 7.7C22.5 5.9 18.9 4.4 14.5 4.4C10.1 4.4 6.5 5.9 6.5 7.7C6.5 9.5 10.1 11 14.5 11Z" fill="white"/>
<path opacity="0.85" d="M50 8C53.2 8 55.8 6.9 55.8 5.5C55.8 4.1 53.2 3 50 3C46.8 3 44.2 4.1 44.2 5.5C44.2 6.9 46.8 8 50 8Z" fill="white"/>
<rect x="16" y="22" width="34" height="26" rx="2" fill="#FAFAFA" stroke="#5C4D80" stroke-width="0.7"/>
<rect x="16" y="22" width="34" height="5" rx="2" fill="#5C4D80"/>
<circle cx="48" cy="24.5" r="0.6" fill="#4CAF50"/>
<rect x="20" y="30" width="26" height="10" rx="0.8" fill="#0D47A1" stroke="#1A237E" stroke-width="0.4"/>
<text x="33" y="36" font-family="monospace" font-size="4.5" fill="#64B5F6" text-anchor="middle" font-weight="bold">6:30</text>
<text x="33" y="39" font-family="sans-serif" font-size="2" fill="#90CAF9" text-anchor="middle">ZONE 3</text>
<circle cx="20" cy="44" r="1.5" fill="#4CAF50"/>
<circle cx="25" cy="44" r="1.5" fill="#FFC107"/>
<circle cx="30" cy="44" r="1.5" fill="#90A4AE"/>
<circle cx="35" cy="44" r="1.5" fill="#90A4AE"/>
<rect x="40" y="42" width="4" height="3" rx="0.4" fill="#1E88E5"/>
<rect x="45" y="42" width="2" height="3" rx="0.4" fill="#37474F"/>
<path d="M28 17 Q 33 13 38 17" stroke="#1E88E5" stroke-width="1.2" fill="none" stroke-linecap="round"/>
<path d="M30 19 Q 33 16 36 19" stroke="#1E88E5" stroke-width="1.2" fill="none" stroke-linecap="round" opacity="0.85"/>
<circle cx="33" cy="20.5" r="0.7" fill="#1E88E5"/>
<path d="M53 30 L 50 36 L 52 36 L 51 41 L 56 33 L 54 33 L 55 30 Z" fill="#FFEB3B" stroke="#F57F17" stroke-width="0.4"/>
</g>
<path d="M32.6826 65.1826C50.6319 65.1826 65.1826 50.6319 65.1826 32.6826C65.1826 14.7334 50.6319 0.182617 32.6826 0.182617C14.7334 0.182617 0.182617 14.7334 0.182617 32.6826C0.182617 50.6319 14.7334 65.1826 32.6826 65.1826Z" stroke="#E0E0E0" stroke-width="0.365169"/>
</svg>
