<svg width="66" height="66" viewBox="0 0 66 66" fill="none" xmlns="http://www.w3.org/2000/svg">
<path d="M32.6826 65.1826C50.6319 65.1826 65.1826 50.6319 65.1826 32.6826C65.1826 14.7334 50.6319 0.182617 32.6826 0.182617C14.7334 0.182617 0.182617 14.7334 0.182617 32.6826C0.182617 50.6319 14.7334 65.1826 32.6826 65.1826Z" fill="#B8DFF0"/>
<mask id="mask0_53_3310" style="mask-type:luminance" maskUnits="userSpaceOnUse" x="0" y="0" width="66" height="66">
<path d="M32.6826 65.1826C50.6319 65.1826 65.1826 50.6319 65.1826 32.6826C65.1826 14.7334 50.6319 0.182617 32.6826 0.182617C14.7334 0.182617 0.182617 14.7334 0.182617 32.6826C0.182617 50.6319 14.7334 65.1826 32.6826 65.1826Z" fill="white"/>
</mask>
<g mask="url(#mask0_53_3310)">
<path d="M32.6827 67.3736C51.842 67.3736 67.3737 58.3816 67.3737 47.2893C67.3737 36.1971 51.842 27.2051 32.6827 27.2051C13.5234 27.2051 -2.0083 36.1971 -2.0083 47.2893C-2.0083 58.3816 13.5234 67.3736 32.6827 67.3736Z" fill="#6ABF3A"/>
<path d="M65.1826 47.2893H0.182617V69.1994H65.1826V47.2893Z" fill="#5AAD2E"/>
<path d="M15.1546 37.795C19.5915 37.795 23.1883 34.1981 23.1883 29.7612C23.1883 25.3244 19.5915 21.7275 15.1546 21.7275C10.7177 21.7275 7.12085 25.3244 7.12085 29.7612C7.12085 34.1981 10.7177 37.795 15.1546 37.795Z" fill="#4CAF50"/>
<path d="M18.0759 31.9522C21.3027 31.9522 23.9185 29.3364 23.9185 26.1095C23.9185 22.8827 21.3027 20.2668 18.0759 20.2668C14.849 20.2668 12.2332 22.8827 12.2332 26.1095C12.2332 29.3364 14.849 31.9522 18.0759 31.9522Z" fill="#57C04A"/>
<path d="M15.8849 37.0647H14.4242C14.0208 37.0647 13.6938 37.3917 13.6938 37.795V42.9074C13.6938 43.3107 14.0208 43.6377 14.4242 43.6377H15.8849C16.2882 43.6377 16.6152 43.3107 16.6152 42.9074V37.795C16.6152 37.3917 16.2882 37.0647 15.8849 37.0647Z" fill="#5D4037"/>
<path d="M49.1151 38.5253C53.1487 38.5253 56.4185 35.2555 56.4185 31.222C56.4185 27.1884 53.1487 23.9186 49.1151 23.9186C45.0816 23.9186 41.8118 27.1884 41.8118 31.222C41.8118 35.2555 45.0816 38.5253 49.1151 38.5253Z" fill="#43A047"/>
<path d="M51.6714 32.6826C54.4949 32.6826 56.7838 30.3937 56.7838 27.5702C56.7838 24.7468 54.4949 22.4579 51.6714 22.4579C48.848 22.4579 46.5591 24.7468 46.5591 27.5702C46.5591 30.3937 48.848 32.6826 51.6714 32.6826Z" fill="#57C04A"/>
<path d="M49.8456 37.7949H48.3849C47.9815 37.7949 47.6545 38.1219 47.6545 38.5253V42.9073C47.6545 43.3106 47.9815 43.6376 48.3849 43.6376H49.8456C50.2489 43.6376 50.5759 43.3106 50.5759 42.9073V38.5253C50.5759 38.1219 50.2489 37.7949 49.8456 37.7949Z" fill="#5D4037"/>
<path d="M34.0221 15.1589H33.0677C32.277 15.1589 31.636 15.7999 31.636 16.5906V40.4521C31.636 41.2428 32.277 41.8838 33.0677 41.8838H34.0221C34.8128 41.8838 35.4538 41.2428 35.4538 40.4521V16.5906C35.4538 15.7999 34.8128 15.1589 34.0221 15.1589Z" fill="#795548"/>
<path d="M35.4538 39.0204H31.636V41.8838H35.4538V39.0204Z" fill="#5D4037"/>
<path d="M27.8181 41.8838H39.2716" stroke="#546E7A" stroke-width="0.715844"/>
<path opacity="0.5" d="M33.545 58.1095C40.9249 58.1095 46.9074 56.4002 46.9074 54.2917C46.9074 52.1832 40.9249 50.4739 33.545 50.4739C26.1652 50.4739 20.1826 52.1832 20.1826 54.2917C20.1826 56.4002 26.1652 58.1095 33.545 58.1095Z" fill="#715044"/>
<path d="M34.4995 11.3411C34.4995 10.8139 34.0722 10.3866 33.545 10.3866C33.0179 10.3866 32.5906 10.8139 32.5906 11.3411V16.1133C32.5906 16.6405 33.0179 17.0678 33.545 17.0678C34.0722 17.0678 34.4995 16.6405 34.4995 16.1133V11.3411Z" fill="#795548"/>
<path d="M33.5448 12.7727C35.9169 12.7727 37.8399 10.8498 37.8399 8.47768C37.8399 6.10558 35.9169 4.18262 33.5448 4.18262C31.1727 4.18262 29.2498 6.10558 29.2498 8.47768C29.2498 10.8498 31.1727 12.7727 33.5448 12.7727Z" fill="#66BB6A"/>
<path d="M30.2044 13.7272C32.0493 13.7272 33.545 12.2316 33.545 10.3866C33.545 8.54166 32.0493 7.04602 30.2044 7.04602C28.3594 7.04602 26.8638 8.54166 26.8638 10.3866C26.8638 12.2316 28.3594 13.7272 30.2044 13.7272Z" fill="#57C04A"/>
<path opacity="0.85" d="M20.9972 18.0759C25.0308 18.0759 28.3006 16.7679 28.3006 15.1545C28.3006 13.5411 25.0308 12.2332 20.9972 12.2332C16.9637 12.2332 13.6938 13.5411 13.6938 15.1545C13.6938 16.7679 16.9637 18.0759 20.9972 18.0759Z" fill="white"/>
<path opacity="0.85" d="M42.9073 14.4241C45.7308 14.4241 48.0196 13.4432 48.0196 12.2331C48.0196 11.0231 45.7308 10.0421 42.9073 10.0421C40.0838 10.0421 37.7949 11.0231 37.7949 12.2331C37.7949 13.4432 40.0838 14.4241 42.9073 14.4241Z" fill="white"/>
<path d="M27.8181 41.8838C27.8181 48.2468 29.727 51.7465 33.5449 52.3828C37.3627 51.7465 39.2716 48.2468 39.2716 41.8838H27.8181Z" fill="#607D8B"/>
</g>
<path d="M32.6826 65.1826C50.6319 65.1826 65.1826 50.6319 65.1826 32.6826C65.1826 14.7334 50.6319 0.182617 32.6826 0.182617C14.7334 0.182617 0.182617 14.7334 0.182617 32.6826C0.182617 50.6319 14.7334 65.1826 32.6826 65.1826Z" stroke="#E0E0E0" stroke-width="0.365169"/>
</svg>
