<svg width="154" height="105" viewBox="0 0 154 105" fill="none" xmlns="http://www.w3.org/2000/svg">
<path d="M152.362 104.518C153.189 103.851 153.263 103.536 153.361 102.424C153.831 96.6729 153.52 91.3112 150.13 86.266C148.683 84.5428 146.725 83.606 144.652 83.2262C144.395 83.3498 144.138 83.4733 143.873 83.6007C143.767 83.405 143.661 83.2094 143.552 83.0079C141.963 80.1463 140.16 77.453 138.337 74.744C138.662 74.7689 138.988 74.7937 139.323 74.8193C146.814 75.3345 146.814 75.3345 148.859 74.1568C149.32 73.6531 149.32 73.6531 149.43 72.5529C147.699 68.2966 143.464 63.4379 139.556 61.3888C136.973 60.2631 134.638 59.9051 132.102 60.9009C131.247 61.3201 130.645 61.8361 129.985 62.5349C129.816 62.7126 129.646 62.8903 129.472 63.0734C129.346 63.2088 129.219 63.3443 129.089 63.4838C128.921 63.3156 128.754 63.1475 128.582 62.9743C124.432 58.8155 120.191 54.8604 115.758 51.0448C115.946 51.0284 116.135 51.012 116.329 50.9952C118.62 50.721 120.511 49.9588 122.552 48.9434C123.072 48.6851 123.595 48.4345 124.12 48.1847C129.513 45.5531 129.513 45.5531 130.26 43.7595C130.408 42.9554 130.408 42.9554 130.028 42.1484C129.199 41.2342 128.326 40.6432 127.292 40.0469C127.094 39.9306 126.897 39.8143 126.693 39.6945C124.628 38.5037 122.514 37.5207 120.335 36.6288C120.036 36.5061 119.737 36.3834 119.43 36.257C115.354 34.7357 111.585 35.0696 107.899 36.9103C105.762 38.2008 104.757 40.217 104.075 42.6998C103.928 42.5395 103.782 42.3792 103.63 42.2141C102.619 41.3013 101.529 40.6502 100.381 39.9601C100.141 39.815 99.9019 39.6698 99.6553 39.5202C97.703 38.3458 95.723 37.2464 93.7233 36.1758C92.4793 35.507 91.2537 34.8069 90.0296 34.0944C90.2003 34.0681 90.371 34.0419 90.5469 34.0148C95.8681 32.9134 100.904 27.2424 103.948 22.9158C104.22 22.3871 104.22 22.3871 104.33 21.287C103.77 20.1439 103.391 19.7732 102.266 19.2634C101.871 19.1433 101.474 19.0307 101.077 18.9244C100.863 18.8635 100.65 18.8027 100.43 18.74C93.8462 16.9282 87.2891 16.0407 81.3722 19.4089C79.4524 20.806 77.9903 22.7403 77.485 25.2162C77.2249 27.405 77.2249 27.405 77.743 28.4828C75.8102 28.0355 73.9419 27.4539 72.0621 26.7636C68.3524 25.4115 64.5819 24.4585 60.757 23.7341C61.1867 23.4311 61.1867 23.4311 61.6251 23.1219C66.1396 19.8326 69.4673 15.6988 72.1355 10.634C72.4047 10.1319 72.6924 9.64192 72.9812 9.15302C74.1033 7.18937 74.1033 7.18937 73.9192 5.64959C73.25 4.5615 72.9231 4.48364 71.7867 4.12246C70.9875 3.9969 70.9875 3.9969 70.1427 3.93379C69.83 3.91021 69.5172 3.88664 69.195 3.86235C68.8649 3.84128 68.5349 3.82023 68.1949 3.79853C67.6844 3.7652 67.6844 3.7652 67.1637 3.73121C60.586 3.34617 53.5875 3.9129 48.6019 8.50492C46.487 10.7996 45.1004 13.6636 45.0108 17.0193C45.1392 18.6092 45.7155 19.7624 46.432 21.1965C46.1916 21.175 45.9513 21.1535 45.7037 21.1313C44.7901 21.0502 43.8765 20.9704 42.9629 20.8914C42.3818 20.8408 41.8008 20.7888 41.2197 20.7367C38.6615 20.5168 36.1332 20.4083 33.5802 20.3938C33.8295 20.1444 34.0788 19.895 34.3357 19.638C38.3383 15.5155 41.6877 11.1192 44.577 6.03327C44.7305 5.76466 44.8841 5.49605 45.0423 5.21929C45.5986 4.15843 45.854 3.56989 45.7599 2.30168C45.081 1.18238 44.4746 1.10168 43.2988 0.714358C42.475 0.554495 41.6575 0.469138 40.8287 0.396586C40.4783 0.364041 40.4783 0.364041 40.1208 0.330835C32.2692 -0.353769 23.2355 -0.489268 17.2688 5.1884C14.8084 7.85747 13.1602 10.6634 13.202 14.6145C13.4556 17.3639 14.6404 19.2628 16.4379 21.3046C16.1539 21.3438 16.1539 21.3438 15.8642 21.3838C12.2737 21.8868 8.7099 22.4482 5.18467 23.2455C4.89953 23.3089 4.6144 23.3723 4.32063 23.4377C2.87215 23.776 1.54263 24.1335 0.262449 24.8917C-0.0268609 25.6198 -0.0268609 25.6198 0.0286388 26.4002C0.550462 27.3257 0.806562 27.6276 1.76154 28.0103C2.49024 27.8983 2.49024 27.8983 3.37849 27.6857C3.70782 27.609 4.03715 27.5323 4.37645 27.4533C4.72965 27.3693 5.08286 27.2853 5.44677 27.1987C9.06476 26.3635 12.6926 25.7053 16.3791 25.1721C16.2792 25.3902 16.1792 25.6083 16.0763 25.833C14.6301 29.3247 14.5526 32.871 15.8819 36.6315C15.992 36.907 16.1022 37.1824 16.2157 37.4663C16.3174 37.7242 16.4192 37.9821 16.524 38.2479C20.0904 46.3871 28.3646 52.1376 35.6923 55.9888C35.8906 56.0932 36.0888 56.1976 36.293 56.3051C36.9926 56.5451 37.3764 56.5051 38.0491 56.2888C39.191 55.0275 39.0723 53.5462 39.0466 51.8392C39.0442 51.5487 39.0419 51.2582 39.0394 50.9589C38.8774 41.725 37.2705 32.3305 30.7887 25.2259C30.5186 24.8911 30.25 24.555 29.984 24.2166C34.0412 24.233 38.0902 24.3257 42.1566 24.6041C42.4971 24.627 42.8375 24.6499 43.1882 24.6736C45.0494 24.8087 46.8821 25.0144 48.7358 25.3243C48.6453 25.5033 48.5547 25.6823 48.4614 25.8667C46.8256 29.1454 46.5368 32.1371 47.5012 35.9303C47.6341 36.248 47.767 36.5656 47.9039 36.8929C48.0596 37.2715 48.2152 37.6502 48.3756 38.0404C51.8162 44.8957 58.1343 49.2967 64.44 52.8206C64.9348 53.0976 65.4253 53.384 65.9153 53.6711C66.6933 54.0375 66.6933 54.0375 67.6888 53.8643C68.789 52.9267 68.6952 52.2603 68.8083 50.7866C68.8615 49.3335 68.7787 47.901 68.6554 46.4411C68.6306 46.134 68.6058 45.8269 68.5803 45.5106C68.0361 39.215 66.6714 33.5944 63.1971 28.1455C68.4844 29.4973 73.6488 31.0928 78.7486 33.2347C78.5815 33.5454 78.4144 33.8561 78.2423 34.1762C76.5329 37.4761 76.0085 40.3376 76.9886 44.2023C79.3376 50.3796 83.2724 54.9769 88.2683 59.0234C88.4672 59.1921 88.6662 59.3609 88.8712 59.5347C89.4625 59.9988 89.9826 60.3712 90.6567 60.6674C91.6792 60.4854 91.6792 60.4854 92.4742 59.7938C92.7711 58.9295 92.9294 58.2656 93.0428 57.3609C93.0783 57.123 93.1138 56.8851 93.1504 56.64C93.4728 54.3667 93.6556 52.083 93.7279 49.7676C93.7426 49.4366 93.7574 49.1056 93.7726 48.7645C93.8241 45.6401 93.0919 42.6677 92.3593 39.6059C96.5255 41.7908 101.002 44.2333 104.685 47.293C104.485 47.434 104.485 47.434 104.282 47.5778C102.139 49.1954 100.809 51.4368 100.361 54.2575C100.239 58.0798 101.065 61.2998 102.76 64.7749C102.889 65.042 103.019 65.3091 103.152 65.5842C104.06 67.4084 105.059 69.1354 106.188 70.827C106.324 71.0307 106.459 71.2344 106.599 71.4442C107.417 72.6244 108.241 73.4946 109.381 74.3529C110.72 73.8608 111.398 73.4018 111.999 72.0317C112.073 71.8426 112.148 71.6536 112.226 71.4588C112.309 71.2606 112.392 71.0625 112.477 70.8583C112.729 70.2493 112.971 69.6362 113.212 69.0216C113.353 68.6731 113.495 68.3246 113.642 67.9655C115.235 63.8152 115.614 60.0234 115.316 55.4454C119.338 59.0337 123.278 62.6692 127.05 66.5577C126.786 66.6753 126.786 66.6753 126.516 66.7952C126.168 66.9552 126.168 66.9552 125.813 67.1185C125.468 67.2746 125.468 67.2746 125.117 67.4339C123.123 68.5526 121.97 70.9564 121.279 73.171C120.444 77.347 120.71 82.7987 122.453 86.9167C123.083 87.4374 123.083 87.4374 123.777 87.6763C126.941 87.2784 130.098 83.3071 131.893 80.83C133.053 79.1214 133.939 77.5312 134.157 75.3573C135.614 77.1101 136.87 78.9778 138.132 80.8848C138.34 81.1963 138.548 81.5079 138.762 81.8288C139.836 83.4178 139.836 83.4178 140.757 85.0984C140.426 85.7301 140.087 86.3572 139.744 86.9812C138.993 89.4687 139.468 91.8938 140.536 94.3226C142.299 97.7358 148.349 105.464 152.362 104.518Z" fill="#97CF67"/>
</svg>
