<svg width="154" height="105" viewBox="0 0 154 105" fill="none" xmlns="http://www.w3.org/2000/svg">
<path d="M152.362 0.0796957C153.189 0.747538 153.263 1.06263 153.361 2.17391C153.831 7.92525 153.52 13.287 150.13 18.3322C148.683 20.0554 146.725 20.9922 144.652 21.3719C144.395 21.2484 144.138 21.1248 143.873 20.9975C143.767 21.1931 143.661 21.3887 143.552 21.5902C141.963 24.4518 140.16 27.1451 138.337 29.8541C138.662 29.8293 138.988 29.8044 139.323 29.7788C146.814 29.2637 146.814 29.2637 148.859 30.4414C149.32 30.9451 149.32 30.9451 149.43 32.0452C147.699 36.3016 143.464 41.1603 139.556 43.2093C136.973 44.335 134.638 44.693 132.102 43.6973C131.247 43.278 130.645 42.762 129.985 42.0632C129.816 41.8855 129.646 41.7078 129.472 41.5247C129.346 41.3893 129.219 41.2539 129.089 41.1144C128.921 41.2825 128.754 41.4506 128.582 41.6238C124.432 45.7826 120.191 49.7377 115.758 53.5533C115.946 53.5697 116.135 53.5861 116.329 53.603C118.62 53.8771 120.511 54.6393 122.552 55.6547C123.072 55.9131 123.595 56.1637 124.12 56.4135C129.513 59.045 129.513 59.045 130.26 60.8387C130.408 61.6428 130.408 61.6428 130.028 62.4497C129.199 63.364 128.326 63.955 127.292 64.5512C127.094 64.6675 126.897 64.7838 126.693 64.9036C124.628 66.0945 122.514 67.0775 120.335 67.9693C120.036 68.092 119.737 68.2147 119.43 68.3412C115.354 69.8624 111.585 69.5285 107.899 67.6878C105.762 66.3974 104.757 64.3811 104.075 61.8983C103.928 62.0586 103.782 62.2189 103.63 62.3841C102.619 63.2969 101.529 63.9479 100.381 64.638C100.141 64.7832 99.9019 64.9283 99.6553 65.0779C97.703 66.2524 95.723 67.3518 93.7233 68.4223C92.4793 69.0912 91.2537 69.7913 90.0296 70.5037C90.2003 70.53 90.371 70.5563 90.5469 70.5834C95.8681 71.6848 100.904 77.3557 103.948 81.6824C104.22 82.211 104.22 82.211 104.33 83.3112C103.77 84.4543 103.391 84.8249 102.266 85.3348C101.871 85.4548 101.474 85.5674 101.077 85.6738C100.863 85.7346 100.65 85.7954 100.43 85.8581C93.8462 87.6699 87.2891 88.5574 81.3722 85.1893C79.4524 83.7922 77.9903 81.8579 77.485 79.382C77.2249 77.1932 77.2249 77.1932 77.743 76.1153C75.8102 76.5627 73.9419 77.1442 72.0621 77.8346C68.3524 79.1867 64.5819 80.1397 60.757 80.864C61.1867 81.1671 61.1867 81.1671 61.6251 81.4763C66.1396 84.7656 69.4673 88.8994 72.1355 93.9641C72.4047 94.4662 72.6924 94.9562 72.9812 95.4451C74.1033 97.4088 74.1033 97.4088 73.9192 98.9486C73.25 100.037 72.9231 100.115 71.7867 100.476C70.9875 100.601 70.9875 100.601 70.1427 100.664C69.83 100.688 69.5172 100.712 69.195 100.736C68.8649 100.757 68.5349 100.778 68.1949 100.8C67.6844 100.833 67.6844 100.833 67.1637 100.867C60.586 101.252 53.5875 100.685 48.6019 96.0932C46.487 93.7985 45.1004 90.9346 45.0108 87.5789C45.1392 85.9889 45.7155 84.8357 46.432 83.4016C46.1916 83.4232 45.9513 83.4447 45.7037 83.4669C44.7901 83.548 43.8765 83.6278 42.9629 83.7067C42.3818 83.7573 41.8008 83.8094 41.2197 83.8615C38.6615 84.0813 36.1332 84.1899 33.5802 84.2043C33.8295 84.4537 34.0788 84.7031 34.3357 84.9601C38.3383 89.0827 41.6877 93.4789 44.577 98.5649C44.7305 98.8335 44.8841 99.1021 45.0423 99.3789C45.5986 100.44 45.854 101.028 45.7599 102.296C45.081 103.416 44.4746 103.496 43.2988 103.884C42.475 104.044 41.6575 104.129 40.8287 104.202C40.4783 104.234 40.4783 104.234 40.1208 104.267C32.2692 104.952 23.2355 105.087 17.2688 99.4097C14.8084 96.7407 13.1602 93.9347 13.202 89.9837C13.4556 87.2342 14.6404 85.3353 16.4379 83.2936C16.1539 83.2544 16.1539 83.2544 15.8642 83.2144C12.2737 82.7113 8.7099 82.1499 5.18467 81.3526C4.89953 81.2892 4.61441 81.2258 4.32063 81.1604C2.87216 80.8221 1.54263 80.4647 0.262449 79.7064C-0.0268675 78.9784 -0.0268675 78.9784 0.0286388 78.1979C0.550462 77.2725 0.806562 76.9706 1.76154 76.5878C2.49023 76.6998 2.49024 76.6998 3.37849 76.9124C3.70782 76.9891 4.03715 77.0658 4.37645 77.1448C4.72966 77.2289 5.08286 77.3129 5.44677 77.3995C9.06476 78.2347 12.6926 78.8929 16.3791 79.4261C16.2792 79.208 16.1792 78.9899 16.0763 78.7652C14.6301 75.2734 14.5526 71.7272 15.8819 67.9666C15.992 67.6912 16.1022 67.4157 16.2157 67.1319C16.3174 66.8739 16.4192 66.616 16.524 66.3503C20.0904 58.2111 28.3646 52.4606 35.6923 48.6094C35.8906 48.505 36.0888 48.4006 36.293 48.293C36.9926 48.053 37.3764 48.0931 38.0491 48.3093C39.191 49.5707 39.0723 51.0519 39.0466 52.759C39.0442 53.0495 39.0419 53.34 39.0394 53.6393C38.8774 62.8731 37.2705 72.2676 30.7887 79.3723C30.5186 79.7071 30.25 80.0432 29.984 80.3815C34.0412 80.3651 38.0902 80.2724 42.1566 79.9941C42.4971 79.9712 42.8375 79.9482 43.1882 79.9246C45.0494 79.7895 46.8821 79.5838 48.7358 79.2738C48.6453 79.0948 48.5547 78.9158 48.4614 78.7314C46.8256 75.4527 46.5368 72.4611 47.5012 68.6678C47.6341 68.3502 47.767 68.0326 47.9039 67.7053C48.0596 67.3266 48.2152 66.9479 48.3756 66.5578C51.8162 59.7025 58.1343 55.3015 64.44 51.7776C64.9348 51.5006 65.4253 51.2142 65.9153 50.9271C66.6933 50.5607 66.6932 50.5607 67.6888 50.7339C68.789 51.6715 68.6952 52.3379 68.8083 53.8116C68.8615 55.2647 68.7787 56.6972 68.6554 58.1571C68.6306 58.4641 68.6058 58.7712 68.5803 59.0876C68.0361 65.3832 66.6714 71.0037 63.1971 76.4527C68.4844 75.1008 73.6488 73.5053 78.7486 71.3634C78.5815 71.0528 78.4144 70.7421 78.2423 70.422C76.5329 67.122 76.0085 64.2606 76.9886 60.3958C79.3376 54.2186 83.2724 49.6213 88.2683 45.5748C88.4672 45.406 88.6662 45.2373 88.8712 45.0634C89.4625 44.5994 89.9826 44.227 90.6567 43.9307C91.6792 44.1127 91.6792 44.1127 92.4742 44.8044C92.7711 45.6687 92.9294 46.3325 93.0428 47.2372C93.0783 47.4751 93.1138 47.7131 93.1504 47.9582C93.4729 50.2314 93.6556 52.5152 93.7279 54.8305C93.7426 55.1615 93.7574 55.4926 93.7726 55.8336C93.8241 58.9581 93.0919 61.9305 92.3593 64.9922C96.5255 62.8073 101.002 60.3649 104.685 57.3052C104.485 57.1642 104.485 57.1642 104.282 57.0203C102.139 55.4027 100.809 53.1613 100.361 50.3406C100.239 46.5183 101.065 43.2983 102.76 39.8233C102.889 39.5562 103.019 39.2891 103.152 39.0139C104.06 37.1897 105.059 35.4627 106.188 33.7711C106.324 33.5675 106.459 33.3638 106.599 33.1539C107.417 31.9737 108.241 31.1035 109.381 30.2453C110.72 30.7374 111.398 31.1963 111.999 32.5664C112.073 32.7555 112.148 32.9445 112.226 33.1393C112.309 33.3375 112.392 33.5357 112.477 33.7398C112.729 34.3488 112.971 34.962 113.212 35.5765C113.353 35.925 113.495 36.2736 113.642 36.6326C115.235 40.7829 115.614 44.5747 115.316 49.1527C119.338 45.5644 123.278 41.9289 127.05 38.0404C126.786 37.9229 126.786 37.9229 126.516 37.803C126.168 37.6429 126.168 37.6429 125.813 37.4796C125.468 37.3235 125.468 37.3235 125.117 37.1642C123.123 36.0456 121.97 33.6418 121.279 31.4272C120.444 27.2511 120.71 21.7994 122.453 17.6815C123.083 17.1608 123.083 17.1608 123.777 16.9219C126.941 17.3197 130.098 21.291 131.893 23.7681C133.053 25.4768 133.939 27.0669 134.157 29.2408C135.614 27.4881 136.87 25.6203 138.132 23.7133C138.34 23.4018 138.548 23.0903 138.762 22.7693C139.836 21.1804 139.836 21.1804 140.757 19.4998C140.426 18.868 140.087 18.2409 139.744 17.6169C138.993 15.1294 139.468 12.7044 140.536 10.2756C142.299 6.86232 148.349 -0.866182 152.362 0.0796957Z" fill="#97CF67"/>
</svg>
