<svg preserveAspectRatio="none" width="100%" height="100%" overflow="visible" style="display: block;" viewBox="0 0 45.9163 15.0948" fill="none" xmlns="http://www.w3.org/2000/svg">
<path id="Vector" d="M39.3308 0C39.2547 0 39.1798 1.14104e-07 39.1085 0.00178355C39.046 0.00178355 38.9824 0 38.92 0C37.3992 0 35.731 0.295475 33.9171 0.885829C31.0129 1.79128 28.1141 3.79896 25.2194 6.90649C24.569 6.92195 24.0137 7.15797 23.5524 7.61456C23.5006 7.65677 23.4507 7.70255 23.4002 7.7513C20.443 5.73767 17.7552 4.43806 15.3355 3.85068C13.5276 3.38042 11.8671 3.1444 10.3541 3.1444C9.15317 3.1444 8.04678 3.29362 7.03313 3.58909C5.96775 3.83106 4.81439 4.58134 3.57066 5.8429C2.78531 6.53373 1.59509 8.46531 0 11.6353C2.96961 9.11215 5.09857 7.54738 6.38808 6.94038C7.91598 6.07893 9.60679 5.64969 11.4575 5.64969C11.511 5.64969 11.5657 5.64969 11.6186 5.65088C12.9159 5.65563 14.3754 6.0605 15.999 6.8625C17.6322 7.7406 19.5364 9.17457 21.7123 11.162H21.7111C21.6059 11.6323 21.5179 12.1466 21.4478 12.7054L17.8937 13.5883L20.034 15.0948L21.9073 13.6822C22.6106 13.6168 23.2801 13.5163 23.9162 13.3796C24.4245 13.2399 24.7182 13.1436 24.7973 13.0907C24.9786 13.0116 25.1474 12.9182 25.3044 12.8118C25.6135 12.5942 25.8722 12.3219 26.0808 11.9979C26.1569 11.9171 26.4762 11.3356 27.041 10.2536C27.2812 9.89453 27.4351 9.69477 27.5023 9.65673C27.6616 9.46826 27.9892 9.26732 28.488 9.0527C28.9309 8.89753 29.3941 8.77744 29.8762 8.69064L27.9298 8.16865C29.6372 6.17464 31.5444 4.66636 33.6478 3.64201C35.4849 2.68483 37.3338 2.01065 39.1953 1.62243C40.5775 1.28772 42.8176 1.07905 45.9163 0.994031C43.0656 0.33174 40.8712 0 39.3308 0Z" fill="var(--fill-0, #00390D)"/>
</svg>
