<svg preserveAspectRatio="none" width="100%" height="100%" overflow="visible" style="display: block;" viewBox="0 0 64.2823 20.4645" fill="none" xmlns="http://www.w3.org/2000/svg">
<path id="Vector" d="M14.332 0C13.6571 0.00136076 12.9516 0.0278937 12.2155 0.0782388C10.0554 0.159879 5.98289 0.744969 0 1.83691C3.12071 1.65458 5.73456 1.56205 7.84225 1.56205C9.43832 1.56205 10.7446 1.61444 11.7596 1.72057C14.4082 1.91243 16.7417 2.47983 18.7596 3.4221C21.7497 4.65147 24.6704 8.12119 27.5217 13.8319H27.5196L27.4482 15.1259C27.4251 15.4709 27.3843 15.8056 27.3264 16.1294C27.1353 16.9043 26.9842 17.3432 26.8733 17.4459C26.7257 17.7058 26.5502 17.9439 26.3474 18.1636C26.2719 18.2922 25.9195 18.5868 25.2895 19.0467C24.4724 19.5536 23.5805 20.008 22.6144 20.4088C23.5853 20.4469 24.4847 20.4645 25.3119 20.4645C28.5606 20.4645 30.7043 20.1754 31.7432 19.5937L32.2119 19.3304C32.5024 19.1386 32.7555 18.9249 32.9705 18.6895C33.395 18.2106 33.7005 17.6826 33.8869 17.1064C33.9386 16.9778 33.9856 16.8261 34.0278 16.6519H34.0257C36.4668 15.3579 39.9848 13.9939 44.5805 12.5624C48.1243 11.5453 50.8851 10.9323 52.8615 10.7214C55.2189 10.3507 59.0261 10.1554 64.2824 10.1309L61.7842 9.20769C59.2485 8.33549 57.1436 7.83749 55.4686 7.71503C54.825 7.64903 54.1576 7.61434 53.467 7.61434C52.3608 7.61434 51.194 7.70142 49.9674 7.87218C46.448 8.43482 43.1973 9.22537 40.2154 10.2445C37.522 11.1412 35.4925 11.9216 34.1291 12.5835C34.1114 12.3692 34.0924 12.1447 34.0706 11.9059C34.055 11.5154 34.0876 11.1412 34.1672 10.7786C34.3666 9.96558 34.8544 9.01787 35.6306 7.93818H35.6286L33.3277 8.96753C33.0351 8.83146 32.6861 8.76411 32.282 8.76411C31.8432 8.76411 31.3377 8.8437 30.7676 9.00426C30.3784 9.1206 30.0294 9.25123 29.7199 9.3975C26.2256 4.50043 22.9906 1.64914 20.0142 0.842938C18.4521 0.28166 16.558 0 14.332 0Z" fill="var(--fill-0, #00390D)"/>
</svg>
