<svg preserveAspectRatio="none" width="100%" height="100%" overflow="visible" style="display: block;" viewBox="0 0 427 457" fill="none" xmlns="http://www.w3.org/2000/svg">
<path id="Vector" d="M213.649 0C218.03 1.55482 219.426 2.73043 222.43 6.23314C223.033 5.42965 223.637 4.62616 224.259 3.79832C226.82 1.55829 226.82 1.55829 229.472 1.55829C234.187 3.85338 237.541 7.28529 241.453 10.908C242.902 11.6794 242.902 11.6794 244.38 12.4663C244.863 10.4094 245.346 8.35241 245.843 6.23314C252.794 9.15493 252.794 9.15493 256.087 10.908C259.671 11.0616 263.204 11.1246 266.787 11.1028C268.713 11.1068 270.639 11.1108 272.624 11.115C277.099 10.9439 281.021 10.4742 285.354 9.34972C285.835 11.1515 285.835 11.1515 286.325 12.9898C287.721 17.6885 289.139 22.0792 291.207 26.4909C295.675 29.3443 295.675 29.3443 299.987 29.6074C299.987 33.2071 299.987 36.8067 299.987 40.5154C300.953 40.5154 301.919 40.5154 302.914 40.5154C303.457 39.2138 303.457 39.2138 304.011 37.8858C306.176 33.6214 308.672 30.1115 311.694 26.4909C312.66 26.4909 313.626 26.4909 314.621 26.4909C314.892 27.68 315.164 28.8692 315.444 30.0944C318.476 36.1307 321.825 36.7217 327.791 38.9572C327.791 42.0426 327.791 45.128 327.791 48.3069C328.708 48.1582 329.624 48.0096 330.569 47.8564C331.765 47.6837 332.961 47.5109 334.193 47.3329C335.976 47.0618 335.976 47.0618 337.794 46.7851C338.839 46.7731 339.884 46.761 340.961 46.7486C343.888 49.8652 343.888 49.8652 343.888 54.54C342.439 55.3114 342.439 55.3114 340.961 56.0983C345.91 61.8329 350.363 65.4146 357.058 68.5646C357.058 70.6215 357.058 72.6785 357.058 74.7977C358.507 74.7977 359.955 74.7977 361.448 74.7977C364.345 80.9685 364.345 80.9685 367.301 87.264C368.75 85.7213 368.75 85.7213 370.228 84.1474C374.069 83.9527 374.069 83.9527 377.545 84.1474C379.56 90.1079 378.505 95.151 377.545 101.289C377.545 102.317 377.545 103.346 377.545 104.405C380.442 104.405 383.34 104.405 386.325 104.405C386.325 105.434 386.325 106.462 386.325 107.522C385.842 108.036 385.359 108.55 384.862 109.08C385.827 109.08 386.793 109.08 387.788 109.08C387.788 110.623 387.788 112.165 387.788 113.755C386.822 113.755 385.857 113.755 384.862 113.755C384.862 115.812 384.862 117.869 384.862 119.988C386.16 120.19 386.16 120.19 387.485 120.396C395.604 121.933 400.117 123.686 405.349 130.896C408.145 136.03 409.739 138.974 409.739 144.921C407.566 145.692 407.566 145.692 405.349 146.479C406.054 150.38 406.054 150.38 408.275 154.27C413.449 156.132 413.449 156.132 418.519 157.387C417.975 161.389 417.391 165.376 416.781 169.366C416.559 171.052 416.559 171.052 416.332 172.772C415.058 180.8 412.89 184.74 406.812 190.111C407.678 190.569 408.544 191.027 409.436 191.499C418.929 197.238 422.418 203.191 426.304 213.942C427.299 218.16 427.299 218.16 425.835 222.835C424.87 222.835 423.904 222.835 422.909 222.835C422.909 225.92 422.909 229.006 422.909 232.185C421.053 231.847 421.053 231.847 419.159 231.503C414.076 230.617 408.986 229.828 403.885 229.068C404.61 230.032 405.334 230.996 406.08 231.99C408.275 235.301 408.275 235.301 408.275 238.418C409.241 238.418 410.207 238.418 411.202 238.418C410.437 242.723 409.58 246.717 408.275 250.884C411.656 251.398 415.036 251.913 418.519 252.442C418.519 253.985 418.519 255.528 418.519 257.117C415.621 258.146 412.724 259.174 409.739 260.234C410.478 260.76 411.217 261.286 411.979 261.829C412.93 262.524 413.881 263.219 414.86 263.935C415.811 264.622 416.762 265.309 417.741 266.016C418.85 267.011 418.85 267.011 419.982 268.025C419.982 269.054 419.982 270.082 419.982 271.142C419.016 271.142 418.05 271.142 417.055 271.142C417.055 272.17 417.055 273.199 417.055 274.258C416.09 274.773 415.124 275.287 414.129 275.817C412.61 278.377 411.15 280.978 409.739 283.608C408.773 285.151 407.807 286.693 406.812 288.283C407.778 289.183 408.744 290.083 409.739 291.01C412.665 294.516 412.665 294.516 412.665 300.749C408.802 301.778 404.939 302.806 400.958 303.866C401.924 306.951 402.89 310.037 403.885 313.216C403.07 313.103 402.255 312.991 401.416 312.875C395.792 312.146 390.347 311.577 384.679 311.755C378.653 311.651 374.43 310.551 368.765 308.541C369.248 304.941 369.731 301.341 370.228 297.633C368.779 297.118 367.331 296.604 365.838 296.074C364.872 294.532 363.906 292.989 362.911 291.399C362.059 291.745 361.206 292.09 360.328 292.446C357.058 292.958 357.058 292.958 354.246 291.229C353.363 290.385 352.48 289.542 351.57 288.672C350.672 287.845 349.775 287.017 348.849 286.165C346.814 283.608 346.814 283.608 346.814 278.933C345.486 279.222 344.158 279.512 342.79 279.81C338.034 280.491 338.034 280.491 335.102 279.566C331.714 278.465 331.714 278.465 327.516 281.952C321.377 285.527 316.104 285.263 309.316 284.874C290.459 284.116 268.816 289.782 254.44 303.281C250.298 307.892 246.629 312.883 242.916 317.89C245.814 317.376 248.711 316.862 251.697 316.332C251.697 322.959 248.035 325.667 243.923 330.162C235.818 339.093 230.684 345.182 230.675 358.079C230.701 359.505 230.726 360.93 230.752 362.399C230.765 363.914 230.777 365.429 230.789 366.99C231.043 384.656 232.066 402.303 233.094 419.934C234.471 443.657 234.471 443.657 234.136 455.02C231.419 457.913 226.929 456.781 223.298 456.785C221.395 456.787 219.492 456.789 217.531 456.791C216.534 456.788 215.538 456.784 214.512 456.781C211.467 456.773 208.423 456.781 205.378 456.791C202.523 456.788 202.523 456.788 199.61 456.785C197.849 456.783 196.089 456.781 194.274 456.779C190.236 456.578 190.236 456.578 188.772 455.02C188.558 452.791 188.44 450.551 188.361 448.312C188.307 446.887 188.253 445.462 188.198 443.994C188.146 442.444 188.094 440.894 188.041 439.297C187.981 437.715 187.922 436.134 187.861 434.504C187.67 429.429 187.489 424.353 187.309 419.276C187.073 412.607 186.828 405.937 186.577 399.268C186.526 397.721 186.474 396.174 186.42 394.58C186.366 393.151 186.313 391.721 186.257 390.248C186.213 388.986 186.169 387.724 186.123 386.424C186.011 383.222 186.011 383.222 184.382 380.222C184.312 377.918 184.328 375.611 184.382 373.307C184.424 364.857 184.3 356.428 184.017 347.985C183.996 346.745 183.975 345.506 183.954 344.229C183.608 335.369 181.884 328.343 177.066 321.007C173.439 317.358 173.439 317.358 169.292 314.676C158.969 307.187 151.594 299.418 144.872 288.283C139.812 285.589 133.769 286.152 128.169 285.918C122.826 285.621 118.708 285.13 114.141 282.05C115.605 277.375 115.605 277.375 117.068 275.817C112.016 272.23 110.871 272.484 105.087 273.284C103.768 273.457 102.45 273.63 101.091 273.808C99.5832 274.031 99.5832 274.031 98.0446 274.258C98.0446 275.287 98.0446 276.315 98.0446 277.375C94.6642 278.918 91.2839 280.46 87.8011 282.05C87.8615 283.368 87.9219 284.685 87.984 286.043C87.7787 292.057 86.5898 296.599 84.8744 302.307C79.8292 301.819 76.7391 301.255 72.6188 298.022C69.8075 293.877 69.7191 291.726 70.2409 286.725C66.167 288.894 65.8816 291.642 64.3875 296.074C60.7377 294.52 58.8452 293.447 56.6134 289.939C55.6074 286.725 55.6074 286.725 57.0707 282.05C54.1801 282.592 54.1801 282.592 51.2173 283.608C50.7344 284.637 50.2515 285.665 49.754 286.725C45.9589 288.437 42.1431 289.384 38.0472 289.841C35.3034 288.38 35.3034 288.38 33.6571 285.166C32.5686 281.567 31.5763 277.931 30.7304 274.258C29.8853 274.162 29.0402 274.066 28.1695 273.966C22.315 271.715 19.7809 266.602 17.1944 260.818C16.0969 257.117 16.0969 257.117 16.0969 252.442C18.5548 250.281 18.5548 250.281 21.7674 248.254C22.8199 247.573 23.8725 246.893 24.957 246.191C27.8037 244.651 27.8037 244.651 30.7304 244.651C30.2475 242.08 29.7646 239.509 29.267 236.859C28.1201 236.635 26.9732 236.41 25.7916 236.178C21.9503 235.301 21.9503 235.301 19.0236 233.743C20.709 229.897 22.0203 227.435 24.877 224.393C23.0359 223.911 21.1948 223.429 19.298 222.932C15.2746 221.372 13.6008 220.675 11.724 216.504C11.1014 214.032 10.5032 211.552 9.92907 209.066C8.04621 203.54 4.78452 202.065 0 199.461C1.09751 192.059 1.09751 192.059 4.39006 188.553C6.61518 187.62 8.87687 186.784 11.1581 186.02C12.952 185.412 12.952 185.412 14.7821 184.791C15.6989 184.49 16.6157 184.188 17.5602 183.878C17.5602 181.307 17.5602 178.735 17.5602 176.086C24.2371 173.932 28.5541 175.61 35.1205 177.645C38.2842 177.045 38.2842 177.045 40.9739 176.086C39.1931 175.733 37.4124 175.379 35.5777 175.015C29.2806 173.356 26.1931 170.471 21.9503 165.178C21.0448 164.375 20.1394 163.571 19.2065 162.744C17.5602 160.503 17.5602 160.503 17.8346 157.387C19.0236 154.27 19.0236 154.27 21.9503 149.595C25.1171 149.139 25.1171 149.139 28.7183 149.303C29.9142 149.345 31.1102 149.388 32.3424 149.431C33.2591 149.485 34.1759 149.54 35.1205 149.595C32.3091 144.19 32.3091 144.19 28.4439 139.661C25.7147 136.376 25.6288 134.152 25.3343 129.825C25.19 127.935 25.19 127.935 25.0428 126.008C24.9881 125.05 24.9333 124.092 24.877 123.105C28.7402 122.59 32.6035 122.076 36.5838 121.546C36.5838 120.004 36.5838 118.461 36.5838 116.871C40.9714 113.024 43.0263 112.109 48.7479 112.684C50.0457 113.037 51.3435 113.391 52.6807 113.755C54.3773 108.255 53.9924 103.691 53.4124 97.9772C52.5217 89.1609 52.5217 89.1609 54.144 85.7057C57.3177 86.4943 59.997 87.2638 62.9241 88.8223C63.407 86.7654 63.89 84.7084 64.3875 82.5892C65.7909 83.023 65.7909 83.023 67.2227 83.4657C68.2187 83.6907 69.2147 83.9157 70.2409 84.1474C70.7238 83.6332 71.2067 83.119 71.7043 82.5892C71.7043 80.5322 71.7043 78.4753 71.7043 76.356C74.6017 76.356 77.4991 76.356 80.4844 76.356C79.5186 74.8133 78.5527 73.2706 77.5577 71.6812C77.952 65.1027 79.0703 60.8434 83.4111 56.0983C86.938 55.6539 86.938 55.6539 90.8193 56.0009C94.6174 56.4297 94.6174 56.4297 98.0446 56.0983C99.0104 54.5556 99.9762 53.0129 100.971 51.4234C102.42 51.4234 103.869 51.4234 105.361 51.4234C105.361 55.0231 105.361 58.6227 105.361 62.3314C110.673 62.3314 115.985 62.3314 121.458 62.3314C119.263 56.0983 119.263 56.0983 115.605 54.54C112.678 52.9817 112.678 52.9817 109.751 46.7486C112.649 43.1489 115.546 39.5493 118.532 35.8406C117.083 33.5265 117.083 33.5265 115.605 31.1657C115.932 26.5204 116.481 24.0999 119.355 20.5499C120.049 19.9392 120.743 19.3286 121.458 18.6994C124.839 19.7279 128.219 20.7564 131.702 21.816C132.667 20.7875 133.633 19.7591 134.628 18.6994C142.443 17.5647 145.908 20.2803 152.189 24.9326C154.12 24.9326 156.052 24.9326 158.042 24.9326C158.363 23.7675 158.683 22.6025 159.014 21.4021C163.277 7.30246 163.277 7.30246 168.468 3.60354C172.676 1.55829 172.676 1.55829 175.602 1.55829C177.066 3.11657 178.529 4.67486 179.992 6.23314C184.923 10.4095 187.859 12.3509 194.169 13.148C199.501 12.398 200.042 11.8407 203.406 7.79143C204.915 7.2772 206.424 6.76296 207.979 6.23314C209.367 5.71891 210.756 5.20468 212.186 4.67486C212.669 3.13215 213.152 1.58945 213.649 0ZM251.697 88.8223C250.731 89.8508 249.765 90.8792 248.77 91.9389C246.842 93.0258 244.893 94.0731 242.916 95.0555C247.401 99.8126 247.401 99.8126 253.251 101.289C256.865 99.3022 259.228 96.6943 261.94 93.4972C260.793 93.0151 259.646 92.533 258.465 92.0363C254.623 90.3806 254.623 90.3806 251.697 88.8223ZM100.971 101.289C103.386 103.346 105.8 105.402 108.288 107.522C109.254 107.008 110.22 106.493 111.215 105.963C106.743 101.931 106.743 101.931 100.971 101.289ZM352.668 116.871C352.185 118.414 351.702 119.957 351.205 121.546C352.653 121.546 354.102 121.546 355.595 121.546C355.112 120.004 354.629 118.461 354.131 116.871C353.648 116.871 353.165 116.871 352.668 116.871ZM393.642 129.338C392.193 131.652 392.193 131.652 390.715 134.013C393.13 134.013 395.544 134.013 398.032 134.013C398.515 132.984 398.998 131.956 399.495 130.896C397.563 130.382 395.632 129.868 393.642 129.338ZM264.867 176.086C263.418 177.629 261.969 179.172 260.477 180.761C262.891 179.733 265.306 178.704 267.793 177.645C266.828 177.13 265.862 176.616 264.867 176.086ZM38.0472 239.976C37.0813 241.005 36.1155 242.033 35.1205 243.093C36.5692 243.093 38.0179 243.093 39.5105 243.093C39.0276 242.064 38.5447 241.036 38.0472 239.976ZM365.838 257.117C364.872 258.146 363.906 259.174 362.911 260.234C365.326 259.72 367.74 259.205 370.228 258.675C368.779 258.161 367.331 257.647 365.838 257.117ZM222.338 259.065C220.773 259.607 220.773 259.607 219.177 260.161C216.38 261.572 216.38 261.572 215.307 264.568C215.051 269.125 216.247 272.035 217.948 276.206C218.783 278.291 218.783 278.291 219.634 280.418C220.294 281.997 220.294 281.997 220.966 283.608C222.415 283.608 223.864 283.608 225.356 283.608C226.346 280.659 227.318 277.703 228.283 274.745C228.826 273.1 229.369 271.455 229.929 269.76C231.121 265.246 231.469 261.766 231.21 257.117C227.865 257.117 225.501 257.916 222.338 259.065ZM250.233 258.675C249.267 262.275 248.302 265.875 247.307 269.583C251.003 265.901 252.996 263.873 254.623 258.675C253.175 258.675 251.726 258.675 250.233 258.675ZM160.969 260.234C162.814 266.293 164.558 269.418 169.749 272.7C170.715 272.7 171.68 272.7 172.676 272.7C172.303 270.65 171.901 268.606 171.487 266.564C171.266 265.425 171.045 264.286 170.818 263.113C170.465 262.163 170.112 261.213 169.749 260.234C165.359 258.156 165.359 258.156 160.969 260.234ZM150.725 264.909C153.999 278.505 162.591 290.34 172.676 299.191C174.596 300.293 176.541 301.351 178.529 302.307C177.744 291.161 173.102 283.533 165.41 276.231C158.594 269.01 158.594 269.01 150.725 264.909ZM381.935 264.909C381.935 265.937 381.935 266.966 381.935 268.025C388.698 271.482 393.303 273.297 400.958 272.7C397.38 268.079 394.452 267.159 388.977 266.175C386.999 265.804 386.999 265.804 384.982 265.426C383.976 265.255 382.971 265.085 381.935 264.909ZM193.162 271.142C193.162 275.77 193.162 280.398 193.162 285.166C194.128 284.652 195.094 284.138 196.089 283.608C196.089 280.008 196.089 276.409 196.089 272.7C195.123 272.186 194.158 271.672 193.162 271.142ZM273.647 274.258C273.647 274.773 273.647 275.287 273.647 275.817C277.51 276.331 281.373 276.845 285.354 277.375C284.871 276.346 284.388 275.318 283.89 274.258C280.51 274.258 277.13 274.258 273.647 274.258ZM307.304 275.817C313.157 277.375 313.157 277.375 313.157 277.375L307.304 275.817ZM253.343 282.05C252.317 283.592 251.29 285.135 250.233 286.725C255.781 284.466 261.044 281.813 266.33 278.933C266.33 278.419 266.33 277.905 266.33 277.375C260.053 276.442 257.307 276.897 253.343 282.05ZM207.796 297.633C204.412 303.039 204.248 305.303 204.869 311.657C206.881 314.585 206.881 314.585 209.259 316.332C211.156 306.533 211.156 306.533 207.796 297.633Z" fill="var(--fill-0, #00390D)"/>
</svg>
