<svg preserveAspectRatio="none" width="100%" height="100%" overflow="visible" style="display: block;" viewBox="0 0 56.1382 15.2214" fill="none" xmlns="http://www.w3.org/2000/svg">
<path id="Vector" d="M14.5216 0C14.4843 0 14.4483 0.00196388 14.4136 0.00458239C14.4044 0.00458239 14.3952 0.00458239 14.3867 0.00458239C13.8683 0.00458239 13.287 0.201625 12.6441 0.59571C12.0189 0.969502 11.1614 1.64311 10.0701 2.61785C8.59198 3.87735 5.23505 7.23362 0 12.688L14.1419 4.50645C14.2329 4.47568 14.3403 4.46063 14.462 4.46063C14.9536 4.46063 15.6947 4.70873 16.6858 5.20559C18.3125 5.97478 21.8809 7.78875 27.3915 10.6468H27.3883C27.2056 10.9657 27.0649 11.2629 26.966 11.5371C26.5733 12.5983 26.4476 13.827 26.5903 15.2214C27.2573 14.7514 27.8118 14.4286 28.2537 14.2552C28.5712 14.1452 28.763 14.0895 28.8298 14.0882C28.9568 14.0594 29.3541 14.0267 30.0212 13.9907C30.1547 13.9763 30.2883 13.9521 30.4205 13.9174C30.6863 13.8539 30.9468 13.7164 31.2028 13.5043C31.3966 13.3786 31.7055 12.9734 32.1297 12.2893C32.1697 12.2317 32.2587 12.0707 32.3962 11.8062L32.3935 11.8068C39.9414 8.1776 44.5369 5.92306 46.1793 5.04324C46.7796 4.76045 47.1933 4.61905 47.4192 4.61905C47.4441 4.61905 47.467 4.62036 47.4873 4.62428C47.4991 4.62363 47.5108 4.62297 47.5226 4.62297C47.9926 4.62297 48.6375 5.07794 49.457 5.98787C50.7565 7.31545 52.9835 9.74739 56.1382 13.283C53.5118 8.065 51.6062 4.45932 50.422 2.46663C49.8695 1.5567 49.4826 1.00027 49.2626 0.79799C48.9811 0.494898 48.6879 0.324695 48.3815 0.287381C48.3324 0.273634 48.2754 0.267088 48.2113 0.267088C47.8761 0.267088 47.3374 0.453002 46.595 0.825484L35.5894 6.71189L34.5905 6.35643C34.1676 5.872 33.7918 5.56498 33.4645 5.43471C33.3225 5.3771 33.1739 5.34765 33.0187 5.34765C32.8289 5.34765 32.6299 5.39151 32.4217 5.47792C32.0427 5.63306 31.606 5.91979 31.1124 6.3381C30.3302 7.02545 29.6716 7.67615 29.1368 8.29019C29.1086 8.32227 29.0811 8.35435 29.0536 8.38642L16.7061 0.831376C15.7477 0.276907 15.0198 0 14.5216 0Z" fill="var(--fill-0, #00390D)"/>
</svg>
